<?xml version="1.0" encoding="UTF-8"?>
<svg xmlns="http://www.w3.org/2000/svg" width="291" height="289" viewBox="0 0 291 289" fill="none">
  <g clip-path="url(#clip0_100_2080)">
    <path d="M136.472 70.2428C136.537 69.9388 136.472 69.6304 136.293 69.3832C136.085 69.0947 135.745 68.8986 135.269 68.9313C134.871 68.9782 134.541 69.2297 134.389 69.6034C132.963 73.0493 129.498 83.7407 128.066 108.569C127.314 121.592 127.23 136.692 127.828 153.439C128.535 173.387 130.21 195.941 132.806 220.467C132.839 220.759 132.944 221.038 133.114 221.269C133.425 221.707 133.931 221.969 134.464 221.969L134.968 221.961C135.428 221.954 135.864 221.758 136.174 221.419C136.485 221.08 136.64 220.623 136.604 220.165C135.739 208.958 128.397 109.57 136.47 70.2443L136.472 70.2428Z" fill="white"></path>
    <path d="M127.922 186.508C119.542 190.744 116.406 197.13 115.643 198.984C115.288 199.834 115.156 200.736 115.244 201.602C115.348 202.565 115.674 203.095 116.236 203.217C116.32 203.236 116.402 203.249 116.481 203.249C116.914 203.249 117.33 203.01 117.571 202.628C121.101 197.028 124.613 195.852 126.936 195.852C127.549 195.852 128.143 195.936 128.701 196.093L128.918 196.156L128.129 186.406L127.922 186.508Z" fill="white"></path>
    <path fill-rule="evenodd" clip-rule="evenodd" d="M101.086 221.154L101.09 221.149C112.1 210.447 110.733 169.596 110.143 151.974L110.077 149.952C109.813 141.803 108.728 132.695 107.734 124.365C106.527 114.238 105.463 105.281 106.201 101.102C106.526 99.2691 107.09 97.1618 107.691 94.911C109.727 87.2974 112.177 78.1364 108.076 70.6863C107.943 70.3964 107.729 70.1392 107.443 69.9616C106.67 69.4785 105.657 69.7172 105.178 70.4874L98.3343 81.5482L90.3951 71.1339C89.8453 70.4092 88.8138 70.2714 88.0954 70.8241C87.7765 71.0629 87.5782 71.3939 87.4931 71.7506C87.2041 72.7296 84.8548 81.2981 88.2739 89.7032C89.9218 93.7558 91.1957 97.5483 91.5386 101.928C91.8829 106.323 91.3076 111.377 89.2573 117.989C85.3309 130.633 83.0297 151.729 83.5724 171.946C84.0358 189.241 86.582 205.958 91.9679 216.353C92.3845 217.159 93.382 217.475 94.1869 217.049C94.9917 216.631 95.3034 215.637 94.8869 214.827C91.8829 209.042 89.8042 201.122 88.502 192.191C88.5233 192.051 88.5275 191.912 88.5091 191.77C88.4935 191.585 88.5063 191.449 88.5559 191.354C88.648 191.162 88.9257 191.01 89.3366 190.902C89.9884 190.737 90.8584 190.737 91.8531 190.908C93.8638 191.251 96.25 192.287 98.3938 194.048C99.0967 194.623 100.132 194.52 100.705 193.815C101.282 193.111 101.178 192.07 100.474 191.493C97.871 189.362 94.9209 188.093 92.4029 187.658C90.9605 187.411 89.62 187.435 88.5134 187.722C88.3178 187.769 88.1265 187.83 87.9423 187.895C87.3529 182.753 86.9944 177.347 86.8484 171.874C86.3171 151.994 88.5559 131.316 92.3944 118.971C94.5822 111.916 95.1958 106.462 94.8174 101.672C94.4405 96.8606 93.0802 92.7909 91.3204 88.4655C89.4174 83.7876 89.5492 79.0544 89.9601 75.9894L97.1242 85.3891C97.2475 85.5653 97.4105 85.7202 97.6074 85.8409C98.3754 86.3227 99.3885 86.0882 99.8703 85.3138L106.306 74.9165C108.058 80.8079 106.142 87.9696 104.518 94.0613C103.892 96.3888 103.308 98.5771 102.961 100.532C102.137 105.182 103.233 114.368 104.47 124.753C105.462 133.063 106.541 142.153 106.799 150.056L106.864 152.078C107.411 168.355 108.633 204.961 100.281 217.014C98.7651 213.571 96.0488 206.861 95.081 200.86C94.9393 199.963 94.0962 199.348 93.2035 199.493C92.3094 199.635 91.6959 200.475 91.8418 201.373C93.297 210.405 98.3754 220.737 98.3896 220.769C98.7892 221.589 99.7711 221.929 100.589 221.529C100.784 221.431 100.95 221.305 101.087 221.153L101.086 221.154ZM102.49 207.163C102.49 208.381 101.504 209.369 100.287 209.369C99.0697 209.369 98.0807 208.38 98.0807 207.163C98.0807 205.947 99.0697 204.95 100.287 204.95C101.504 204.95 102.49 205.94 102.49 207.163Z" fill="white"></path>
    <path fill-rule="evenodd" clip-rule="evenodd" d="M166.391 69.9941H166.398C177.408 80.7011 176.04 121.551 175.448 139.173L175.383 141.196C175.119 149.344 174.034 158.454 173.041 166.784C171.836 176.914 170.766 185.87 171.508 190.048C171.829 191.881 172.393 193.987 172.995 196.237C175.033 203.854 177.481 213.011 173.377 220.461C173.25 220.751 173.034 221.005 172.746 221.19C171.977 221.667 170.961 221.43 170.483 220.658L163.638 209.599L155.701 220.016C155.15 220.736 154.117 220.874 153.396 220.323C153.087 220.083 152.882 219.755 152.797 219.398C152.509 218.417 150.161 209.85 153.577 201.445C155.225 197.388 156.501 193.596 156.846 189.221C157.192 184.823 156.615 179.771 154.561 173.159C150.637 160.51 148.335 139.419 148.879 119.201C149.339 101.906 151.887 85.1872 157.271 74.7942C157.689 73.9899 158.684 73.6759 159.489 74.0936C160.294 74.5142 160.61 75.5089 160.192 76.3189C157.192 82.1093 155.11 90.0256 153.81 98.9578C153.828 99.097 153.832 99.2377 153.818 99.3812C153.798 99.5631 153.814 99.6981 153.865 99.7947C153.954 99.9866 154.232 100.141 154.641 100.247C155.292 100.413 156.16 100.413 157.158 100.242C159.167 99.8942 161.553 98.8626 163.699 97.1034C164.401 96.5222 165.436 96.6331 166.011 97.3336C166.586 98.0413 166.483 99.08 165.78 99.6555C163.179 101.791 160.227 103.06 157.715 103.491C156.268 103.738 154.928 103.717 153.82 103.431C153.624 103.377 153.433 103.317 153.251 103.252C152.662 108.397 152.302 113.806 152.156 119.279C151.623 139.156 153.869 159.836 157.702 172.178C159.89 179.234 160.505 184.686 160.125 189.477C159.745 194.286 158.385 198.358 156.628 202.68C154.722 207.367 154.853 212.097 155.272 215.161L162.436 205.759C162.559 205.586 162.72 205.427 162.915 205.303C163.685 204.826 164.699 205.063 165.177 205.836L171.612 216.231C173.368 210.341 171.454 203.18 169.826 197.087C169.198 194.755 168.616 192.573 168.27 190.615C167.448 185.964 168.543 176.782 169.78 166.399C170.769 158.089 171.85 149.002 172.104 141.092L172.169 139.068C172.716 122.793 173.938 86.1847 165.589 74.1348C164.071 77.5778 161.352 84.2891 160.387 90.287C160.244 91.1851 159.402 91.7975 158.508 91.6554C157.611 91.5119 157.004 90.6678 157.147 89.7712C158.602 80.7424 163.682 70.4105 163.693 70.3806C164.091 69.5621 165.079 69.2197 165.892 69.6176C166.091 69.7142 166.255 69.8407 166.392 69.9941H166.391Z" fill="white"></path>
    <path fill-rule="evenodd" clip-rule="evenodd" d="M167.795 83.9864C167.795 82.7644 166.808 81.7754 165.593 81.7754C164.379 81.7754 163.387 82.7644 163.387 83.9864C163.387 85.2085 164.375 86.1975 165.593 86.1975C166.812 86.1975 167.795 85.2085 167.795 83.9864Z" fill="white"></path>
    <path d="M193.053 70.4178C193.023 70.1279 192.917 69.8522 192.747 69.622C192.436 69.1858 191.93 68.9243 191.375 68.9243L190.896 68.9314C190.435 68.9385 189.992 69.1332 189.686 69.4728C189.377 69.8124 189.22 70.2714 189.255 70.729C190.118 81.9319 197.464 181.323 189.388 220.646C189.325 220.953 189.388 221.261 189.57 221.508C189.775 221.797 190.111 221.969 190.465 221.969L190.594 221.959C190.988 221.912 191.318 221.667 191.473 221.287C192.898 217.844 196.364 207.148 197.797 182.324C198.548 169.3 198.63 154.204 198.033 137.452C197.328 117.503 195.65 94.9508 193.054 70.4192L193.053 70.4178ZM190.465 221.809V221.787C190.465 221.787 190.472 221.79 190.481 221.79L190.465 221.809Z" fill="white"></path>
    <path d="M209.621 87.6684C209.12 87.559 208.575 87.8048 208.289 88.2624C204.761 93.8624 201.248 95.0347 198.926 95.0347C198.311 95.0347 197.717 94.9551 197.159 94.7946L196.944 94.732L197.733 104.48L197.938 104.38C206.324 100.146 209.457 93.7587 210.218 91.9015C210.568 91.0546 210.708 90.1494 210.617 89.2883C210.511 88.3235 210.188 87.7949 209.621 87.667V87.6684Z" fill="white"></path>
    <path d="M28.9075 90.9235L34.2097 80.8716L39.4837 83.6695L34.1814 93.7214L28.9075 90.9235Z" fill="white"></path>
    <path d="M36.7956 49.8715L54.2497 65.245L60.3767 58.2496L65.3049 62.5892L54.0684 75.4192L31.686 55.7046L36.7956 49.8701V49.8715Z" fill="white"></path>
    <path d="M79.2664 45.0789L70.3282 51.6154L71.9407 56.8602L65.2682 61.7398L56.8784 30.9019L63.7096 25.9058L90.4236 43.3439L83.7511 48.2221L79.265 45.0789H79.2664ZM74.1384 41.5222L65.4865 35.5414L68.5202 45.6303L74.1384 41.5222Z" fill="white"></path>
    <path d="M107.09 12.4846L114.209 34.6603L106.838 37.0404L99.7187 14.8647L93.664 16.8186L91.6548 10.5578L111.137 4.26855L113.146 10.5294L107.091 12.4846H107.09Z" fill="white"></path>
    <path d="M118.858 17.1311C118.678 14.9201 118.916 12.827 119.575 10.8504C120.232 8.87527 121.225 7.11753 122.554 5.5772C123.882 4.03687 125.517 2.78357 127.46 1.81589C129.403 0.848207 131.582 0.265608 133.996 0.0680933C136.385 -0.128001 138.623 0.0936708 140.71 0.730266C142.797 1.36828 144.627 2.33738 146.199 3.63899C147.772 4.9406 149.043 6.51362 150.012 8.3552C150.982 10.1968 151.557 12.2231 151.737 14.4355C151.917 16.6466 151.677 18.7411 151.02 20.7162C150.361 22.6914 149.362 24.4491 148.02 25.9909C146.68 27.5312 145.03 28.7873 143.075 29.755C141.118 30.7241 138.946 31.3053 136.557 31.5014C134.141 31.6989 131.898 31.4787 129.824 30.8407C127.75 30.2026 125.933 29.2307 124.374 27.9277C122.814 26.6246 121.55 25.0516 120.581 23.21C119.611 21.3685 119.036 19.3407 118.856 17.1297L118.858 17.1311ZM126.93 16.4689C127.026 17.654 127.338 18.7283 127.867 19.6917C128.394 20.6565 129.068 21.475 129.89 22.15C130.711 22.825 131.644 23.3251 132.689 23.6505C133.731 23.9759 134.818 24.0925 135.948 24.0001C137.076 23.9077 138.13 23.6164 139.107 23.1248C140.085 22.6345 140.931 21.988 141.645 21.188C142.359 20.388 142.899 19.4686 143.263 18.4313C143.628 17.394 143.762 16.2828 143.666 15.0991C143.569 13.914 143.256 12.8412 142.729 11.8764C142.201 10.9129 141.519 10.0945 140.686 9.41951C139.851 8.74597 138.912 8.2472 137.869 7.9218C136.825 7.5964 135.738 7.47988 134.61 7.57224C133.481 7.66461 132.428 7.95591 131.45 8.44756C130.472 8.93922 129.634 9.58434 128.932 10.3829C128.231 11.1829 127.698 12.1009 127.332 13.1382C126.967 14.1755 126.834 15.2853 126.93 16.4704V16.4689Z" fill="white"></path>
    <path d="M180.163 34.5124L170.67 32.8214L165.399 20.2131L163.396 31.5255L155.771 30.167L160.981 0.75293L172.845 2.86591C174.479 3.15721 175.862 3.65171 176.997 4.34941C178.131 5.04853 179.019 5.88264 179.662 6.856C180.306 7.82937 180.732 8.89794 180.94 10.0617C181.149 11.2255 181.143 12.4319 180.922 13.6795C180.525 15.9161 179.667 17.6341 178.343 18.8334C177.02 20.0327 175.266 20.6934 173.076 20.8128L180.161 34.5095L180.163 34.5124ZM166.278 15.2596L167.717 15.5154C169.221 15.784 170.431 15.6774 171.345 15.1957C172.259 14.714 172.82 13.8884 173.028 12.7189C173.235 11.548 172.993 10.5804 172.298 9.81304C171.604 9.04572 170.506 8.52848 169.003 8.25992L167.563 8.00415L166.278 15.2596Z" fill="white"></path>
    <path d="M208.295 24.9605C207.471 22.2493 205.842 20.3907 203.406 19.3846C202.335 18.9413 201.262 18.7281 200.188 18.7409C199.114 18.7551 198.111 18.9612 197.177 19.3619C196.243 19.7626 195.398 20.348 194.639 21.1196C193.88 21.8926 193.281 22.8148 192.84 23.8905C192.388 24.9889 192.161 26.0817 192.157 27.1644C192.153 28.2486 192.345 29.2703 192.735 30.2309C193.123 31.1915 193.689 32.054 194.43 32.8156C195.169 33.5787 196.063 34.1769 197.112 34.6089C199.4 35.5539 201.86 35.4274 204.49 34.2281L200.999 42.7269L200.163 42.6814C198.906 42.6189 197.765 42.4839 196.741 42.275C195.716 42.0662 194.74 41.7706 193.815 41.3884C191.915 40.604 190.243 39.4914 188.797 38.0519C187.352 36.6125 186.234 34.9656 185.443 33.1098C184.653 31.2554 184.225 29.2646 184.158 27.1374C184.092 25.0102 184.495 22.8845 185.368 20.7601C186.241 18.6358 187.437 16.851 188.956 15.4073C190.474 13.9636 192.161 12.8751 194.015 12.1405C195.868 11.4059 197.821 11.0421 199.869 11.0449C201.918 11.0492 203.905 11.4485 205.829 12.2428C206.925 12.6961 207.955 13.2574 208.92 13.9267C209.883 14.5959 210.849 15.4173 211.819 16.3878L208.298 24.9605H208.295Z" fill="white"></path>
    <path d="M221.604 35.1123L230.578 41.8022L237.437 32.5488L243.652 37.1826L225.879 61.1572L219.664 56.5234L226.996 46.6349L218.022 39.945L210.691 49.8335L204.476 45.1997L222.249 21.2251L228.464 25.8589L221.604 35.1123Z" fill="white"></path>
    <path d="M257.36 62.2681L251.356 55.2698L247.583 58.5252L253.251 65.1327L248.279 69.4212L242.611 62.8137L238.717 66.1729L244.721 73.1712L239.749 77.4597L228.695 64.5743L251.278 45.0928L262.331 57.9781L257.359 62.2666L257.36 62.2681Z" fill="white"></path>
    <path d="M259.016 82.7329L264.151 92.8701L258.832 95.5799L253.697 85.4427L259.016 82.7329Z" fill="white"></path>
    <path d="M24.1494 126.381C24.9911 125.692 25.657 124.967 26.1501 124.207C26.6432 123.446 26.9691 122.678 27.1293 121.902C27.3319 120.919 27.2653 120.069 26.928 119.352C26.5922 118.634 26.0495 118.198 25.3014 118.043C24.7856 117.936 24.3279 118.003 23.9283 118.245C23.5288 118.485 23.1547 118.833 22.8061 119.286C22.4561 119.74 22.1274 120.264 21.8157 120.861C21.5039 121.458 21.1823 122.044 20.8479 122.623C19.5103 124.935 18.0338 126.523 16.4156 127.389C14.7989 128.253 12.8803 128.456 10.6627 127.997C9.16643 127.687 7.86425 127.154 6.75618 126.398C5.6467 125.642 4.7611 124.69 4.09796 123.541C3.43341 122.391 3.00832 121.063 2.82128 119.553C2.63424 118.044 2.72493 116.398 3.09334 114.613C3.85566 110.914 5.65804 107.714 8.50046 105.013L13.9416 109.538C12.7018 110.468 11.7212 111.438 11.0014 112.449C10.2816 113.459 9.80974 114.508 9.58586 115.595C9.32939 116.837 9.4229 117.82 9.865 118.546C10.3071 119.271 10.8895 119.708 11.6121 119.859C12.05 119.95 12.4467 119.951 12.8009 119.863C13.1552 119.775 13.5052 119.578 13.8509 119.272C14.1966 118.965 14.5452 118.546 14.8966 118.012C15.2495 117.477 15.6519 116.827 16.1067 116.058C16.6182 115.139 17.1595 114.246 17.7277 113.379C18.2959 112.513 18.9661 111.775 19.737 111.166C20.5078 110.556 21.4104 110.123 22.4462 109.865C23.4806 109.608 24.7204 109.628 26.1657 109.928C27.6096 110.228 28.8693 110.738 29.9448 111.46C31.0202 112.181 31.8874 113.062 32.5463 114.103C33.2052 115.143 33.6388 116.338 33.8442 117.689C34.0497 119.039 33.993 120.491 33.6728 122.043C33.3738 123.491 32.8623 124.963 32.1382 126.458C31.4127 127.953 30.5144 129.344 29.4417 130.633L24.1451 126.38L24.1494 126.381Z" fill="white"></path>
    <path d="M30.5171 141.821L14.3212 142.134C13.4526 142.151 12.5642 142.201 11.6573 142.285C10.7505 142.367 9.93006 142.582 9.20032 142.927C8.46917 143.271 7.87972 143.804 7.43337 144.526C6.98561 145.247 6.77449 146.255 6.79999 147.549C6.82408 148.842 7.07346 149.836 7.54815 150.528C8.02141 151.218 8.6307 151.728 9.37603 152.058C10.1199 152.386 10.9474 152.575 11.8571 152.625C12.7668 152.673 13.6567 152.689 14.5253 152.673L30.7211 152.362L30.8685 160.087L13.6057 160.419C8.97078 160.509 5.56582 159.51 3.3922 157.425C1.21858 155.341 0.0892605 152.092 0.00424277 147.683C-0.0807749 143.272 0.923851 139.977 3.01529 137.797C5.10672 135.617 8.47059 134.482 13.1055 134.393L30.3683 134.06L30.5171 141.824V141.821Z" fill="white"></path>
    <path d="M8.85169 194.633L6.44427 185.272L15.6928 175.227L4.59797 178.098L2.66382 170.578L31.5089 163.116L34.5185 174.818C34.9323 176.429 35.0584 177.897 34.8969 179.221C34.7339 180.546 34.3442 181.703 33.7293 182.694C33.1129 183.686 32.3208 184.517 31.3516 185.191C30.3824 185.865 29.2857 186.359 28.0614 186.676C25.868 187.243 23.9523 187.172 22.3157 186.464C20.6777 185.755 19.35 184.428 18.3326 182.483L8.85027 194.633H8.85169ZM20.5515 173.971L20.9171 175.391C21.2983 176.874 21.8977 177.933 22.7138 178.568C23.53 179.202 24.5119 179.371 25.6597 179.074C26.8074 178.777 27.5853 178.153 27.9934 177.201C28.4015 176.249 28.4143 175.032 28.0331 173.549L27.6675 172.129L20.5515 173.97V173.971Z" fill="white"></path>
    <path d="M39.9144 205.784L35.8874 197.35L31.3971 199.507L35.0656 207.191L29.1512 210.031L25.4827 202.348L14.9348 207.414L11.5894 200.41L38.4564 187.506L45.8288 202.943L39.913 205.784H39.9144Z" fill="white"></path>
    <path d="M58.7856 231.867C58.7317 230.778 58.5461 229.811 58.2273 228.961C57.9085 228.111 57.4862 227.392 56.9577 226.803C56.2889 226.055 55.5676 225.605 54.7926 225.451C54.0175 225.298 53.3459 225.477 52.7777 225.988C52.3852 226.342 52.1669 226.751 52.1244 227.216C52.0805 227.682 52.1372 228.189 52.2945 228.741C52.4518 229.292 52.677 229.869 52.9704 230.474C53.2637 231.08 53.5442 231.688 53.8092 232.302C54.8719 234.753 55.2701 236.889 55.0051 238.707C54.7387 240.526 53.7639 242.194 52.0791 243.712C50.9427 244.737 49.7411 245.471 48.4772 245.917C47.2132 246.364 45.9224 246.514 44.606 246.368C43.2897 246.223 41.9705 245.777 40.6485 245.032C39.3264 244.288 38.0583 243.237 36.8439 241.882C34.3274 239.071 32.8283 235.718 32.3479 231.82L39.2102 230.113C39.2202 231.667 39.4171 233.033 39.8011 234.213C40.1851 235.394 40.7476 236.396 41.4859 237.221C42.3304 238.165 43.1749 238.673 44.0194 238.746C44.8639 238.82 45.5611 238.609 46.1094 238.115C46.4424 237.815 46.6791 237.495 46.8179 237.157C46.9568 236.819 47.0064 236.418 46.9653 235.959C46.9242 235.499 46.7952 234.969 46.5756 234.368C46.356 233.767 46.0726 233.055 45.7254 232.232C45.2918 231.273 44.8951 230.308 44.538 229.335C44.1795 228.361 43.9854 227.384 43.9542 226.399C43.9231 225.416 44.1101 224.429 44.5182 223.442C44.9249 222.454 45.6773 221.465 46.7754 220.478C47.8721 219.49 49.0298 218.775 50.247 218.336C51.4641 217.897 52.6856 217.72 53.9126 217.805C55.1383 217.89 56.3555 218.25 57.5613 218.885C58.7672 219.52 59.8993 220.428 60.9549 221.607C61.9397 222.707 62.8182 223.995 63.5877 225.467C64.3571 226.939 64.9408 228.491 65.339 230.12L58.7827 231.871L58.7856 231.867Z" fill="white"></path>
    <path d="M68.2536 245.294L77.3959 251.748L84.0145 242.319L90.3469 246.79L73.1974 271.218L66.865 266.747L73.9385 256.671L64.7963 250.217L57.7228 260.293L51.3904 255.823L68.5399 231.395L74.8723 235.865L68.2536 245.294Z" fill="white"></path>
    <path d="M86.4034 261.903C87.1459 259.813 88.2214 258.004 89.6312 256.474C91.0411 254.945 92.6664 253.751 94.5084 252.896C96.3505 252.039 98.3555 251.571 100.522 251.489C102.69 251.408 104.915 251.775 107.197 252.59C109.455 253.396 111.404 254.52 113.047 255.961C114.687 257.402 115.958 259.04 116.858 260.876C117.758 262.712 118.272 264.669 118.401 266.747C118.529 268.826 118.223 270.911 117.48 273.001C116.738 275.091 115.662 276.902 114.252 278.431C112.842 279.96 111.21 281.15 109.357 282.003C107.502 282.856 105.486 283.319 103.305 283.396C101.124 283.472 98.9053 283.107 96.648 282.301C94.3653 281.486 92.4099 280.36 90.7804 278.924C89.1509 277.487 87.8926 275.853 87.0056 274.021C86.1172 272.19 85.6099 270.236 85.481 268.157C85.352 266.078 85.6595 263.994 86.402 261.903H86.4034ZM94.0337 264.627C93.6356 265.747 93.4797 266.855 93.5662 267.951C93.6526 269.048 93.9303 270.072 94.4036 271.026C94.8754 271.979 95.5201 272.821 96.3391 273.547C97.1567 274.274 98.1004 274.827 99.1674 275.208C100.234 275.589 101.314 275.758 102.407 275.712C103.499 275.668 104.535 275.428 105.514 274.992C106.493 274.557 107.362 273.942 108.12 273.146C108.876 272.352 109.455 271.394 109.853 270.274C110.251 269.155 110.405 268.046 110.32 266.951C110.234 265.855 109.949 264.828 109.464 263.869C108.98 262.911 108.328 262.068 107.51 261.341C106.691 260.615 105.749 260.06 104.682 259.68C103.615 259.299 102.536 259.131 101.443 259.175C100.351 259.221 99.3204 259.462 98.3541 259.901C97.3863 260.342 96.5248 260.958 95.7667 261.753C95.0086 262.548 94.4319 263.505 94.0337 264.624V264.627Z" fill="white"></path>
    <path d="M129.155 289L121.445 288.268L124.255 258.527L136.527 259.694C139.857 260.011 142.325 261.121 143.931 263.023C145.536 264.927 146.191 267.457 145.893 270.613C145.596 273.769 144.479 276.13 142.545 277.698C140.611 279.265 137.978 279.89 134.648 279.575L130.085 279.141L129.155 289.003V289ZM130.675 272.908L133.231 273.151C136.064 273.419 137.595 272.318 137.829 269.847C138.063 267.376 136.764 266.004 133.931 265.736L131.375 265.493L130.675 272.909V272.908Z" fill="white"></path>
    <path d="M183.362 273.156C184.538 271.314 185.45 269.621 186.101 268.073L191.369 271.138C191.079 271.836 190.733 272.553 190.332 273.292C189.929 274.031 189.452 274.823 188.901 275.665L188.457 276.346L196.593 281.641L187.233 283.951L184.049 281.922C181.163 285.082 178.135 287.054 174.964 287.837C173.608 288.173 172.317 288.272 171.091 288.14C169.864 288.008 168.752 287.671 167.75 287.128C166.748 286.587 165.894 285.867 165.185 284.967C164.477 284.068 163.974 283.016 163.677 281.81C163.412 280.733 163.326 279.741 163.415 278.834C163.505 277.929 163.813 277.003 164.341 276.056C164.733 275.334 165.204 274.681 165.752 274.097C166.3 273.513 166.993 272.886 167.833 272.215L168.545 271.631L167.904 271.178C165.962 269.672 164.781 268.073 164.366 266.379C164.088 265.251 164.061 264.143 164.282 263.054C164.504 261.966 164.93 260.97 165.563 260.066C166.195 259.162 167.013 258.375 168.015 257.706C169.017 257.036 170.157 256.545 171.437 256.228C172.742 255.905 173.992 255.807 175.189 255.934C176.386 256.06 177.476 256.383 178.458 256.901C179.44 257.422 180.273 258.106 180.956 258.958C181.639 259.809 182.119 260.799 182.397 261.927C182.585 262.696 182.668 263.418 182.643 264.09C182.618 264.764 182.464 265.427 182.176 266.082C181.89 266.739 181.467 267.4 180.913 268.067C180.358 268.735 179.645 269.449 178.774 270.207L183.363 273.155L183.362 273.156ZM173.056 274.598C171.517 276.176 170.887 277.528 171.163 278.657C171.264 279.067 171.447 279.424 171.71 279.725C171.974 280.028 172.29 280.262 172.657 280.43C173.024 280.598 173.422 280.704 173.854 280.747C174.285 280.791 174.731 280.755 175.192 280.642C176.47 280.326 177.683 279.577 178.832 278.397L173.058 274.6L173.056 274.598ZM174.615 267.522C176.141 266.003 176.74 264.576 176.413 263.242C176.237 262.524 175.848 261.96 175.246 261.551C174.643 261.143 173.972 261.029 173.229 261.213C172.539 261.383 172.021 261.756 171.673 262.331C171.326 262.907 171.238 263.54 171.408 264.232C171.635 265.156 172.703 266.251 174.616 267.52L174.615 267.522Z" fill="white"></path>
    <path d="M217.791 244.228C216.712 244.113 215.728 244.147 214.843 244.332C213.957 244.517 213.182 244.824 212.52 245.255C211.681 245.803 211.126 246.448 210.854 247.192C210.582 247.937 210.654 248.63 211.071 249.271C211.358 249.715 211.727 249.993 212.179 250.108C212.631 250.223 213.139 250.246 213.706 250.175C214.273 250.105 214.877 249.972 215.518 249.773C216.16 249.575 216.804 249.392 217.448 249.224C220.029 248.551 222.192 248.487 223.944 249.031C225.694 249.575 227.187 250.8 228.421 252.704C229.255 253.989 229.793 255.292 230.037 256.613C230.28 257.935 230.229 259.236 229.882 260.518C229.535 261.8 228.892 263.038 227.955 264.233C227.017 265.428 225.786 266.52 224.263 267.514C221.104 269.573 217.569 270.539 213.654 270.412L213.033 263.35C214.565 263.58 215.942 263.597 217.164 263.398C218.385 263.201 219.46 262.799 220.389 262.193C221.448 261.503 222.08 260.744 222.283 259.919C222.486 259.094 222.387 258.371 221.984 257.75C221.74 257.374 221.463 257.091 221.149 256.9C220.838 256.71 220.451 256.599 219.992 256.568C219.531 256.537 218.989 256.583 218.362 256.709C217.736 256.834 216.991 257.004 216.126 257.222C215.115 257.503 214.102 257.746 213.088 257.95C212.074 258.155 211.081 258.196 210.106 258.075C209.132 257.955 208.19 257.617 207.279 257.06C206.368 256.504 205.512 255.606 204.707 254.365C203.904 253.125 203.378 251.869 203.134 250.594C202.889 249.321 202.903 248.083 203.177 246.88C203.45 245.678 203.993 244.528 204.806 243.431C205.618 242.334 206.688 241.354 208.013 240.49C209.25 239.684 210.653 239.013 212.223 238.477C213.793 237.943 215.411 237.605 217.079 237.463L217.79 244.23L217.791 244.228Z" fill="white"></path>
    <path d="M241.112 226.102C238.302 225.798 235.957 226.571 234.079 228.421C233.252 229.235 232.635 230.14 232.226 231.136C231.816 232.133 231.612 233.139 231.612 234.157C231.612 235.176 231.818 236.187 232.229 237.188C232.638 238.192 233.25 239.107 234.062 239.937C234.892 240.785 235.804 241.423 236.797 241.852C237.79 242.281 238.803 242.506 239.836 242.523C240.869 242.541 241.882 242.359 242.873 241.976C243.863 241.592 244.762 241.002 245.571 240.207C247.336 238.467 248.186 236.148 248.118 233.252L254.543 239.809L254.173 240.562C253.623 241.696 253.051 242.695 252.457 243.559C251.863 244.423 251.209 245.205 250.495 245.909C249.029 247.353 247.352 248.458 245.464 249.227C243.577 249.996 241.627 250.379 239.615 250.379C237.603 250.381 235.609 249.994 233.633 249.22C231.656 248.445 229.865 247.239 228.258 245.601C226.653 243.961 225.485 242.159 224.757 240.191C224.029 238.224 223.693 236.241 223.748 234.243C223.803 232.245 224.234 230.301 225.043 228.412C225.852 226.524 226.997 224.849 228.482 223.385C229.328 222.552 230.246 221.822 231.24 221.195C232.233 220.569 233.364 220 234.635 219.489L241.114 226.102H241.112Z" fill="white"></path>
    <path d="M250.041 216.258L255.935 206.729L246.163 200.653L250.244 194.054L275.561 209.798L271.48 216.397L261.037 209.903L255.144 219.432L265.585 225.926L261.505 232.525L236.188 216.781L240.269 210.182L250.04 216.258H250.041Z" fill="white"></path>
    <path d="M265.517 197.113C263.393 196.493 261.529 195.523 259.922 194.201C258.316 192.881 257.033 191.324 256.072 189.529C255.111 187.736 254.526 185.756 254.318 183.591C254.109 181.425 254.343 179.177 255.021 176.843C255.689 174.535 256.694 172.517 258.032 170.789C259.369 169.061 260.925 167.693 262.699 166.684C264.473 165.675 266.392 165.044 268.453 164.793C270.515 164.541 272.608 164.726 274.732 165.346C276.856 165.965 278.722 166.936 280.327 168.257C281.933 169.579 283.215 171.142 284.172 172.948C285.13 174.754 285.711 176.746 285.915 178.924C286.119 181.103 285.888 183.345 285.217 185.653C284.54 187.986 283.534 190.011 282.201 191.726C280.867 193.441 279.314 194.798 277.543 195.793C275.773 196.789 273.858 197.414 271.795 197.664C269.733 197.916 267.64 197.731 265.516 197.111L265.517 197.113ZM267.78 189.315C268.918 189.647 270.03 189.738 271.117 189.586C272.204 189.435 273.207 189.096 274.128 188.567C275.049 188.039 275.848 187.342 276.523 186.481C277.199 185.62 277.693 184.642 278.011 183.553C278.327 182.463 278.432 181.371 278.322 180.28C278.213 179.19 277.914 178.167 277.423 177.212C276.932 176.257 276.268 175.425 275.432 174.713C274.596 174.001 273.608 173.479 272.47 173.147C271.333 172.814 270.22 172.725 269.133 172.875C268.048 173.026 267.042 173.373 266.117 173.914C265.191 174.455 264.392 175.157 263.716 176.02C263.042 176.882 262.545 177.859 262.229 178.949C261.913 180.04 261.809 181.13 261.917 182.221C262.026 183.312 262.328 184.328 262.822 185.27C263.317 186.213 263.983 187.04 264.819 187.752C265.655 188.463 266.642 188.985 267.78 189.317V189.315Z" fill="white"></path>
    <path d="M275.542 161.145C273.331 161.181 271.263 160.805 269.34 160.018C267.418 159.231 265.734 158.123 264.288 156.693C262.842 155.264 261.702 153.546 260.866 151.538C260.03 149.53 259.592 147.312 259.553 144.882C259.515 142.479 259.881 140.254 260.65 138.206C261.421 136.16 262.505 134.392 263.904 132.903C265.302 131.414 266.95 130.245 268.846 129.395C270.742 128.545 272.796 128.102 275.008 128.066C277.22 128.031 279.288 128.407 281.21 129.193C283.133 129.98 284.817 131.096 286.263 132.538C287.709 133.98 288.851 135.713 289.687 137.733C290.523 139.754 290.96 141.966 290.999 144.369C291.038 146.799 290.673 149.03 289.902 151.065C289.131 153.098 288.047 154.853 286.649 156.328C285.25 157.804 283.604 158.967 281.706 159.816C279.81 160.666 277.756 161.11 275.544 161.145H275.542ZM275.411 153.024C276.595 153.004 277.685 152.763 278.678 152.298C279.672 151.833 280.532 151.211 281.256 150.434C281.981 149.656 282.539 148.756 282.931 147.731C283.323 146.708 283.509 145.628 283.49 144.493C283.472 143.357 283.251 142.285 282.826 141.274C282.401 140.264 281.814 139.376 281.064 138.608C280.315 137.841 279.436 137.241 278.427 136.808C277.42 136.376 276.323 136.169 275.137 136.189C273.953 136.208 272.863 136.45 271.87 136.915C270.876 137.381 270.018 138.009 269.292 138.799C268.568 139.59 268.01 140.498 267.617 141.521C267.226 142.545 267.039 143.624 267.058 144.76C267.076 145.895 267.297 146.968 267.722 147.978C268.147 148.989 268.734 149.871 269.484 150.624C270.233 151.379 271.113 151.971 272.121 152.405C273.129 152.838 274.225 153.044 275.411 153.024Z" fill="white"></path>
    <path d="M257.441 118.768L280.094 113.601L278.035 104.522L284.43 103.063L288.206 119.714L259.158 126.34L257.441 118.768Z" fill="white"></path>
  </g>
  <defs>
    <clipPath id="clip0_100_2080">
      <rect width="291" height="289" fill="white"></rect>
    </clipPath>
  </defs>
</svg>
