<?xml version="1.0" encoding="UTF-8"?><svg id="Calque_1" xmlns="http://www.w3.org/2000/svg" viewBox="0 0 725.78 884.05"><defs><style>.cls-1{fill:#f1e0cb;}.cls-2{fill:#686159;}.cls-3{fill:#8d110a;}.cls-4{fill:#595147;}.cls-5{fill:#e3321f;}.cls-6{fill:#d4d2ce;}.cls-7{fill:#bdbcb9;}.cls-8{fill:#f4f6ee;}.cls-9{fill:#93140d;}.cls-10{fill:#91806b;}.cls-11{fill:#daccb7;}.cls-12{fill:#d7b196;}.cls-13{fill:#bd2c1b;}.cls-14{fill:#a18b73;}.cls-15{fill:#f6f4ec;}.cls-16{fill:#92130c;}.cls-17{fill:#90140d;}.cls-18{fill:#ccb89e;}.cls-19{fill:#d6b094;}.cls-20{fill:#f5f4eb;}.cls-21{fill:#91100a;}.cls-22{fill:#d4b297;}.cls-23{fill:#cebea8;}.cls-24{fill:#91110b;}.cls-25{fill:#e7301a;}.cls-26{fill:#e83a23;}.cls-27{fill:#f2e1cc;}.cls-28{fill:#d3aa8e;}.cls-29{fill:#f5f5ee;}.cls-30{fill:#e23521;}.cls-31{fill:#91110a;}.cls-32{fill:#d1b196;}.cls-33{fill:#efdedc;}.cls-34{fill:#e53520;}.cls-35{fill:#83827f;}.cls-36{fill:#8e7e6a;}.cls-37{fill:#94130b;}.cls-38{fill:#dad7d3;}.cls-39{fill:#90100a;}.cls-40{fill:#c6b198;}.cls-41{fill:#f6f6ef;}.cls-42{fill:#df2e1b;}.cls-43{fill:#eadfdd;}.cls-44{fill:#b84431;}.cls-45{fill:#c1b099;}.cls-46{fill:#d3af94;}.cls-47{fill:#cfa489;}.cls-48{fill:#241c14;}.cls-49{fill:#e33821;}.cls-50{fill:#bc3e2a;}.cls-51{fill:#dbc1bc;}.cls-52{fill:#a09f9d;}.cls-53{fill:#ee6c55;}.cls-54{fill:#ccb89f;}.cls-55{fill:#d7d5d1;}.cls-56{fill:#e32b15;}.cls-57{fill:#d1ac91;}.cls-58{fill:#e8351d;}.cls-59{fill:#d3ae93;}.cls-60{fill:#a83928;}.cls-61{fill:#e02914;}.cls-62{fill:#c54733;}.cls-63{fill:#3c3328;}.cls-64{fill:#c5b49d;}.cls-65{fill:#a09f9e;}.cls-66{fill:#7f7d7a;}.cls-67{fill:#e12a16;}.cls-68{fill:#eedec8;}.cls-69{fill:#e42b14;}.cls-70{fill:#3d3428;}.cls-71{fill:#d6af94;}.cls-72{fill:#e42c16;}.cls-73{fill:#dbd1ce;}.cls-74{fill:#eeddc6;}.cls-75{fill:#f4f3ea;}.cls-76{fill:#c4b39c;}.cls-77{fill:#685f55;}.cls-78{fill:#e52d1a;}.cls-79{fill:#faf2e4;}.cls-80{fill:#8e110a;}.cls-81{fill:#9e8e78;}.cls-82{fill:#d5c5af;}.cls-83{fill:#90140c;}.cls-84{fill:#d1c3ae;}.cls-85{fill:#3e352a;}.cls-86{fill:#e96750;}.cls-87{fill:#878684;}.cls-88{fill:#d3c2ac;}.cls-89{fill:#e72b16;}.cls-90{fill:#da2f1b;}.cls-91{fill:#9b150d;}.cls-92{fill:#83817e;}.cls-93{fill:#d3c3ac;}.cls-94{fill:#efdfc9;}.cls-95{fill:#e02713;}.cls-96{fill:#e5331d;}.cls-97{fill:#e56249;}.cls-98{fill:#544c41;}.cls-99{fill:#dc2813;}.cls-100{fill:#f4efe2;}.cls-101{fill:#eeddc7;}.cls-102{fill:#c4ada8;}.cls-103{fill:#90120b;}.cls-104{fill:#584f45;}.cls-105{fill:#251c15;}.cls-106{fill:#e22813;}.cls-107{fill:#120c08;}.cls-108{fill:#790905;}.cls-109{fill:#100c08;}.cls-110{fill:#e32f19;}.cls-111{fill:#c9b39a;}.cls-112{fill:#e42c15;}.cls-113{fill:#f1e0ca;}.cls-114{fill:#8a8988;}.cls-115{fill:#3f362b;}.cls-116{fill:#d2b297;}.cls-117{fill:#97160e;}.cls-118{fill:#efe0cb;}.cls-119{fill:#f6f6f0;}.cls-120{fill:#fefefe;}.cls-121{fill:#e12913;}.cls-122{fill:#858482;}.cls-123{fill:#802214;}.cls-124{fill:#f0dfc9;}.cls-125{fill:#aa9984;}.cls-126{fill:#a79177;}.cls-127{fill:#891c11;}.cls-128{fill:#a28c74;}.cls-129{fill:#ede6e4;}.cls-130{fill:#dc321f;}.cls-131{fill:#dd301c;}.cls-132{fill:#eddcc5;}.cls-133{fill:#b0a08a;}.cls-134{fill:#8f120b;}.cls-135{fill:#d2a58a;}.cls-136{fill:#f5f6ee;}.cls-137{fill:#d4ad92;}.cls-138{fill:#d0cfcb;}.cls-139{fill:#211811;}.cls-140{fill:#847561;}.cls-141{fill:#e63924;}.cls-142{fill:#696157;}.cls-143{fill:#cebeba;}.cls-144{fill:#d3b297;}.cls-145{fill:#100b07;}.cls-146{fill:#8e100a;}.cls-147{fill:#d3b196;}.cls-148{fill:#92100a;}.cls-149{fill:#d0b098;}.cls-150{fill:#d3b095;}.cls-151{fill:#ebdac3;}.cls-152{fill:#d5ae94;}.cls-153{fill:#a6a5a3;}.cls-154{fill:#fa816a;}.cls-155{fill:#e0d2bd;}.cls-156{fill:#ae9c86;}.cls-157{fill:#bfae97;}.cls-158{fill:#efdec8;}.cls-159{fill:#8d0f09;}.cls-160{fill:#df2714;}.cls-161{fill:#5a5147;}.cls-162{fill:#d5ac91;}.cls-163{fill:#d9cbb5;}.cls-164{fill:#a53625;}</style></defs><path class="cls-97" d="M541.26,855.42c-.68,1.06-1.61,1.76-2.74,2.26-5.53,2.42-27.31-1.63-33.97-3.3-137.54-36.44-274.55-72.17-411.04-107.2-19.08-4.32-37.63-11.81-53.25-19.76C8.88,704.76-1.86,677.18.26,638.42c2.42.18,3.47,2.17,3.15,5.98l-.17,6.07c2.5-16.97,6.12-33.59,10.87-49.87,3.06-8.72,12.15-9.56,16.11-1.11,6.17-.14,10.93,6.66,8.41,12.22l.52,2.03c3.76,2.96,6.75,6.16,8.98,9.62,6.27-3.24,7.37.92,6.58,6.48,7.86-1.77,11.44-2.51,10.13,7.18.54,4.01,1.24,5.77,3.18,9.41-1.16,9.3-2.01,18.56-2.57,27.77l1.8,3.23c3.05,4.91,6.07,9.36,11,13,18.49,4.86,37.21,9.37,56.17,13.52,11.11.47,14.2-6.01,16.47-15.69,2.95-12.56,8.89-45.94,5.94-57.67-.02-.1-.27-.14-.59-.16-1.22,1.95-1.89,1.28-2-2-2.33-.14-4.66-2.08-6.99-5.84-3.78-1.21-6.12-2.93-7.01-5.16-13.51-4.22-27.38-8.03-41.61-11.41l-1.39-1.59c-6.41-1.15-12.05-3.15-16.93-6.01-4.08-4.7-7.39-23.98,2.93-15.99,1.92.42,4.66,4.07,6,6,19.47,4.46,38.98,9.25,58.53,14.36,10.93.77,14.22-4.84,16.17-14.41,4.15-20.42,7.8-42.5,7.31-62.95-1.47-.15-2.99-1.72-2-3-.55-3,3.8-3.59,6.11-2.98,7.28,1.94,9.59,10.13,8.6,16.94-3.59,18.59-6.17,37.23-7.73,55.93l2.02.11c.55-.19.89.48,1,2,1.08,2.72,1.74,6.06,2,10,2.8-.32,5.39,3.53,4,6,15.45,6.56,33.2,11.43,49.82,14.76s22.8,3.52,26.57-14.07c4.07-19.02,6.44-39.56,6.61-58.69-1.66-.71-3.84-4.39-3-6-.67-1.61-1.45-3.21-2.88-4.23-2.3-1.63-5.31-2.88-7.99-3.86-13.35-4.88-29.65-8.59-43.53-10.75-3.6-1-14.36-4.78-16.75-7.05-3.13-2.97-8.73-13.04-1.97-14.6-5.38-8.98-3.23-24.46-.06-34.3l2.18-1.22c.56-.75.89-.42,1,1l1.77,1.85c-4.16,12.25-3.62,23.1,1.63,32.55l-.4,2.6c17.47,6.57,38.43,13.76,57.07,15.77,6.13.66,12.16.22,15.44-5.69,4.29-7.71,8.24-42.34,9.29-52.63.32-3.1.63-6.22.71-9.33s.08-7.15-1.5-9.12c-.33.89-.66.89-1,0-2.91-1.35-6.6-5.51-7-9h1c4.24-1.4-4.98-5.06-7.37-5.72-16.34-3.77-32.55-7.93-48.64-12.48-4.24-1.84-11.76-8.33-10.64-13.22.62-2.71,2.09-4.32,4.65-2.57.47-.46,1.14-.12,2,1,.27-.86.6-.85,1,0,19.1,6.36,39.56,11.3,59.45,15.43,7.44.62,12.04-1.94,14.16-9.21,5.82-19.95,7.82-47.43,7.39-68.23-2.39-2.34.28-4.4,3.22-4.6,6.01-.42,12.01,14.04,9.47,19.41-5.11,23.02-7.03,46.79-7.76,70.58,3.46-2.55,6.15-3.01,8.07-1.39,1.75-1.97,2.28-1.62,2,1,16.4,7.18,34.81,11.38,52.45,15.22,13.38,2.91,20.05,3.91,23.71-11.17,3.09-12.72,5.38-31.06,6.38-44.28,1.53-8.73,1.23-16.54-1.55-24.77-.91-.24-.88-.58,0-1-4.07-5.5,2.2-6.78,6.13-3.04,3.7,5.3,8.27,12.15,8.96,18.29.27-3.68,3.89-9.54,4.91-4.26l1.27,2.37c-3.77,20.46-7.13,41.34-8.31,62.18-.41,5.85,1.87,10.54,6.42,14.1l-.39,2.35c.89.29.87.62,0,1,19.12,6.25,38.61,11.44,58.47,15.57,9.59,1.47,14.26-2.58,16.36-11.55,4.83-20.55,7.78-46.24,7.17-67.02-1.67-1.33-3.25-4.9-4-7-3.56-4.83-9.69-6.9-15.29-8.51-2.53-3.23,4.77-5.95,7.55-6.35,4.08-.58,17.35.56,19.89,3.09l5.66,11.05c1.73-7.16,16.27-5.94,9.63,1.13,1.4,3.26-.25,5.73-4.95,7.38-.83,2.67-1.92,4.71-3.26,6.1-2.93,19.2-5.45,37.69-7.55,55.47l1.32-.37c.54-.72.87-.38,1,1l1.85,1.59c-1.99,7.77-.82,14.41,3.51,19.93l-.36,2.48c19.16,7.27,39.65,12.05,59.85,15.94,2.13.05,4.18.07,6.15.06,8.78-3.34,10.28-8.91,11.94-17.7,2.73-17.89,4.95-35.79,6.68-53.68.01-3.51-1.21-6.56-2.62-9.62-2.71,1.03-3.93-.89-2-3v-1c-.14-2.13-.74-3.04-2.61-4.14-2.89-1.69-7.37-3.03-10.7-3.88-16.42-4.19-33.2-8.34-49.67-10.78-5.89-5.66,11.55-7.16,15.22-5.06l2.41-.07c1.53-5.66,6.2-7.43,7.82-.87l-.28-2.72c1.63-1.69.31-3.44-3.94-5.26-.12-7.18-.5-8.51-7.06-11.25-9.21-1.55-16.91-5.18-23.1-10.91l-25.27-3.82c-1.81-1.2-3.57-2.71-5.27-4.5-4.92.87-8.93.25-12.03-1.85-3.97,1.71-4.98.4-6.99-2.69-15.74-6.96-32.39-11.25-49.48-11.29-5.8.3-9.14-1.66-10-5.87-111.27-31.93-166.91-47.89-166.91-47.89-21.31-5.64-41.48-8.91-62.83-11.68-29.19-8.23-58.77-15.96-88.22-23.31-10.15-2.68-25.37-7.09-31.1-16.14-3.75,2.25-3.89-4.97-2-7l1.69-.54c28.79,10.66,58.53,18.51,89.24,23.57,171.64,42.4,340.52,84.82,506.65,127.27,6.44,2.74,6.51,9.36,6.41,15.39-14.81,121.76-29.69,244.2-44.65,367.3l-2.2,8.28c-1.62,45.3-23.13,86.54-70.14,94.73Z"/><path class="cls-118" d="M268.26,72.42c6.6,1.64,13.82,3.16,20,6-3.71,10.21-6.94,20.54-9.68,30.99.35,5.89-4.05,7.34-13.2,4.33-2.56-1.66-47.53-10.05-46.31-7.27s51.96,15.89,56.44,15.13l1.47,1.28c-1.53,15.29-1.28,33.24,6.28,46.54,1.94-.66,2.32.36,1,2-.77,11.6,1.35,22.87,11.22,30.3,9.56,7.2,22.75,10.12,31.78.7.42-2.49,4.35-5.26,7-5,3.18-6.58,4.13-13.87,2.23-20.96l.77-1.04c1.36-2.05,2.82-.99.73-.71,2.45-8.69,6.71-24.99,2.94-33.28-4.77-4-5.63-9.12,1.01-11.62,14.22-3.77,26.25-10.47,38.64-18.59l9.75-4.17-31.65-8.65c-2.11-2.65-1.71-4.21,1.58-3.98,1.73-1.58,3.2-1.2,4,1,1.39-2.59,6.31-.93,6,2,10.69,1.7,21.36,4.03,32,7,.28-.87.62-.86,1,0-.05,1.11-.7,1.98-1,2.99,7.87-2.2,16.08,3.1,24,4.01,1.42,1.43,1,2.27-1,2-12.44,29.27-13.65,57.88-4.31,88.3l-.69,4.7c-1.61,24.23,25.67,45.04,46,27,2.51-3.13,4.58-6.69,6.2-10.68l.8-13.32c-.45-3.98,2.63-1.96,3.63,1.22,3.9-8.62,9.17-27.35,2.73-35.19-4.96-4-11.62-9.54-1.71-12.36,12.89-.8,21.06-2.79,32.18-9.56l20.18-13.94,5.98-1.16c.98.12,2.98-1.11,5.23-.82,4.69.61,12.89,4.35,17.77,5.82-12.75,28.19-14.89,59.44-5.17,88.81l-.83,3.19c-6.65,24.96,27.47,52.45,47,28l5.45-10.74c.53-4.2.72-8.28.55-12.26-1.3-4.82,3.62-4.03,1,0,2.71,1.78,3.77,5.15,3.19,10.12,6.68,2.28,10.4-1.4,11.16-11.04,9.24-15.3,7.12-23.16-7.34-33.76-10.01-13.02,13.54-9.56,20.69-6.84,30.78,11.75,31.47,56.6,27.26,84.19-3.05,22.27-5.75,44.56-8.1,66.86-.42,5.57-4.37,8.39-11.85,8.46l-.78.96c-191.95-48.17-388.02-96.49-588.22-144.96.49,1.68.56,1.92-1,1-7.38-4.8-7.41-14.04-6.99-21.99l1.98,9.99c.9-6.55-1.17-13.12-.99-19.47.5-18.11,5.25-46.31,8.14-64.89.25-1.64,1.64-10.13,1.94-10.57.07-.11,1.56.71,1.92.43,2.2-1.68.09-3.83.29-5.87s2.78-4.29,2.73-6.61l1.48,1.99c19.2-27.58,49.94-10.66,76.51-7.99-1.92,11.06-1.38,22.59.95,33.56l1.05-.56c2.45,3.56,4.34,9.44,5,14,.8.57.92,1.96.87,2.97-.61,12.15.09,18.1,9.7,27.31s24.55,12.05,34.43,1.72l.33-2.32c7.46-4.34,8.33-14.38,6.98-22.11l1.69-1.58c.73-3.46,3.36-1.27,3.58,1.48,2.61-7.28,4.01-15.56,4.39-23.33s-.61-10.24-5.53-16.85c-1.25-2.71-.35-5.07,2.6-5.84,20.69-2.73,39.57-12.96,57.11-23.85l-10.51-2.39-.64-2.21c-3.93,1.45-8.84.86-11-3-1.32-1.3-.77-1.53,1-1,9.2.94,18.2,2.94,27,6Z"/><path class="cls-53" d="M54.26,219.42c-1.51,3.85,1.51,5.77,2,7,3.38,5.86,7.59,11.03,12.61,15.49l1.69,5.95c6.98,6.1,10.68,13.15,14.8,21.26,3.84,2.09,5.62,5.51,5.32,10.27,5.25.08,10.33,1.02,15.23,2.82,4.56-3.09,8.42-3.09,11.56,0,4.86-1.22,8.11-.26,9.76,2.88.99-8.65,6.74-3.19,8.72,2.3,4.85-.13,6.82,1.48,5.9,4.84,2.99-.15,17.05,4.52,10.65,7.09l-23.11-4.61c-9.36-1.45-13.83,5.41-14.62,13.98-.15,5.32-.99,9.89-2.53,13.73-2.8,16.29-4,32.5-3.59,48.62l3.59,7.38c.83,4.76-4.04,2.12-5.84-.5-4.72,10.46-1.39,12.45,8.02,16.13,7.75,1.56,2.97,4.97-2.63,4.8l-2.55,1.57c2,2.15-2.01,4.94-4,3-2.6,3.86-3.41,8.56-4.14,13.15l-4.86,37.85c-1.62,8.71-1.8,16.78,1,25-3.43,2.02-7.84-4.53-8.09-8.23.47-11.19-1.28-12.73-1.38-.14-.33,4.16-2.16,7.16-6.61,7.27,1.08,5.29-.16,9.37-3.74,12.24,1.76,2.31,2.06,5.02.9,8.14l2.46,9.74,8.56-6.61c5.04-3.63,11.7-2.69,4.89,2.59,1.15,1.61.62,3.52-1.58,5.73-3.09,12.48-5.17,25.19-6.26,38.12l-2.16,1.16c-2.61,10.49-4.31,22.34-1,33l-4.53-.06c-1.84,3.18,1.56,12.63,3.61,15.47,1.57,2.17,12.32,4.01,14.92,6.58l-1.06.97c-6.64-2.49-11.62-2.15-14.94,1.03,1.54,2.55-.43,4.63-3,3-1.01.33-1.27,1.36-1.79,3.52-1.4,5.87-2.46,11.99-3.38,18.03-2.35,15.39-4.34,31.52-5.83,46.45-2.54.06-3.83-2.53-4-4.6-.7-8.94,5.15-18.25,2.74-26.66-.39-1.38-1.85-2.35-2.26-3.73-1.31-4.36-.98-7.59-.49-12.02-7,.47-12.5,5.08-10-6-5.35-1.2-4.94,2.76-5,7-6.09,1.25-1.48-5.34-2.16-8.31-.89-3.92-13.94-5.97-7.84-16.69-2.26-.66-3.26,2.69-4.62,2.93-2.15.37-3.04-3.28-4.42-4.39-.73-.59-7.98-2.72-5.95-4.54,1.21-1.09,7.75,4.08,9.74,4.75,3.95,1.33,2.27-2.62-.49-3.55-1.25-.42-3.47.17-4.1-.38-.57-.49-.31-3.98-4.23-5.31-6.82-2.31-8.78,6.76-10.21,11.7-4.87,16.76-6.42,34.87-10.73,51.78-1.43,1.45-1.81-.09-1.99-1.48-.78-6.13,1.42-13.69-1-19.52,17.24-138.33,33.5-276.85,52-415l.44-5.97c2.06-.1,2.99.46,1.56,1.97Z"/><path class="cls-129" d="M675.26,661.42l.96.48,1.63-6.54c5.04,2.91,18.81.47,22.74,2.98,1.2.77,1.96,4.39,3.23,6.02,2.34,3.02,8.21,7.73,9.5,10.49,5.5,11.79,10.27,31.89,11.81,45.19,2.55,22.08-2.68,39.44-11.75,59-8.52,18.39-27.48,47.43-42.61,61.39-19.45,17.97-50.25,35-76.25,40.75-39.05,8.64-78.1-4.14-115.28-14.27-116.31-31.69-232.81-62.79-348.99-95.01-22.96-6.37-66.21-13.17-83.51-28.49-3.02-2.67-12.15-12.36-4.5-14,.57-.43,1.09-.73,1.43-.59,4.11,1.67,11.79,5.32,13.57,8.59.23,2.03-.73,2.19-2.4,2-1.61,2.69,24.01,16.32,28.41,15.67,139.3,36.72,278.96,74.82,418.99,114.33,25.34,5.21,48.87,9.87,74.8,4.82,53.22-10.35,103.03-55.43,119.27-106.88,5.56-17.62,8.77-39.64-2.45-55.21.27-5.89-2.24-9.02-7.51-9.37-3.26-11.93-14.49,4.32-13.86,10.73l-1.14,13.94-2.11.97c2.9,2.76,1.03,20.15-1.09,21.55-.58.39-1.57-.65-1.91-1.55-.38-.83-.73-1.66-.94-2.53s-.38-1.66-.3-2.46c2.18-22.76,4.42-45.65,6.77-68.4.08-.79.48-1.56.9-2.35s.98-1.54,1.57-2.26c.87-1.27.87-3.27,0-6-2.52-1.7-2-3.1,1-3Z"/><path class="cls-164" d="M707.26,331.42c-.41,9.47-1.07,19.06-2,28.5-9.9,100.47-19.54,201.11-30,301.5-.03.25-.84,1.44-1,3,.85,2.25.85,4.25,0,6-2.57,24.51-4.07,54.1-8,78l1.58,2.48c-1.8,10.84-7.3,20.34-13.58,28.52l.04,3.46c-4.91,6.54-9.66,12.49-17.04,15.54,1.55,2.9-3.86,6.26-6,4-1.72-2.18-.29-4.74,4.29-7.67,4.07-8.94,5.52-19.54,6.87-29.44,10.9-117.44,24.97-240.93,38.8-358.15,1.64-13.94,3.55-27.85,6.56-41.51,1.84-8.35,3.95-15.24,9.16-21.44,1.16-5.26,3.94-9.19,8.33-11.79-.9-2.87.72-3.75,2-1Z"/><path class="cls-133" d="M717.26,212.42c2.09-1.03,2.69,6.42,2.5,6.09-.73-1.29-.27-3.07,1.5-2.09,6.28,21.66-.01,68.7-3.01,92.49-.53,4.21-1.05,11.7-2.78,15.22-1.45,2.96-5.44,5.02-8.21,7.29-.11.09.08-1-2,1-6.82,5.79-14.14,11.02-21.95,15.68l-4.05.32-15.85,9.74c-1.13.68-2.07,1.21-3.15.26-1.58,1.41-2.91,1.74-4,1-1.43-1.16-1.09-3.55,1.01-7.16,5.09-33.71,9.48-68.61,11.84-101.9,1.22-6.71,6.37-11.68,11.8-15.55,11.61-7.08,22.85-14.62,33.73-22.65l2.62.26Z"/><path class="cls-44" d="M53.26,215.42l6.37,2.44c196.23,47.94,393.28,96.45,591.16,145.53l.47,1.03c12.77-.6,12.28,5.72,11.47,16.15-1.45,18.76-3.14,39.94-5.87,59.72-12.84,99.94-25.69,200.41-38.54,301.41l-3.06,12.73-1.74,4.99c-3.35,38.4-12.76,74.38-51.43,91.16-6.12,2.66-14.78,6.36-20.83,4.85,33.95-9.56,55.5-27.8,63.72-62.78,7.3-31.04,9.17-69.4,13.4-101.6,12.37-94.2,24.96-188.66,34.88-283.12.87-8.29,5.68-27.54,1.01-34.03-3.85-5.34-28.4-8.03-36.03-9.97-155.38-39.57-310.89-80.67-466.76-118.24-26.87-6.48-75.21-13.05-97.23-26.27-.06-.04.14-1.16-.99-1l-1.01,5c.31-2.46-.45-5.72,0-8,.07-.37.83-.69,1-1,.87.28.86.62,0,1Z"/><path class="cls-2" d="M255.26,20.42c9.32,12.31,15.97,33.89,13,49-.13,2.54-3.27,1.99-5,1l-1.28-1.76c1.64-8.83-2.02-18.75-6.68-26.17,1.74,5.83-1.13,12.8-7.4,7.65-8.66-12.27-20.66-16.87-34.63-9.72-1.27,2.61-3.56,4.98-6.88,7.11-2.85,4.32-6.22,7.61-10.12,9.89l.39,2.92c-2.37,3.4-4.62,6.85-6.52,10.51-3.52,6.73-6.43,13.5-8.87,20.58.46.84.13,2.17-1,4,1.06,1.02,1.34,2.42.83,4.2,1.68.33,2.93.96,4.01,2.3,2.13,2.62,6.24,24.47,5.19,26.4-.23.43-.62.78-1.04,1.1-1.26,1.32-2.96.89-5.1-1.32l8.06,20.28c1.15,20.52-13.16,23.91-27.96,12.04-5.11.34-12.9-9.05-12-14,1.67-.71,1.68-3.05.02-7.01,1.91-13.18,5.61-28.33,9.48-41.43,8.65-29.34,17.12-53.21,39.05-74.8,16.93-16.67,35.49-26.66,51.94-4.12l2.5,1.36Z"/><path class="cls-142" d="M441.26,227.42c-3.76,3.4-17.47-11.89-17.28-13.86.37-3.99,2.39-4.17,5.16-1.75-3.4-12.83,1.09-32.43,4.84-45.53,10.58-36.99,23.66-72.47,58.93-92.5,11.78-6.69,20.52-2.23,28.45,7.29l.91-.65c9.01,10.09,14.8,23.3,16,37l-.73,15.35c-2.82,8.19-5.56-4.73-6-9.33l-2.32-6.84c-.91,4.59-4.35,6.77-7.89,3.11-3.65-6.15-8.06-11.4-13.21-15.74-6.98-1.33-13.93-1.52-20.86-.56l.7,1.36c-8.4,5.74-16.42,13.91-22.7,22.64.1,2.96-1.07,6.01-3.5,9.14-2.73,5.53-5.23,11.15-7.5,16.86,2.42,1.69,1.75,3.31-1,4,1.6.91,2.17,2.95,1.73,6.14,3.73,7.36,6.14,15.31,7.25,23.86,1.59,3.19,2.71,7.79-1.97,6l-2-1-1.64,1.14c6.83,11.96,16.21,34.84-4.36,37.86l-.99.89c-3.55-1.16-6.88-2.79-10.01-4.89Z"/><path class="cls-77" d="M669.26,150.42c-.69,4.63-.92,9.38,0,14,.02.66-.06,1.34,0,2-.11.86-.44,1.19-1,1-1.44.68-3.75.65-4-1-.71-.4-1.42-.98-1.39-1.73.42-10.22-.49-16.26-4.42-26.03-2.87-7.14-4.86-9.19-1.33-.03,1.65,13.59-3.55,13.04-15.6-1.64-3.7-2.9-13-6.01-16.57-1.91-2.79-.86-5.02-.75-6.69.34l.39,2.29c-6.26,3.24-10.86,7.44-14.03,13.73l-2.36-.02.29,3.23c-4.13,6.45-7.9,13.19-10.32,20.49-1.98,1.58-3.31,4.34-3.98,8.28,1.19,1.77,1.13,4.58-.19,8.44,7.36,5.15,8.82,23.25,9.02,32.16l-1.83,1.4c-1.27.23-2.6-.44-4-2-1.32,2.01-3.37-3.46-3.24-3.22,5.88,11.52,18.89,40.47-2.76,42.22l-.62.87c-4.61-1.53-9.1-3.56-13.38-5.87-3.74,1.34-9.97-5.31-9-9,1.65-.56,1.01-2.31-1.92-5.26-3.44-7.74-2.43-16.47,3.05-26.2,6.12-28.85,11.9-54.41,28.39-79,11.1-16.55,28.61-38.81,50.48-35.55,17.4,9.85,25.34,28.55,27,48Z"/><path class="cls-2" d="M381.26,43.42c4.99,1.86,12.76,13.38,15.18,18.32,3.79,7.77,6.21,18.06,6.82,26.68l-.69,13.68c-.03,1.02-.15,1.55-1.31,1.32-.33.56-.67.56-1,0l-1.91-1.83c-.33-8.12-2.16-16.26-4.71-24.01-3.73-11.31-9.92-18.86-2.26-1.83,5.59,21.08-11.44,3.62-17.04-2.93-6.08-4.29-20.76-3.14-27.08.6-.62,2.62-2.49,5.09-5.6,7.41-3.24,4.28-6.71,8.15-10.4,11.59-3.95,7.8-7.62,15.8-11,24,1.67,1.42,1,4.09-2,8,2.77,2.15,1.67,3.58-1,5,1.61.54,1.88,2.29.81,5.25,5.69,4.42,8.79,16.74,8.95,23.82l-1.76,1.92c-.33.87-.67.87-1,0-2.66-.23-3.74.22-3.22,1.33,6.27,9.62,8.85,19.39,7.73,29.3-5.78,12.93-15.48,9.48-25.5,3.37-4.64.67-11.6-6.38-11-11,1.72-1.32,4-.45,6.82,2.61-7.66-10.21-8.38-19.09-3.32-30.54,5.88-32.83,14.24-65.46,35.42-92.12,12.13-15.28,30.9-31.69,50.08-19.95Z"/><path class="cls-155" d="M640.26,161.42c9.33,2.18,18.66,4.18,28,6,.34-.2.62-.75,1-1,.08.94-.28,1.95.1,2.88,9.69,2.07,20.63,6.91,28.4,13.12,1.4,1.12,2.2,2.8,3.5,4l-.45,2.5c-12.15,11.12-24.65,21.77-37.52,31.96,1.39,12.34,2.41,24.79,3.05,37.34-2.68,32.43-6.38,65.06-12.09,97.19,1.75,1.57,1.3,2.46-1,2-1.38,2.16-5.52,1.62-8,1-.67,1.52-2.37,1.54-3,0,4.72-2.17,9.84-2.15,10.95-8.55.13-38.54,20.3-92.53,2.24-128.13-6.62-13.04-15.12-21.09-29.96-23.09-2.14-.29-11.65-.57-12.22,1.3-.99,3.29,10.33,10.37,12.83,14.14,7.17,10.82,1.53,15.75-2.33,25.34-1.48,3.68-1.93,11.47-5.78,13.28-3.2,1.51-6.38-1.67-9.72.71.19-4.59.13-8.51-1.01-13l-.33-2.07c4.52-10.02,5.97-22.55,2.56-33.14-3.23-3.82-5.5-8.81.76-10.75,18.23-5.35,35.67-13.16,52.29-23.45-4.44-.52-7.53-2.05-9.27-4.59-6.6,1.2-14.77-.76-20-5-.87-.28-.86-.62,0-1,.9-2.98,6.38-2.02,7,1Z"/><path class="cls-149" d="M654.26,355.42c5.97-32.5,9.53-66.21,12.19-99.6l-1.16-16.31c.02-3.78,1.83-7.09,4.85-9.18,13.73-7.67,26.98-15.26,38.55-25.37,3.8-2.98,6.78.02,6.83,2.03l.74-.57c.73,1.47,1.24,2.16,2,4,.58,1.95.25,2.61-1,2-7.96,8.06-25.97,17.12-35.93,24.57-11.69,8.75-10.49,13.93-12.06,27.94-3.26,29.16-6.02,58.58-10.26,87.73l-2.75,6.76c.09.37.13.72.03,1.02-.73,2.08-15.35.44-18.03-.02-179.89-45.08-360-89.21-540.24-132.86l-44.76-12.14v-1c.46-.82,1.1-2.3,2.27-1.89,108.9,26.78,217.82,53.48,326.67,80.44,82.6,20.46,165.66,43.46,249.09,61.91,3.5.77,7.75,3.05,10.97,3.53.9.13,2.04,0,3,0,3.61.94,7.06.5,8-1,.32-.67.71-1.32,1-2Z"/><path class="cls-50" d="M541.26,855.42c33.64-3.49,57.28-29.93,66.33-61.17,3.02-10.42,2.56-24.27,4.9-35.1.37-1.7,1.44-3.58,2.77-4.73l1.51,3.74c-1.36,18.48-6.86,46.13-15.84,62.27-13.13,23.58-36.05,33.36-59.66,39.99.14.48.22.87.12.93-.55.33-1.77.46-2.5.5-5.16.27-10.58.32-15.62-.43l-2.84-.45c-1.05,2.08-7.07,1.21-7.16-1.55-3.48-.02-7.02-.65-10.61-1.87l-1.13.84c-141.48-37.12-282.63-74.47-423.47-112.05l-.78-1.92c-1.78,2.91-7.69,1.65-8-2-4.57.36-10.39-.1-12-5-5.92-2.66-9.52-4.36-15-8-1.07-.71-1.53-1.66-2-2,5.68-.64,10.06,3.55,15.03,5.47,48.9,18.97,110.08,29.78,161.61,43.39,90.53,23.92,180.89,49.47,271.99,72.01,19.78,4.89,31.18,9.33,52.37,7.13Z"/><path class="cls-92" d="M522.26,80.42c.21,3.31-.52,1.86-2,.5-8.31-7.61-13.29-11.59-25.05-6.05-35.58,16.79-54.33,66.07-61.66,102.34-1.37,6.77-5.29,25.58-3.82,31.24.52,1.99,3.74,5.86,3.53,7.45-.09.66-1.74,2.16-2.5.53-10.51-10.98-3.03.08,1.51,4.49,2.63,2.55,6.01,4.44,8.99,6.51,3.17,1.34,5.5,3,7,5,7.57,6.08-1.66,4.97-7.35,2.98-12.58-4.41-22.11-15.42-20.65-28.98-10.11-32.68-9.59-61.5,5-93,2.21-.91,3.12-.03,2.66,2.26-5.02,13.67-10.32,28.48-10.92,43.2s7.74,16.43,12.12,2.34c9.73-31.91,23.98-60.99,46.16-86.88,2.99-3.5,4.32-6.81,3.99-9.93,17.28-1.95,31.58,3.22,43,16Z"/><path class="cls-65" d="M479.26,64.42l14.99,1.99c-2.53.56-10.28-.82-11.84.17-.54.34-5.27,8.89-6.74,10.76-13.9,17.77-24.55,32.23-33.6,53.4-3.82,8.94-10.88,36.12-16.88,41.11-4.62,3.85-8.82-1.82-9.71-6.16-2.52-12.36,5.01-36.04,9.52-48.03.42-1.11,2.03-3.57.25-4.24.31-.68.67-1.33,1-2,9.53-19.21,30.24-44.43,53-47Z"/><path class="cls-35" d="M613.26,95.42c11.26-1.2,20.16,1.99,29,7-5.01,2.57-10.46,1.32-15.7,3.8-20.69,9.8-40.71,41.56-48.57,62.43-6.15,16.31-8.37,34.17-13.22,50.78-2.76,9.46-8.33,12.52-2.72,22.71.85,1.55,9.77,11.75,9.21,12.28l-9-5.99c-4.7,4.67-8.29-7.6-8-12-1.42,1.26-1.94.72-1-1-11.13-24.77-7.56-68.65,6-92,.23-.39.67-.69,1-1,.34,4.85-.77,9.9-3.32,15.17-1.49,5.11-8.24,31.39-6.72,35.55,5.14,14.04,12.76-.27,14.97-7.44,8.29-34.27,27.71-61.37,47.99-89.11,15.26.84,15.42.92.5.26l-.42-1.42Z"/><path class="cls-52" d="M613.26,95.42l11.99,1.99c-2.05.44-9.97-.65-10.86.16-.3.27-.29,2.28-1.1,3.35-12.46,16.43-27.23,35.72-35.52,54.52-4.82,10.93-7.06,23.3-12.03,33.97-1.71,3.67-4.76,11.24-9.22,11.89-2.8.4-8.21-5.53-8.36-8.36-.28-5.15,2.54-18.69,3.78-24.33,1.91-8.66,4.96-18,8.32-26.18,8.46-20.59,29.56-44.49,53-47Z"/><path class="cls-153" d="M213.26,1.42l-.43,2.08c-3.6.43-6.98,1.39-10.14,2.87l-5.08,12.77c-16.76,22.44-29.83,45.77-37.48,72.88-5.55,18.31-16.69,10.68-18.88-3.6.31-3.14.47-4.95,1-8,.87-1.04,1.2,1.7,1,2.49-.26,1.02,1.27-18.41,4-20.49-3.07-1.61-.6-8.57,3-8,1.14-2.05,1.8-4.05,2-6-1.41-.63-1.08-1.63,1-3C163.28,26.86,185.09,2.89,207.26.42c2.31.17,4.31.51,6,1Z"/><path class="cls-52" d="M342.26,32.42c5.43.07,12.26,1.42,3.44,4.73-19.67,27.46-39.19,55.57-47.84,88.39-3.2,12.37-17.31,17.31-18.6,1.87l-.89-1.44c1.41-13.52,4.04-26.71,7.89-39.56.5-2.54.66-4.94.47-7.21l2.53-.79c10.45-20.79,29.36-40.93,53-46Z"/><path class="cls-23" d="M716.26,206.42c-.33,4.97-.95-.98-3.29-.86-4.65.23-11.98,8.65-16.4,11.67-7.68,5.26-17.87,9.61-25.27,14.73-5.26,3.64-4.11,9.36-4.06,15.02.22,26.75-3.82,51.84-7.73,78.19-1.47,9.93-1.46,21.31-5.25,30.25,4.52-31.69,8.18-63.55,11.04-95.46,2.45-9.81-6.21-31.89-3.83-39.84.83-2.76,20.75-16.67,24.81-20.19,5.2-4.52,8.43-10.33,14.99-13.51,8.37,7.72,9.94,9.9,15,20Z"/><path class="cls-93" d="M535.26,138.42c.33.03.67-.04,1,0-13.4,6.99-27.21,21.28-41.94,24.56-4.58,1.02-9.71.91-14.29,1.71-13.09,2.3,1.34,6.48,3.46,13,3.01,9.26-.97,29.54-7.03,37.44l-.21,4.29-1.94-10.56-1.05.56c-1.75-.52-3.68-5.31-3-7,.23-9.33.2-19.67-1.33-29.3-4.9-7.63-1.21-10.81,5.92-14.86,11.53-6.25,22.72-13.01,33.55-20.29,1.85-3.03,4.13-4.54,6.85-4.55,6.51.48,13.87,2.81,20,5Z"/><path class="cls-66" d="M370.26,37.42c4.82,1.16,7.46,1.82,11,6-.09-.04-.65.97-1.94.58-9.51-2.88-13-4.67-22.73.26-38.16,19.33-51.71,72.24-58.61,110.39-.99,5.5-4.25,10.61-3.66,16.17.77,7.33,7.9,14.38,9.94,21.6l-12-8.99c-4.19.95-6.06-5.34-6-9-1.49.97-2.16-.03-2-3-.33-.64-.71-1.36-1-2-7.88-13.8-7.14-30.12-6.38-45.62.03-.57-.49-1.16-1.17-1.77,1.11-7.93,3.38-15.59,5.75-23.41,1.13-3.72,2.37-7.49,3.79-11.1.17-.43.56-.77,1.01-1.09,1.93.89.43,3.2.03,4.52-4.11,13.59-5.95,22.25-7.03,36.48.7,9.43,1.94,18.82,3.73,28.16,2.22,2,15.83-29.03,15.76-32.48,6.86-25,19.17-47.93,35-68.24,8.61-11.05,22.1-26.9,36.51-17.43Z"/><path class="cls-118" d="M152.26,48.42c-.16,1.92-.82,3.92-2,6-2.04,3.56-1.99,3.73-3,8-.4,1.55-1.07,2.55-2,3l-1.12-.64c-1.36,2.94-3.36,19.02-5.32,19.4l-50.54-10.75,64.99-28.01c-.35.65-.5,1.98-1,3Z"/><path class="cls-87" d="M255.26,20.42c-3.44,1.9-6.14-4.74-8.09-6.41-1.12-.95-8.86-6.23-9.64-6.39-1.7-.35-9.43.6-11.47,1.09-16.14,3.92-35.94,27.8-44.19,41.81-13.36,22.69-17.68,46.11-23.69,71.31-1.6,6.71-5.08,11.46-3.69,18.86.65,3.45,3.83,6.86,3.76,10.72l-5.99-5c-3.77,1.32-3.98-3.16-4-6-1.67-.1-1.68-1.59-1-3-2.45-4.35-3.78-8.68-4-13,.02-6.89.48-9.39,7.15-12.49,4.24-6.54,7.65-13.63,10.24-21.27,9.96-32.05,26.97-66.55,54.08-87.15l-1.47-2.09c-1.88-.14-4.88.77-6-1,19.82-2.21,36.02,4.19,48,20Z"/><path class="cls-98" d="M487.26,103.42c0-.07-.95-.48-1.01-.98,7.62-.28,15.35-3.6,22.75-.25,5.97,2.7,12.86,16.29,14.86,17.14,3.71,1.58,3.06-4.25,3.44-6.39.99-5.53,4.9,5.64,5.47,7.48,1.28,4.14,2.06,8.69,2.5,13.01,1.31,1.59,1.82-.11,2-1.49.58-4.56-1.28-10.3,1-14.52.44,4.99.84,16.16-2,20-9.21-.91-19.34-3.98-28-7-2.6.24-7.73-1.11-9-3l-2.05-1.37c.98-10.66-1.99-17.54-8.89-20.61l-1.06-2.02Z"/><path class="cls-122" d="M342.26,32.42c9.07-.78,16.45-.8,25.1,2.45,1.57.59,3.48-.03,2.9,2.55-8.4-2.02-10.61-2.62-18.33,2.17-14.14,8.77-35.74,41.09-42.41,56.59-7.57,17.61-10.81,39.12-20.41,55.59-1.08,1.86-3.76,3.34-4.34,4.66-1.06,2.44.38,6.08-2.51,6.98-2.05-11.22-4.56-22.03-4.05-33.58.06-1.31,1.03-2.24,1.04-2.42,12.24,24.22,20.86-15.03,24.6-23.9,9.14-21.65,20.38-37.55,33.22-56.78,3.14-4.7,4.76-12.87,12.17-12.34l-7-1.99Z"/><path class="cls-79" d="M288.26,78.42h1c-1.07,2.14-2.02,5.56-3,8-9.39,23.29-13.67,59.74-3,83-1.05,2.44-2.93-4.22-3.02-4.48-4.41-13.04-6.18-27.87-3.98-41.52-8-.55-17.16-2.49-25.03-4.47-4.78-1.21-35.9-9.64-35.95-13.03-.02-1.44,3.37-1.46,4.44-1.55,19.36-1.46,38.39,7.61,57.51,9.03-.86-6.88,10.05-29.25,9.08-33.35-.27-1.16-2.47.02-2.04-1.62h3.99Z"/><path class="cls-114" d="M213.26,1.42c2.19-.25,5.23-.1,7.51,0,1.21.05,3.72-.76,3.49.99h-6.29c-1.78,3.77-4.92,4.11-7.73,6.48-13.56,11.49-31.2,37.3-38.46,53.54-5.14,11.49-12.81,44.07-20.02,50.98-1.6,1.53-4.83,2.51-5.93,4.07-1.47,2.09-.76,5.1-2.57,6.93l-1.13-1.1c-1.08-10.03-1.7-19.99-1.87-29.9.14-2.37.89-3.9,1-5,7.33,10.92,9.47,20.77,17.48,2.98,4.65-10.33,7.61-21.94,12.64-32.36,6.59-13.64,15.85-25.18,23.07-37.93,2.6-4.6,4.55-12.75,6.73-16.02.69-1.04,3.69-1.88,5.02-2.22,1.55-.4,5.65-1.29,7.06-1.45Z"/><path class="cls-2" d="M143.26,124.42c.85,3.71,2.63,9.47,4,13-.28.87-.62.86-1,0-.07-2.89-4.2-10.44-5-14s-.81-6.44-1-10c-.99-5.95-.98-12.05,0-18,.03-.66-.04-1.34,0-2,1.66,1.04,1,3.8,1.02,5.49.1,9.11-.08,16.52,1.98,25.51Z"/><path class="cls-48" d="M263.26,70.42c1.73.23,3.49-.11,5-1-.17.88.12,2.04,0,3-8.89-2.21-18.1-3.83-27-6-.9.69-2.19.22-2-1-.5-.74-.87-1.91-.3-2.29,2.64-1.73,19.25,3.6,23.09,5.06l1.21,2.23Z"/><path class="cls-118" d="M536.26,137.42c-.27.36-.72.63-1,1-4.21-.33-14.7-3.8-20-5-2.77,2.05-6.74,1.4-8-2-1.21-.83-.88-1.16,1-1l28,7Z"/><path class="cls-2" d="M147.26,62.42c-1.58,6.69-2.93,13.67-4,20.49l-1-2.49c.87-5.03,1.24-10.16,3-15,.35-.97,1.4-2.09,2-3Z"/><path class="cls-118" d="M140.26,113.42c-1.68-5.08-1.67-12.99,0-18-.25,5.65-.29,12.37,0,18Z"/><path class="cls-161" d="M403.26,104.42h-1l-1-1c2.23-4.81-.42-10.82,2-15,.35,4.88.21,11.06,0,16Z"/><path class="cls-23" d="M721.26,216.42c-1.38,1.09-.33,3.38-1.99,2.99l-2.01-6.99c.41-.41.61-1.45,1-2,.75,1.82,2.43,4.04,3,6Z"/><path class="cls-4" d="M669.26,164.42c-1.7-3.56-1.67-10.65,0-14,.38,4.46-.15,9.43,0,14Z"/><path class="cls-86" d="M56.26,226.42c4.09,2.2,6.22,4.84,10.74,6.76s17.54,6.64,22.19,7.81c27.91,7,56.03,14.16,83.82,22.18,9.8,2.82,25.51,3.44,36.45,5.55,29.18,5.64,59.45,15.87,88.53,23.47,32.24,8.43,63.35,18.12,95.45,28.55,2.25.73,13.82,2.63,14.83,3.71.35.38-1.91,3.12.63,3.82,6.24,1.71,16.09,1.19,22.8,2.19,11.18,1.67,21.78,5.62,32.49,9.51,3.11,1.13,3.77,4.2,4.1,4.43.54.39,2.47-1.87,3.47-1.77.9.09,1.81,2.3,3.18,2.64,3.98.96,11.38-3.1,12.99,4.18l27.61,4.18c6.87,9.88,21.51,7.75,28.66,14.34,3.34,3.08,1.35,8.35,2.2,9.32.22.25,2.28.35,3.35,1.09,4.31,2.98.56,3.31.47,5.54-.04,1.05,3.48,4.1.51,4.5-.77.1-2.91-.91-3.49-1.52-1.07-1.14-.6-4.49-2.48-3.47-1.58.85-1.25,4.18-3.14,4.86-3.03,1.08-6.31-.74-8.88-.67-1.75.05-5.11.54-7,.83-1.73.26-1.68-.55-1.5,1.97,4.47-1.21,7.24,1.82,10.77,2.73,13.19,3.42,26.98,4.87,40.19,8.81,3.58,1.07,14.5,3.86,11.03,8.47l-5.99-3.72c-16.69-5.52-34.7-10.82-52.01-12.28l-1.47,1.75c-9.84-2.31-10.4-2.31-16.1,4.79-.42.53-1.65,0-2.43-.54-3.15,18.32-5.82,36.32-8,54-.6,4.63-3.15,9.72-2.01,14.99l-1.7-9.36c3.75-16.35,4.67-33.43,7.64-49.21.93-4.92,1.05-16.46,4.55-19.44,1.36-1.16,4.32-1.86,4.47-2.06.68-.91-1.63-5.3-.96-5.92.5-.46,3.33.97,3-.99-2.07-.71-6.21-.67-7.5,1.03-1.16,1.53.84,3.83-3.93,3.01l-6.71-12.9-17.28-1.08-7.57,2.9c4.08.86,9.92,3.75,12.96,6.57,1.84,1.71,1.43,2.59,2.04,3.44-9.36-4.78-20.4-8.57-31-9l-1.62,1.64c-12.54-4.45-25.18-6.86-37.9-7.23-2.33,1.9-4.49,2.77-6.47,2.59-.04.04-.64-.83-1.02-.5-1.72,1.49-3.38,13.03-3.85,16.13-2.02,13.39-6.82,44.62-4.56,56.32.2,1.03,1.29,3.28-.55,3.04-2.65-4.04-3.74-8.6-3.81-13.49-.24-16.89,5.49-34.97,7.61-51.22.29-2.26-1.48-5.55-.31-8.42-3.34-3.36-6.58-14.87-10.98-15.88-3.1-.71-2.66.71-2.51,3.02-14.52-8.86-38.69-15.28-55.93-17.31-.72-.09-1.4.08-2.07.31l-1.74,1.69c-6.58-1.92-10.85-2.55-16.06,2.53l-2.2-.23c-5.66,15.33-8.21,43.94-9.87,64.6-.1,4.41,1.14,8.01,3.87,11.4,2.62-.21,2.83.11,1,2-4.07.16-8.87,6.83-10.04,1.46,1.47-10.93,1.01-21.99,2.04-32.96.55-5.9,1.33-13.04,2.11-18.89,1.12-8.4,5.16-16.46,3.93-25.17-.58-4.13-7.21-16.44-11.04-8.45-.37.22-.7-.11-1-1-.28.85-.62.83-1,0-4.73-3.89-9.32-7.54-15.99-9.02-17.67-4.48-35.27-8.39-52.79-11.73-3.73.82-5.97,3.87-7.8,7.02l-2.42-.27c-3.49,19.9-6.3,39.96-8.43,60.17.38,5.8,2.19,11.07,5.43,15.83-7.11,3.1,1.41,10.92,5.29,13.21,4.32,2.54,19.2,6.88,24.69,8.31,12.21,3.16,34.52,2.38,38.01,16.48-1.96-2-3.78-2.72-5.99-4-16.9-6.23-36.63-12.25-54.53-15.18-5.36-.88-9.93-1.48-14.47,2.18,2.35,1.88.72,4.67-2,3-3.37,13.69-5.7,27.69-7,42-1.04,8.9-5.54,21.36-2.49,30,.95,2.69,3.12,4.31,3.49,6.99-1.62-.2-4.66,1.02-4.93,2.64-.09.52,4.82,8.74,5.19,9.11,2.39,2.39,8.5,3.75,11.46,5.04,1.56.68,2.73,2.77,3.97,3.07,1.47.36,3.9-1.01,6.54-.67,3.17.41,8.01,3.44,11.74,4.35,10.55,2.59,18.54,3.49,29,7.99,3.96,1.71,7.37,2.34,7.03,7.48l-9.94-6.01c-9.27-3.89-50.71-15.1-59.64-13.66-1.57.25-3.07.85-4.42,1.67-3.57,3.39-5.57,8.03-6.02,13.91-2.96,16.58-5.29,33.27-6.98,50.09-.02.24-1.13,1.62-.92,4.36.33,4.33,3.35,7.61,3.43,11.63-3.79-3.64-6.68-12.48-6.57-17.52.44-19.05,7.73-40.4,8.02-59.85-1.78-7.1-5.04-12.04-12.96-8.63-4.59-4.65-8.15-6.57-14.88-8.73-14.32-4.6-30.5-8.54-45.12-10.27-1.72,1.59-4.59,1.89-8.62.9-2.61.93-4.73.96-6.38.1.02-.05-1.1.1-.98-.5.24-1.19,3.27-.88,2.98-2.49-6.61.32-10.17,7.08-15.99,9.5,4.28,5.47,5.95,4.12.93,10.44l-8.93-5.95c11.03,3.52,4.9-10.76,4.1-16.61-.21-1.51.95-3.07.73-4.68-.18-1.33-1.94-2.68-1.69-4.07s3.11-2.5,3.66-4.34c.67-2.22-.23-9.83.21-10.29,8.77,3.97,6.07-9.19,7-15.01,8.27-1.11,3.21,7.47,5.46,13.05.73,1.81,3.97,4.42,5.54,5.96.88-.23,1.88.44,3,2,1.42-1.39,2.02-.75,1,1,14.76,7.08,34,11.97,50.43,15.24,20.08,4,23.06,1.8,26.57-18.31,3.15-18.07,5.97-36.72,6-54.93-1.97-.35-2.97-2.01-3-5-2.16.32-4.45-.87-6.86-3.58-3.55-.8-5.59-2.27-6.14-4.42-8.7-3.06-20.32-6.47-30-7l-1.68,1.65c-8.57-3.26-17.12-4.64-25.64-4.15l-1.68-1.51,2.16-2.34,6.83-1.65c-3.97,1.15-15.35-5.19-16.02-8.51-.94-4.72,3.16-7.67,2.02-12.5,3.33-1.02,4.5,3.17,6.65,3.79.61.17,1.27-.81,1.35-.79,1.45-1.5,2.32-1.06,2,1,20.44,8.44,43.69,13.32,65.57,16.3,3.07-.41,5.19-1.66,7.16-4.11,4.98-6.19,10.05-56,10.55-65.67.07-1.44.03-4.99-1.27-5.52-1.47.33-2.14-1-2-4-1.8.35-3.36-.65-4.66-3-8.82-6.23-45.97-13.89-57.6-15.51-10.08-1.4-12.51.72-14.45,10.62l-1.46,14.18c-.27,1.57-1.43,1.56-2.83.7-.59.81-.92.48-1-1,.79-5.4,1.76-16.58,3.48-21.02,5.44-14.04,23.26-4.57,33.29-3.25,1.09.14,3.44,1.11,3.22-.72-1.94-1.69-12.38-3.19-13-4.03-.4-.54,1.48-3.58,1-3.98-7.63,1.55-5.67-2.48-9.51-7-3.01-.57-.81,4.36-1.49,5-.13.12-2.86.15-3.5.03-.94-.18-.15-2.47-.58-2.89-.91-.87-8.54-1.17-9.9.86.2-7.77-6.98-1.19-9.33-1.23-1.89-.04-5.09-2.18-7.41-2.54-1.4-.22-2.93.64-4.5.51-9.05-.74-4.06-5.1-6.26-8.75-.58-.96-2.81-1.41-3.96-3.04-5.49-7.76-2.85-9.58-11.42-17.58-5.75-5.36-3.07-4.54-4.83-9.07-1.23-3.16-5.41-4.6-7.15-6.94-1.93-2.58-2.91-7.29-4.14-10.36Z"/><path class="cls-94" d="M456.26,376.42c6.43.28,14.3,2.01,20.45,4.26,5.27,1.93,13.82,5.34,12.55,11.74.25.09.46.2.56.37.45.79-.03,4.89-.2,6.27-2.41,19.43-5.36,39.68-8.32,59.15-.92,8.8-5.54,11.65-13.89,10.33-19.38-5.14-38.77-9.85-58.15-14.12-3.94-3.56-6.79-6.01-7.76-11.73-1.62-9.51,4.26-43.85,5.9-55.62.64-4.57,1.12-9.32,2.86-13.64,2-1.82,2.93-3.7,5.97-4.52,7.89-2.13,30.96,5.17,40.03,7.52Z"/><path class="cls-101" d="M528.26,394.42c.66-.4,1.35-.46,2.1-.36,10.96,1.55,46.85,9,54.35,15.25.69.57,1.32,1.21,1.55,2.11.13.12,1.53,2.33,2,3,.56.99.56,1.66,0,2-1.84,19.36-4.07,40.67-6.98,60.72-1.92,13.17-5.22,17.53-19.06,15.19-17.5-3.72-34.8-8.21-51.92-13.46l-2.04.55c.17.89-.49.89-2,0-7.88-7.53-5.86-14.66-5-24,.83-18.48,3.16-36.81,7-55,1.27-.19,1.66-3.16,3.04-4.46,5.28-4.93,11.09-2.65,16.96-1.54Z"/><path class="cls-101" d="M331.26,666.42c8.65,2.56,13.51,2.96,18,11,.97.56,1.66,1,1,2-2.11,23.74-5.67,47.1-10.68,70.1-2.22,1.79-4.33,3.42-6.32,4.9l-.59.96c-20.62-2.04-43.88-7.48-62.41-15.96-7.79-3.01-9.02-12.4-7.89-19.91.88-6.15,1.84-12.18,2.89-18.09,4.34-10.73,1.72-34.08,7.53-42.98.7-1.07,3.38-2.55,3.47-3.02,3.99-1.97,8.74-2.1,14.28-.39,13.68,3.19,27.58,7.26,40.72,11.39Z"/><path class="cls-113" d="M213.26,328.42c1.15-.16,3.7-9.62,13.36-8.94,14.12,5.67,54.42,8.95,63.89,18.9,1.24,1.31,1.55,2.27,1.75,4.03l-9.42,71.02c-.84,4.03-5.5,5.63-9.24,5.48l-51.72-13.14c1.04.2,1.64.4,1.38,1.64-2.12,1.53-7.52-.45-10-2-.3-.1-.7.1-1,0-4.76-4.05-7.23-10.24-7.45-16.42,2.1-20.4,4.92-40.6,8.45-60.58Z"/><path class="cls-124" d="M140.26,617.42c9.09,2.81,9.27,3.94,14,11l.84,2.16c-2.39,17.53-4.48,35.09-6.26,52.67-1.73,11.08-3.24,19.92-16.58,19.17l-2.56.56c-17.33-3.67-34.71-7.91-51.44-13.56-5.28-2.01-10.98-9.66-10.61-15.55,1.33-21.12,4.82-44.41,10.61-64.45,1.35-1,2.62-2.76,3-3,.84-2.45,6.11-2.96,8.51-2.45,16.97,3.55,34,8.43,50.49,13.45Z"/><path class="cls-124" d="M271.26,438.42c2.9,1.63,6.18,5.67,7,9-.93,1.33-1.77,1.01-1.1.1s1.15,3.8,1.07,4.87c-1.51,18.61-4.16,41.03-8.1,59.06-2.39,10.93-8.38,11.58-18.25,9.94-16.6-4.39-33.14-8.37-49.62-11.96-.99.69-2.32.36-4-1-10.3-11.19-4.56-23.89-3-37,.06-14.73,2.06-29.07,6-43,1.12-.62,1.41-2.34,2-3,2.56-1.98,5.68-3.09,8.92-2.9,19.74,3.57,40.89,7.94,59.08,15.9Z"/><path class="cls-158" d="M297.26,552.42c.37-.45.72-.8,1.01-.76,11.61,1.68,52.77,10.75,60.78,17.2,1.56,1.26,4.45,3.96,3.21,5.56,1.32,2.24,1.15,5.11.99,7.64-1.28,20.16-5.72,43-9.8,62.76-3.15,7.46-10.96,6.34-17.6,4.86-18.03-4.33-35.9-9.08-53.59-14.25-1.28.13-2.61-.87-4-3-3.49-11.75-3.16-24.09,1-37,.98-7.92,3.19-30.3,5.79-36.71,2.34-5.78,6.38-6.67,12.21-6.29Z"/><path class="cls-68" d="M168.26,708.42c-1.2-4.32-2.33-10.08-1.82-14.55,1.81-15.81,4.24-33.24,7.02-48.88,1.68-9.42,5.15-12.07,14.09-14.4,18.3,4.53,36.53,9.14,54.71,13.84,4.68,1.79,7.99,4.16,10,9-.78,21.59-4.46,44.08-8.35,65.53-1.53,8.44-9.33,10.15-16.78,8.2-16.98-5.01-33.94-9.25-50.86-12.73.14,1.35-1.22.96-2,0-2.39-.66-6.1-3.49-6-6Z"/><path class="cls-132" d="M476.26,683.42c-2.3-2.79-3.8-6.84-3.48-10.49,1.59-17.92,3.82-37.53,7.09-55.13,2.05-11.07,7.8-11.35,17.74-11.5,2.14-2.09,23.64,3.34,24.58,4.22.81.77.64,2,.12,3.05,8.54,2.32,17.11,4.52,25.71,6.62,1.24-1.95,1.88-2.56,4.24-1.77,2.61,1.23,6.9,3.83,7,7-.52,18.85-3.46,40.12-6.58,59.21-1.91,11.64-4.85,20.12-18.95,16.76-16.17-4.58-32.33-8.57-48.47-11.97-1.12,1.45-5.26-.16-6-2-1.33-1.63-1.96-1.5-3-4Z"/><path class="cls-74" d="M487.26,575.42c-.06-22.88,4.14-46.74,8.13-69.29,2.27-3.7,8.3-5.25,12.52-5.64,15.67,5.12,31.57,9.23,47.71,12.36l1.65-1.8c3,1.17,6,1.96,9,2.37,2.78.06,6.39,4.15,7,7v1c.4,1.77.45,4.98.34,7.31-.55,11.74-4.72,55.64-10.23,63.74-2.05,3.02-4.22,4.47-7.88,4.57-19.98-2.57-39.59-7.21-58.85-13.93l-2.38.31c-1.09.78-1.78.33-2-1-1.22-1.58-4.97-5.44-5-7Z"/><path class="cls-151" d="M363.26,759.42c-1.55-4.77-2.38-10.54-1.93-15.56,1.34-14.78,3.38-30.11,5.75-44.77,2.02-12.5,3.67-16.18,16.74-14.49,15.77,3.65,31.44,7.72,47,12.21-.94-1.03-.95-2.81.43-3.43l8.01,2.05c3.77,1.78,7.38,4.61,8,9-1.93,20.47-4.94,45.16-9,67.22-1.1,5.96-9.81,8.13-15,7.78-.55.36-1.09.64-1.62.62-11.28-.49-39.42-9.19-50.64-13.68-1.29-.52-2.53-1.02-3.71-1.76-.47-.29-.87-.59-1.03-1.18-1.3-.29-3.41-2.42-3-4Z"/><path class="cls-74" d="M388.26,549.42c1.97-19.83,4.27-39.63,6.9-59.42,1.52-12.09,6.4-13.05,17.64-11.59,16.45,3.44,32.79,7.39,49.02,11.84,2.85.77,5.67.5,8.44-.83,1.31-.12,2.64.88,4,3,1.5,1.85,1.83,3.18,1,4,.75,5.36.59,10.75-.46,16.18-1.01,8.07-6.89,52.77-10.22,56.59-2.12,2.44-9.65,3.66-12.67,2.66-18.63-5.04-37.18-9.51-55.65-13.43-3.26-.02-7.15-6.06-8-9Z"/><path class="cls-132" d="M376.26,656.42c-1.13-3.99-2.04-8.29-1.69-12.5l6.55-50.8c.78-7.27,1.32-11.93,9.7-12.64,19.75,3.62,39.29,8.14,58.63,13.56,1.17-1.31,2.77-1.85,4.81-1.62,2.93.54,7.87,5.04,7,8-.76,21.48-4.55,44.15-8.31,65.73-1.32,7.56-6.93,10.65-14.11,9.45-4.79-.8-56.84-12.14-56.05-14.94.04-.15,2.67.15-.52.76-2.37-1.72-3.89-1.34-6-5Z"/><path class="cls-94" d="M384.26,359.42c1.54-.77,4.97,2.17,5,4,1.09.81,2,2.98,1,4-1.85,18.03-3.86,36.83-5.85,55.18-1.25,23.62-11.21,22.72-30.72,16.98-12.15-3.62-24.35-6.95-36.6-10.02l-.84.86c-2.03,1.42-5.13-.57-7-2-.57-.29-1.7-.69-2-1-.25-.25-.87-1.56-1-2-1.28-.69-1.68-1.75,0-2-1.62-2.68-1.73-5.83-1.82-8.87-.38-13.32,3.07-44.53,6.81-57.25,2.9-9.88,5.48-10.91,15.51-9.56,17.16,3.98,34.14,8.32,50.94,13.03,2.24.69,4.43.24,6.57-1.35Z"/><path class="cls-158" d="M181.26,604.42c-.98-5.02-1.37-10.46-.89-15.58s4.93-49.12,8.35-53.98c4.33-6.17,14.94-5.25,20.88-1.63,14.82,3.07,29.28,6.74,43.37,10.99,1.54-2.24,2.46-2.53,5.29-1.81,3.11.35,7.94,5.06,7,8,.99,4.17.53,9.23.06,13.6-1.97,18.35-5.04,37.19-8.8,55.09-3.05,6.47-8.75,6.32-15.22,4.83-15.76-3.42-31.37-7.4-46.86-11.95l-2.19.43c-1.96.86-4.29.19-7-2-1.65-1.75-3.09-3.82-4-6Z"/><path class="cls-62" d="M380.26,474.42c.05.09,1.35-.43,2.01.69,2.62,4.45-1.96,42.1-3.15,49.66-1.38,8.73-3.69,29.25-14.31,30.69-10.62,1.44-41.67-6.59-52.75-10.34-7.46-2.52-15.31-5.92-19.79-12.7,22.2,3.66,43.71,10.14,65.56,15.04,4.44.56,5.54-2.99,7.44-6.05,4.35,6.22-4.11,9.63-10,8-.85.25-1.5.45-1.43.49,6.05,2.73,14.37,2.06,16.83-4.76,4.38-23.08,7.23-46.38,8.56-69.89l1.04-.84Z"/><path class="cls-154" d="M371.26,464.42c-.31,1.76-2.86-.62-3,.5-.41,3.18,7.28,6.32,2.5,7.51-4.5-2.04-9.3-3.66-14.05-4.96-12.26-3.35-33.29-9.54-45.22-10.83-8.88-.95-10.03,2.23-11.76,9.74-2.44,10.6-1.81,22-4.47,32.53-.35,1.39.02,3.12-1.99,3.5.53-2.82-.65-5.72-.63-8.33.07-8.9,2.25-26.97,3.85-35.94.77-4.31,5-7.95,8.77-9.73,21.75,1.51,46.58,7.28,66,16Z"/><path class="cls-15" d="M410.26,473.42c19.97,1.93,40.67,8.08,59.71,14.9l.29,1.1-2.05,3.92c-21.51-2.88-42.51-12.97-64.21-13.68-8.62,3.29-7.15,8.51-8.59,16.4l-7.14,53.36c-.43-1.48-.74-3.65-.73-5.21,4.51-19.21,3.37-43.17,8.17-61.85,2-7.77,6.98-9.5,14.56-8.94Z"/><path class="cls-75" d="M400.26,684.42c10.46,2.6,29.98,6.74,39,11l-8-.99,5.99,4.5c-.34,1.03-2.44.49-3.38.38-13.88-1.51-48.19-15.74-58.9-12.67-5.04,1.44-5.81,6.12-6.57,10.43-2.71,15.22-3.22,31.59-6.13,46.87l.99,15.49c-3.22-1.85-3.58-7.3-3.62-11-.21-16.19,3.58-41.4,7.39-57.32,1.27-5.31,3.18-9.47,8.5-11.53,5.77-2.24,19.34,2.71,24.73,4.85Z"/><path class="cls-20" d="M454.26,592.42l-4.43,3.97c-19.56-4.91-39.08-11-58.99-13.94l-7.5,2.05-8.06,59.44.98,12.48c-1.86-3.23-2.5-6.74-2.89-10.39,4.64-18.73,3.64-41.53,8.13-59.86,1.85-7.55,8.82-9.06,8.76-9.75,21.75,1.71,43.65,8.34,64,16Z"/><path class="cls-22" d="M409.26,455.42c-.17-.14.16-.85,0-1,1.69-1.21,3.27-1.04,5.21-.78,16.96,2.25,37.75,12.24,54.41,13.66,9.92.85,9.37-4.48,11.06-12.7,3.33-16.23,4.28-33.13,6.45-49.55.47-3.57,2.79-10.13,2.87-12.63.28-.87.62-.86,1,0,1.87,2.27,1.78,6.28,1.62,9.27-1.04,19.32-4.45,40.98-8.19,60.09-1.32,6.75-8.84,10.74-15.32,9.34-20.03-4.15-39.74-9.38-59.11-15.7Z"/><path class="cls-19" d="M278.26,447.42c.32.01.69.04,1,0,1.53,2.33,1.75,6.29,1.5,9.22-1.58,18.51-4.23,38.98-7.97,57.17-2.58,12.52-14.36,11.18-24.02,9.32-14.69-2.83-32.17-7.27-46.09-12.61-.25-.09-.36-.55-.42-1.11,1.71-1.26,3.25-.98,5.19-.76,14.92,1.64,32.44,9.98,47.41,11.65,11.78,1.31,12.35-3.59,14.11-13.68,2.92-16.78,5.49-36.73,7.28-53.72.23-2.14-.1-4.35.02-6.49.27-.43,1.55.98,1.99,1Z"/><path class="cls-13" d="M378.26,470.42l.96,5c-1.62,22.68-3.58,47.17-8.44,69.38-1.4,6.41-11.47,8.62-15.51,4.62,7.91-.95,8.29-1.17,10-8,5-19.96,4.81-41.12,8.1-61.4,1.19-7.32,6.37-10.38-2.1-15.6-6.91-4.26-44.65-12.38-54.97-14.53-3.59-.75-7.36-1.35-11.03-1.47,3.14-1.48,3.87-1.11,7.23-.72,12.73,1.47,38.81,8.48,51.55,12.44,8.72,2.71,9.07,3.28,14.22,10.28Z"/><path class="cls-147" d="M461.26,600.42c.33-.87.67-.87,1,0,1.76,2.86,1.67,7.08,1.56,10.51-.37,10.75-5.02,51.53-10.23,60.64-3.35,5.85-8.24,7.45-14.8,6.36-18.47-4.24-36.64-9.08-54.52-14.51-.18-.75-1.33-1.51-2-2-.29-3.5.7-1.31,2.42-.93,16.88,3.77,38.01,11.69,54.33,13.67,7.73.94,9.89-.84,12.14-8.35,1.94-18.66,5.97-37.31,8.09-55.91.35-3.07-.21-6.39.03-9.49.9.73,1.5.06,1.99,0Z"/><path class="cls-41" d="M258.26,542.42c-3.44.32-2.86,3.72-3.06,3.9-1.12,1.05-14.3-3.79-16.91-4.44-9.7-2.41-19.59-4.17-29.26-6.74-2.6-.69-4.12-2.43-7.25-2.76-3.43-.36-10.29.79-12.51,3.54-1.23,1.52-3.34,17.65-3.86,21.14-1.59,10.58-2.23,21.33-4.13,31.87v15.49c-1.7-4.05-1.91-5.61-2.01-10-.25-.85-.45-1.64-.46-2.52-.12-9.65,5.41-55.62,10.43-61.82.57-.71,1.22-1.25,2.03-1.66,1.93-1.2,4.18-1.84,6.44-1.87,20.23,3.26,42.41,7.55,60.56,15.87Z"/><path class="cls-116" d="M485.26,689.42c2.01-1.35,3.98-1.06,6.23-.76,12.18,1.63,41.45,13.62,51.25,11.74,6.87-1.32,8.48-19.48,9.41-25.59,2.14-14.12,3.32-28.62,5.2-42.8.29-2.18,1.98-4.73,1.92-6.58h1c.74,1.26,1.16,2.65,1.42,4.07,2.24,12.22-3.85,48.43-7.37,61.7-3.53,13.27-10.84,14.12-23.49,11.84-14.06-2.52-31.66-7.51-45.07-12.47-.27-.1-.4-.57-.49-1.15Z"/><path class="cls-32" d="M494.26,583.42c1.29-.43-1.38-2.38,1.34-1.86,14.02,2.67,50.72,16.12,62.15,13.84,3.91-.78,5.39-6.36,6.22-9.78,3.45-14.24,6.9-42.96,8.04-57.98.14-1.9-.82-3.38-.73-5.22,3.16,1.97,1.53-.36,1.99-.99.09-.12.67.07,1,0,1.73,3.7,1.74,7.97,1.48,11.99-.78,12.33-4.42,50.45-9.9,59.9-3.3,5.69-8.56,6.26-14.56,5.94-6.69-.36-55.09-12.27-56.76-14.68-.21-.3-.26-.71-.26-1.14Z"/><path class="cls-59" d="M252.26,653.42c.35.07.76-.1,1,0,1.69,2.81,1.75,6.29,1.6,9.48-.74,16.76-3.76,39.41-8.05,55.53-3.34,12.53-10.75,12.4-22.05,10.28-15.12-2.83-33.73-7.81-48.09-13.23-.24-.09-.34-.53-.41-1.06,2.17-.79,3.88-1.06,6.21-.79,14.97,1.71,34.76,11.68,49.43,12.73,5.48.39,9.05-2.33,10.09-7.71,1.86-19.91,7.44-41.18,8.9-60.9.11-1.45-.72-2.86-.61-4.32.79.64,1.89-.02,1.99,0Z"/><path class="cls-150" d="M396.26,559.42v-1c.71,0,1.89-1.13,4.19-.8,18.08,2.58,37.25,10.63,55.51,13.51l8.3-3.2,10.99-71.51c2.45.41,2.58,5.17,2.59,7.65.1,16.76-3.76,42.22-7.84,58.61-1.52,6.13-3.92,10.64-10.69,11.59-10.62,1.49-50.53-10.36-62.55-14.11-.22-.07-.38-.37-.51-.73Z"/><path class="cls-29" d="M521.26,501.42c14.81,2,32.13,5.23,45,12-1.66,2.66-7.04-1.88-7.99-1-2.29,2.12,3.33,1.7,1.48,3.01-17.79-2.12-34.94-8-52.11-12.99-2.24-.22-10.19,3.12-11.39,4.46s-1.54,5.2-1.86,7.14c-2.64,15.83-7.23,44.78-6.1,59.83.12,1.63-1.03,1.45-1.02,1.54l-1-8-.92-.56c1.7-14.13,3.68-28.28,5.92-42.44,3.66-8.91-1.09-22.08,10.46-26.05,5.47-1.88,13.77,1.7,19.54,3.05Z"/><path class="cls-8" d="M552.26,618.42c-2.25.4-1.88,3.78-2.05,3.93-1.14,1.01-25.68-6.66-29.52-6.85-1.35-.02-3.29-2.35-2.44-3.07.53-.45,3.32.97,3-.99-6.31-.81-14.39-4.74-20.5-5.03-2.52-.12-.95.74-.49,2.01-5.48-.33-14.3-.36-17.98,4.53-1.36,1.8-1.43,4.88-1.86,7.14-3.22,17.21-3.63,35.63-7.2,52.88-.04,3.08,1.82,7.55,3.03,10.45-1.83-1.08-3.37-3.75-3.77-5.73-1.33-6.59,4.99-53.98,7.02-62.52,2.4-10.07,6.83-12.81,16.99-11.49,9.59,1.24,47.56,10.87,55.75,14.74Z"/><path class="cls-135" d="M156.26,630.42c.32.23.58.48.65.77,2.5,11-3.34,50.97-7.34,62.24-1.82,5.13-4.84,9.27-10.48,10.29-2.12.38-6.6.98-6.83-1.3l2.5-1-3.49-.98c7.27.26,11.5.94,13.57-6.94,3.27-12.43,3.64-30.19,5.56-43.43,1.04-7.19,2.82-14.43,3.86-21.64.43.65,1.29,1.83,2,2Z"/><path class="cls-57" d="M423.26,779.42l2.5-1-3.49-.98c6.72.22,11.61,1.15,14.32-6.19,3.08-22.55,7.18-45.17,8.69-67.82l1,1.99c1.13.17.93-.96.99-1,.24-.15.77.15,1,0,.35.24.65.5.74.82,3.13,11.05-5.05,53.14-8.11,66.35-1.69,7.28-12.07,12.28-17.63,7.83Z"/><path class="cls-136" d="M242.26,644.42c-1.62,1.71-3,.73-4.76.31-13.77-3.31-28.4-8.64-42.05-11.11-1.72-.31-3.63.78-4.04.62-.24-.09-.09-2.57-3.73-2.84-.68-.05-9.54,6.66-11.7,6.97-4.34,18.06-5.23,37.18-8.7,55.57l.99,14.49c-3.27-2.05-3.44-8.05-3.44-11.92,1.06-10.16,2.54-20.19,4.44-30.08,5.01-11.32-1.56-38.79,17.22-36.77,10.4,1.12,45.51,10.83,55.78,14.77Z"/><path class="cls-127" d="M380.26,474.42c-.12,2.81.22,5.68-.01,8.49-1.34,16.51-4.35,38.46-7.13,54.87-1.37,8.08-2.19,13.05-11.48,14.6-18.37-4.17-38.39-7.93-56.38-13.46-1.37-.42-4.78-.89-5-2.49,18.35,2.82,36.83,9.95,55,12.99.57.1,1.42.99,3.41,1.1,4.55.24,10.21-.72,11.32-5.86,2.72-24.72,8.32-49.37,8.27-74.23,1.03,1.4,1.26,2.76,2,4Z"/><path class="cls-16" d="M309.26,428.42c2.07,1.06,4.97,1.35,7,2l1.21-.81c15.93,4.49,31.94,8.69,48.01,12.59,9.12,1.6,13.99,1.74,16.65-7.93,5.65-20.55,7.2-45.69,8.13-66.85-.47-1.22-.89-3.83-1-4,.28-.87.62-.86,1,0,5.5,9.34,2.07,22.94.86,33.36-.96,8.26-3.97,37.52-6.99,43.01-4.54,8.22-11.33,6.64-18.88,5.14-14.02-2.78-35.41-7.79-48.77-12.23-2.54-.84-5.78-1.79-7.22-4.28Z"/><path class="cls-83" d="M198.26,508.42c1.29.4,2.74.52,4,1,11.9,4.56,39.22,12.14,51.76,13.74,9.28,1.19,14.66-.21,17.98-9.51,1.04-18.88,7.7-40.27,8.3-58.78.09-2.68-.76-4.88-1.04-7.45.17-.02.21-1.26.99-1-.06,1.59.73,3.07.89,4.62,1.24,11.57-4.39,48.13-7.03,60.73-2.15,10.25-7.12,14.72-18.1,13.39-12.05-1.46-36.66-8.38-48.75-12.24-3.9-1.25-6.15-1.39-9-4.5Z"/><path class="cls-21" d="M474.26,492.42c1.28,1.79,3.15,2.61,3.77,5.73,1.88,9.4-4.48,53.44-7.03,64.51-1.69,7.36-4.36,12.02-12.37,12.66-8.84.71-46.95-9.99-57.6-13.18-1.93-.58-3.79-1.39-5.78-1.74l1-.99,54.76,13.74c13.11,1.68,16.54-2.51,18.95-14.54,2.86-14.28,6.45-37.39,7.28-51.72.34-5.91-.17-5.88-1.98-10.49-.43-1.1-.52-3.26-1-4Z"/><path class="cls-9" d="M270.26,740.42c-.49-.3-.48-.64,0-1,1.49.89,2.92,1.38,4.55,1.94,11.92,4.12,37.99,10.74,50.4,12.61,2.58.39,5.47.8,8.06.45l7.05-6.26c4.73-22.91,8.05-45.82,9.95-68.74-.25-.65-.65-1.38-1-2,4.94.68,4.16,8.93,3.98,12.49-.64,12.47-5.04,42.82-8.28,54.71-2.26,8.32-7.28,12.33-16.08,11.68-10.12-.75-43.16-9.78-53.63-13.38-2.47-.85-3.02-1.39-4.99-2.51Z"/><path class="cls-148" d="M492.26,582.42c.67.33,1.35.64,2,1,6.61,3.63,45.33,13.67,53.76,14.74,12.24,1.55,17.5-1.51,19.97-13.51,2.73-13.26,7.01-41.65,7.31-54.78.07-3.03-1.08-5.51-1.04-8.45,2.82.78,2.14,10.98,1.99,13.49-.72,11.56-3.31,27.14-5.13,38.87-1.7,10.97-1.31,25.21-15.48,26.54-7.03.66-49.49-10.58-58.16-13.62-1.76-.62-3.34-1.07-4.83-2.3-1.65-1.35-.32-1.9-.38-1.98Z"/><path class="cls-80" d="M366.26,764.42v-1c2.3,1.74,6.91,2.78,9.78,3.72,13.79,4.49,33,9.51,47.22,12.28,1.26.25,1.89,1.19,4.47,1.1,5.92-.19,11.3-4.68,12.84-10.28,1.34-18.99,8.06-40.73,8.72-59.36.08-2.23-.96-4.26-1.04-6.45.06-.04-.13-1.17.99-1,.09,1.24.75,2.35.91,3.59,1.33,10.22-4.71,47.03-7.06,58.74-2.55,12.67-6.13,17.18-20.08,15.4-11.15-1.41-39.62-9.4-50.53-13.46-2.75-1.02-3.86-1.51-6.22-3.28Z"/><path class="cls-39" d="M278.26,632.42c.19.32,3.25,2.47,4,3,17.41,5.05,35.06,9.75,52.95,14.13,15.97,3.05,18.17-.11,21.3-15.3,3.78-18.34,6.35-38.25,6.65-56.86l1.1-.97c.28-.87.62-.86,1,0,1.24,4.12,1.22,8.23.99,12.49-.5,9.09-5.8,50.67-8.94,57.05-3.74,7.6-9.56,8.24-17.29,7.2-11.94-1.61-39.98-9.19-51.77-13.23-6.13-2.1-6.7-2.12-9.99-7.51Z"/><path class="cls-37" d="M89.26,588.42c-1.33-1.41-.77-1.92,1-1,1.47-.18,2.93-.31,4.4-.3s2.88.05,4.24.36c12.22,2.84,24.51,5.93,36.63,9.14,1.35.36,2.64.96,3.94,1.59s2.56,1.41,3.8,2.21l.93-.62c5.37,3.48,14.97-1.15,16.06-6.89,4.07-21.38,7.42-43.78,8.78-65.36l1.23-1.13c-1.36-1.5-.76-2.06,1-1,1.09,3.31,1.17,7.98.98,11.49-.71,13.64-4.43,37.18-7.1,50.89-2.18,11.14-5.82,16.81-18.28,15.51-17.81-1.85-39.52-11.77-57.6-14.89Z"/><path class="cls-134" d="M409.26,455.42l59.61,14.9c6.21,1.17,12.5-2.52,14.12-8.67,1.39-18.72,6.78-38.35,8.14-56.86.31-4.17.49-8.35-.87-12.37.28-.87.62-.86,1,0,.39,1.22.84,1.91,1.01,3.45,1.31,12.26-4.37,50.66-7.28,63.77-1.78,8.02-6.03,12.79-14.96,12.52-7.26-.22-47.82-11.06-55.98-14.02-2.21-.8-2.99-1.25-4.78-2.72Z"/><path class="cls-3" d="M479.26,687.42c1.8,1.6,4.16,1.4,6,2,12.68,4.1,39.28,12.7,51.62,13.9,15.45,1.51,16.34-9.91,18.24-21.54,2.14-13.15,5.42-31.98,6.12-44.87.22-4.05-.12-7.58-.98-11.49,1.9,1.5,2.73,6.1,2.79,8.5.29,11.38-4.73,40.48-6.93,52.86-2.49,14.02-7.02,19.29-22.11,17.38-11.51-1.45-32.85-7.9-44.52-11.48-2.75-.84-8.97-2.48-10.69-4.25-.33-.34.49-.97.46-1.02Z"/><path class="cls-159" d="M463.26,600.42c1.38,3.93,1.25,9.29.99,13.49-.81,12.85-3.9,31.82-6.28,44.72-1.85,10.06-3.75,21.33-16.72,20.38-17.77-1.3-39.91-11.89-58-14.63.15-.4,1.02-.89,1.01-.96l55.63,13.92c14.83,1.22,15.36-12.41,17.23-23.56,2.08-12.37,5.46-30.84,6.13-42.87.21-3.75-.23-6.88-.98-10.48.28-.85.62-.83,1,0Z"/><path class="cls-31" d="M78.26,690.42c-.57-.3-.56-.63,0-1,18.18,3.27,35.81,9.87,54,13,.63.11,1.39,1.09,3.43,1.11,9.18.06,12.98-7.96,14.45-15.73,2.47-12.96,6.77-38.45,7.02-50.99.04-2.16-1.18-4.19-.9-6.39.07.02.53-.89.98-1.01.82,3.62,1.16,6.75,1.01,10.5-.5,12.34-4.36,39.72-7.24,51.76-2.53,10.55-8.58,13.81-19.15,12.64-9.26-1.02-45.4-10.14-53.6-13.89Z"/><path class="cls-24" d="M185.26,610.42c2.16,1,4.95,1.31,7,2l.95-.77c15.88,4.65,31.9,8.74,48.07,12.28,11.34,2.69,15-1.01,17.23-11.49,4-18.83,5.78-39.22,7.46-58.45l1.29-.57c-1.16-1.71-.66-2.25,1-1,.4,1.47,1.05,5.94,1.04,7.46-.08,12.26-4.68,41.17-7.3,53.78-2.3,11.09-7.58,14.97-18.99,13.5-12.07-1.56-37.89-8.3-49.76-12.23-3.67-1.22-5.29-1.65-7.99-4.51Z"/><path class="cls-37" d="M294.26,343.42c1.47,3.06,1.19,9.92.99,13.49-.8,13.94-3.68,33.94-6.16,47.84-2.25,12.62-4.41,18.18-19.08,16.41-12.73-1.54-39.81-9.21-52.77-13.22-1.59-.49-3.33-.64-3.98-2.52,2.91.97,7.2,1.24,10,2,16.78,2.8,33.41,6.61,49.88,11.43,4.46.49,8.92-1.77,10.49-6.13,4.73-21.98,8.78-45.79,8.09-68.56-.02-.77.75-1.35,1.54-1.74.68.35.61.19,1,1Z"/><path class="cls-146" d="M174.26,715.42c-.57-.3-.56-.63,0-1,.62.11,1.5-.17,2,0,12.51,4.15,43.64,13.82,55.78,14.8,10.26.82,13.21-6.13,14.94-14.57,2.83-13.78,6.7-38.99,7.29-52.76.13-3.07-.56-5.54-1.02-8.47,3.1,1.34,2.21,10.24,1.99,13.49-.87,12.8-3.83,31.01-6.15,43.85-2.08,11.48-3.55,20.99-18.22,19.57-9.14-.89-48.51-11.04-56.61-14.9Z"/><path class="cls-61" d="M366.26,764.42c-7.21-5.43-7.5-11.99-7.04-20.54.74-13.82,3.84-33.89,6.18-47.82,4.33-25.67,15.86-17.14,35.5-12.77l-.64,1.12c-13.81-3.43-29.05-11.54-32.85,7.65-2.83,14.28-6.45,39.51-7.13,53.86-.28,5.87-.06,8.49,2.98,13.49.54.89,2.39,3.54,3,4v1Z"/><path class="cls-17" d="M572.26,495.42c-1.03.09-1.38.06-1-1l.34-1.45c6.39-1.73,8.25-7.04,9.25-13.18,3.39-20.86,5.8-42.8,7.41-63.37v-2c3.82,5.46,3.41,8.57,2.99,15.49-.83,13.5-4.23,40.69-7.45,53.55-1.8,7.18-4.38,10.15-11.54,11.96Z"/><path class="cls-130" d="M265.26,546.42c.69.88,2.7,4.91,3,6-.48.11-.93.53-1,1-1.36.75-2.03-.25-2-3-1.69-3.17-3.58-6.14-7-8-5.32-2.9-48.49-13.85-55.75-14.74-2.8-.34-8.97-.73-11.25.74,5.5-3.96,7.24-2.73,14.05-1.55,11.91,2.05,40.11,8.83,50.93,13.07,2.61,1.02,7.39,4.4,9.02,6.48Z"/><path class="cls-110" d="M78.26,609.42c-5.49,21.01-6.51,43.04-10.05,64.46.84,6.79,4.72,11.66,10.05,15.54v1c-4.47-2.05-10.13-8.24-11-13-.34-1.88-.1-5.41.01-7.49.8-14.81,4.4-36.92,7.28-51.72.45-2.33,1.19-8.02,2.7-9.35.43-.38.96.59,1.01.55Z"/><path class="cls-42" d="M463.26,600.42h-1c-.33.02-.67-.03-1,0-1.33-3.35-4.06-6.01-7-8-21.14-5.8-42.37-12.66-64-16-.01-.14-.91-.5-1.01-.98,2.76-.07,5.5-.16,8.26.24,11.54,1.67,44.78,10.25,55.28,14.72,4.08,1.74,8.96,5.69,10.47,10.03Z"/><path class="cls-160" d="M365.26,576.42h-1c-1.14,1.31-1.81.65-2-2-3.01-4.99-3.57-5.83-9.46-8.04-9.5-3.56-46.18-13.35-55.54-13.96l-5-1.99c1.76-.13,3.49-.04,5.23.25,12.69,2.1,45.65,10.18,57.02,14.98,5.17,2.18,9.04,5.11,10.74,10.76Z"/><path class="cls-96" d="M213.26,328.42l-7.89,60.6c.08,7.22,3.56,10.71,6.89,16.4-.55-.18-1.57-.67-2-1-4.5-3.51-6.17-12.06-6.05-17.53.41-18.65,7.17-40.46,8.07-59.48.47.1.91,1.02.98,1.01Z"/><path class="cls-91" d="M508.26,479.42l1.55-.7c20.01,6.64,40.25,11.47,60.74,14.49l.71,1.21,1,1c-2.73.69-2.59,1.22-6.25.74-13.03-1.69-38.96-8.88-51.97-13.03-3.6-1.15-4.99-1.04-7.79-3.71.61.12,1.54-.18,2,0Z"/><path class="cls-5" d="M474.26,492.42c-.25-.39-3.3-2.61-4-3-7.19-3.97-51.29-15.36-60-16,.96-1.85,3.52-.87,5.05-.56,13.67,2.71,39.3,8.45,51.74,13.28,5.77,2.24,4.27,2.18,7.22,6.28Z"/><path class="cls-141" d="M272.26,438.42h-1c-4.69-2.64-49.02-13.92-55.75-14.74-4.88-.59-7.79-.23-12.25,1.74,2.49-2.78,5.35-4.09,9.21-3.8,8.63.66,48.02,11.06,56.62,14.49,2.16.86,2.39,1.86,3.16,2.31Z"/><path class="cls-30" d="M169.26,522.42c.57.86,1.74,2.2,2,3-.26.3-.99.76-1,1-1.23,1.14-1.9.47-2-2-1.97-.13-3.92-1.64-5.85-4.53-16.79-6.54-34.19-11.3-52.22-14.28l-.93-2.2c.96-1.9,3.37-.66,4.83-.34,12.61,2.71,33.78,7.34,45.39,11.62,4.35,1.6,7.21,3.86,9.78,7.72Z"/><path class="cls-72" d="M191.26,528.42c-.63.4-2.8,4.29-3.2,5.3-3.38,8.63-9.02,50.83-8.8,60.7l-1-2c.39-4.75.57-9.63,1.13-14.37.99-8.43,5.15-43.16,8.99-48.05,1.27-1.61,2.3-1.16,2.88-1.58Z"/><path class="cls-34" d="M390.26,362.42c.15.22-.15.75,0,1h-1c-.26-.4-4.2-3.53-5-4l-2.31,1.03c-15.33-5.26-31.04-9.43-47.13-12.49l-2.56-2.54c.96-1.9,3.37-.66,4.83-.34,12.51,2.69,28.08,6.12,40.16,9.85,4.41,1.36,10.27,3.55,13.01,7.49Z"/><path class="cls-25" d="M97.26,604.42c12.78,2.8,27.64,8.21,40.97,11.54.84.21,4.61.33,2.03,1.46-15.99-4.95-34.55-7.25-50.63-12.91-3.04-.63-5.87.3-8.37,1.91-2.19-.72,1.53-2.46,1.95-2.55,4.49-.9,9.6-.43,14.05.55Z"/><path class="cls-131" d="M573.26,520.42c-2.23-2.4-4.05-5.33-7-7-7.98-4.51-34.61-9.57-45-12,.98-1.85,3.51-.9,5.04-.55,8.55,1.91,35.98,8.15,41.89,12.12,1.58,1.06,7.44,6.11,5.07,7.43Z"/><path class="cls-67" d="M586.26,410.42v1c-2.26-2.13-4.88-3.58-7.78-4.72-12.32-4.82-36.64-9.73-50.22-12.28.97-1.85,3.51-.85,5.05-.56,12.53,2.38,32.04,6.98,43.96,11.06,3.29,1.12,7.28,2.18,8.99,5.51Z"/><path class="cls-106" d="M508.26,400.42c-2.23,18.31-5.31,36.63-7,55l-1-1c.26-2.02-.26-4.36.01-6.48,2.1-16.2,4.6-32.39,7.01-48.54.43.14.9,1.02.98,1.01Z"/><path class="cls-78" d="M276.26,655.42c.05-.25-3-1.17,2.59-1.9,13.5-1.76,38.48,10.55,52.97,11.86l-.56,1.04c-11.64-3.45-35.53-10.43-46.76-11.75-3.05-.36-5.35-.34-8.24.75Z"/><path class="cls-99" d="M169.26,666.42c.24,12.56-7.89,31.51-1,42,1.73,2.63,3.7,4.02,6,6v1c-19.18-9.14-5-35.92-5.99-52,1.66-.27.97,1.9.99,3Z"/><path class="cls-49" d="M84.26,549.42l1.8,1.69c-4.12,13.56-2.73,24.83,4.17,33.81l.04,2.5-1,1c-1.78-.9-5.02-4.3-6-6-6.43-11.18.27-23.51,0-35.5l1.01,2.5Z"/><path class="cls-56" d="M491.26,524.42c.41,11.03-3.33,25.38-4.98,36.53-.31,2.09.25,4.46-.02,6.47-.1.73-1.64,2.41-1.01,4-1.72.25-1.06-2.37-.98-3.48,1.17-15.51,5.78-30.92,6-46.51,1.67-.27.95,1.89.99,2.99Z"/><path class="cls-86" d="M569.03,384.22c-.11.19-3.49,2.76-4.29,1.21-.46-.9.79-4.27-.49-6.01-.98.52-9.08,3.06-8.97.51.17-4.06,7.32-1.45,8.42-1.45.68,0,.06-2.98,2.91-1.91,2.58.96,3.66,5.59,2.42,7.66Z"/><path class="cls-121" d="M265.26,701.42c.45,12.26-8.5,29.97,5,38v1c-16.23-9.2-5.33-27.2-5.99-42,1.67-.27.95,1.89.99,3Z"/><path class="cls-69" d="M201.26,428.42c-3.47,13.94-4.3,28.68-6,43l-1-1c.61-5.24,3.53-42.57,6.5-42.98.37-.05.59.53.5.98Z"/><path class="cls-90" d="M487.26,385.42c1.63,2.28,3.13,4.26,4,7h-2c.37-10.75-25.29-14-33-16,.96-1.9,3.37-.66,4.83-.34,8.66,1.86,19.34,3.69,26.17,9.34Z"/><path class="cls-95" d="M279.26,595.42c-.98,7.87-3.88,23.48-2.94,30.44.07.54,1.77,6.26,1.94,6.56-7.26-11.9.28-26.37,0-39.5l1.01,2.5Z"/><path class="cls-86" d="M556.77,383.43c1.96-.46,4.62,4.3,1.98,4.98-3.92,1.01-4.51-4.39-1.98-4.98Z"/><path class="cls-64" d="M360.26,94.42l-1.49,1.99,41.48,11c-16.5.46-27.89,12.81-41.62,18.89-3.65,1.61-17.63,5.07-18.91,7.1-2.21,3.54,1.75,4.94,2.95,7.09,2.12,3.78,1.66,10.71,1.26,15.12-.33,3.69-2.56,19.37-5.19,20.8l-1.5-1c-1.99-1-4.87-6.51-5-9,.46-10.9-.5-21.76-2.86-32.59,6.65-12.32,4.06-15.96-7.75-10.91-1.04,2.26-3.05,4.85-3.38,1.5.66-3.18,1.23-5.42,2-8,3.09-8.58,7.09-16.58,12-24,.32-1.92,2.32-5.37,4.53-5.47,1.89-.09,17.72,3.83,20.73,4.79l2.74,2.69Z"/><path class="cls-76" d="M240.26,67.42c3.8.89,7.29,2.01,11,3-.29,2.84-2.45,4.86-6.49,6.04-15.47,6.45-31.01,14.22-44.07,24.67,4.86,11.1,2.5,24.37-.11,36.24l-2.34,1.05c-2.73,1.09-5.03-3.03-3-5-1.81-7.37-2.12-15.14-.92-23.32-2.22-6.56-.46-13.29,1.22-19.68h-10.91s-1.38-2-1.38-2c-.89-2.55.73-6.12,2.16-8.6,12.51-2.2,22.75-10.41,32.3-18.31,3.45-1.15,19.19,3.85,22.54,5.91Z"/><path class="cls-82" d="M251.26,70.42c4.84,1.3,12.34,1.42,16,4.99-5.01,1.03-9.39,5.03-13.98,7.53-8.81,4.8-23.63,12.33-33.02,14.98-2.77.79-15.19,2.46-15.97,3.55-1.55,2.17,5.07,8.45,5.73,11.68,1.32,6.48-1.51,27.02-4.57,32.97-.66,1.29-1.74,2.86-3.19,3.3-.1.02-.23-8.49-2.01-6-2.87.54-4.29-3.33-2-5,2.14-7.85,4.11-21.33,2.91-29.41-.97-6.53-6.48-6.66,1.75-12.42,6.82-4.78,18.9-11.55,26.46-15.54,7.13-3.77,15.3-5.76,21.88-10.62Z"/><path class="cls-88" d="M653.26,166.42c4.2,1.18,8.91,2.07,12.99,3.52.96.34,2.3.11,2,1.46-1.2.09-2.68.18-3.73.77-10.21,5.77-25.48,13.6-36.28,18.72-3.56,1.69-18.74,5.31-19.56,6.47-1.77,2.5,2.03,5.33,2.77,7.35,3.45,9.48,1.76,22.48-1.45,31.94-.55,1.61-1.03,3.04-2.74,3.75-.61-2.41-.71-3.61-1,0-1.88-.95-4.33-6.71-4-9,2.99-12.31,2.92-24.09-.95-36.04l.95-2.17,46.12-26.34,4.88-.46Z"/><path class="cls-11" d="M229.26,62.42c2.98.43,5.93.64,8.85.62l1.15,2.38c.91.22,1.63.91,2,1l-1,1c-3.86-.9-18.35-5.47-21.05-4.45-1.57.6-9.37,7.86-12.25,9.64-3.6,2.23-11.27,6.26-15.14,7.86-2.05.85-5.32.59-6.57,1.42-1.67,1.11-1.46,4.83-1.98,6.52,3.77,2.17-1.67,7.29-2,3,3.44-15.29,5.95-21.26,15-34,2.29-6.28,30.46,1.32,31.94,2.68.71.65.93,1.22,1.06,2.32Z"/><path class="cls-85" d="M164.26,160.42l12.71,5.8c10.44.4,14.44-8.89,13.19-18.21l-10.91-26.57,10,7.99c1.63-2.29,2.33-1.53,3,1,1.52-1.46,2.52-.46,3,3,.38.46,2.7,4.35,3,5s1.89,4.56,2,5c2.19,8.6.51,22.46-9,26-.81,3.1-5.28,3.83-7,1-7.17.35-18.23-2.73-20-10Z"/><path class="cls-120" d="M357.26,72.42c7.41-1.05,11.43,20.34,8.41,22.33-.43.28-.91.49-1.41.67-1.34-.33-2.68-.68-4-1-8.44-2.05-17.14-3.23-25.41-6.04l-2.59,4.04c-.3.58-.63.57-1,0,3.87-6.23,9.18-15.25,16-19,2.66-1.72,8.41-4.58,10-1Z"/><path class="cls-115" d="M324.26,160.42l-.76.55c13.69,6.05,17.3,23.74,10.76,36.45-1.9,2.55-3.59,4.43-7,5-1.11,3.83-6.2,2.02-8,0-5.06,1.22-15.82-2.51-16-8l14.35,5.04c3.81-3.91,8.47-3.45,9.59-10.6,1.73-11.07-3.4-14.49-6.64-23.23-1.35-3.64-4.02-12.02-4.34-15.68-.07-.79-.3-3.66,1.03-2.01.08,6.04,2.63,9.02,7,12.49Z"/><path class="cls-40" d="M420.26,206.42c1.62,5.25,1.24,9.09,4.56,13.94,5.78,8.42,15.15,14.29,25.44,15.05l-2-2.99,1.2-.67c5.6,1.64,11.2,2.2,16.8,1.67-.24.28-.13,1.74-.94,2.52-18.92,18.28-51.91-5.93-45.06-29.52Z"/><path class="cls-54" d="M148.26,140.42c.36,19.95,17.66,29.94,36,30,2.02-.31,5.16-.32,7-1,2.22,3.23-5.95,6.88-7.98,7.51-17.61,5.48-36.41-10.39-38-28.02-.4-4.42,1.06-8.3.99-11.49h1c.36.93.52,1.9,1,3Z"/><path class="cls-18" d="M553.26,235.42c.14.31.81.62,1,1-1.07,20.73,21.56,35.64,40,29,.78-1.31,4.73-2.89,6-2-.27.37-.2,1.59-.95,2.51-18.97,22.94-48.78-.92-48.84-26.02,0-1.35.24-5.24,2.79-4.48Z"/><path class="cls-111" d="M286.26,174.42c-.31,18.48,16.8,27.78,33,28,2.51-.28,5.62.4,8,0,2.01,4.74-9.36,7.85-12.46,8.06-7.9.55-20.59-5.38-25.36-11.74-5.62-7.49-8.03-18.25-5.18-27.32.38.75,1.38,1.92,2,3Z"/><path class="cls-2" d="M374.26,96.42c-.88.68-2.21,1.02-4,1-2.15-.53-4.34-1.59-6-2,.96-8.04-.67-17.53-7-23-.4-.76-.49-1.69.1-1.9,9.6-3.35,20.88,17.8,16.9,25.9Z"/><path class="cls-107" d="M595.26,225.42c2.82-1.99,3.95.03,4,3,1.96-2.26,4.63.68,3,3,.31.48,3.84,8.42,4,9,2.89,10.59-.27,15.14-6,23-1.87.76-3.98,1.83-6,2-3,3.14-8.19,1.51-12,.27s-11.34-4.18-11-8.27l14,5c12.44.26,19.75-4.21,17.9-17.69-1.14-8.3-5.27-13.55-12.01-18.26-.75-.93-.45-2.02.11-3.06,1.27.72,2.78,1.21,4,2Z"/><path class="cls-145" d="M460.26,193.42c3.03-2.13,3.95-.09,5,3,2.76-1.79,6.88,3.46,5,6,.84,1.41,2.7,5.58,3,7,2.35,11.2-.13,16.1-7,24-5.9,1.87-12.37,1.29-18-1-3.02-1.23-4.77-3.46-7-5,4.06,1.3,6.64,3.02,11,4,12.28-.58,19.8-1.63,17.87-17.08-1.09-8.79-5.65-14.21-12.26-19.55l.39-2.37c.55.42,1.45.58,2,1Z"/><path class="cls-109" d="M324.26,160.42c.2.16.8-.16,1,0,2.42-1.51,3.71-.78,3,2,2.95-1.43,5.46,1.1,4,4,1.44,1.89,4.42,6.91,5,9,2.02,7.23,1.55,15.92-3,22l2.02-8.48c1.13-11.15-1.7-18.05-9.51-25.53-1.02-.98-7.49-2.88-2.51-2.99Z"/><path class="cls-105" d="M374.26,96.42c.88-.83,1.91-1.24,3.09-1.39,1.52-.18,17.82,4.75,20.66,5.83l2.25,2.56c.32.07.68-.06,1,0,.46.09.85.55,1,1-10.29-.85-21.56-4.4-32-7,.53-1.34,2.87-1.22,4-1Z"/><path class="cls-113" d="M109.26,503.42c11.39,1.94,41.35,8.95,51.29,13.21,4.66,2,5.42,3.96,7.71,7.79,1.01,3.01,1.22,6.22.64,9.61l-6.88,47.13c-1.81,12.06-3.77,22.5-18.76,19.26-17.77-3.86-35.33-8.75-53-13-12.2-8.15-7.56-25.39-6-38,1.21-9.75,3.45-30.84,6.26-39.23.95-2.84,2.78-3.72,3.74-5.77,4.85-3.39,9.76-1.89,15-1Z"/><path class="cls-1" d="M138.26,404.42c9.99.85,20.48,3.75,30,7,6.56,1.95,8.61,2.83,13,8,1.3,4.03,1.34,8.35.11,12.96l-8.68,58.58c-2.71,6.84-9.02,6.5-15.25,5.6-13.99-3.23-27.91-6.8-41.75-10.7l-2.43.55c-3.35,1.24-9.1-1.39-12-4-.32-.23-.61-.69-1-1-5.61-7.4-6.95-16.4-4-27l5.01-38.72c.48-4.47,1.81-8.56,3.99-12.28.4-.38,3.77-2.9,4-3,7.17-3.18,21.15,2.19,29,4Z"/><path class="cls-58" d="M113.26,323.42l1.68,2.29-3.6,25.15c-1.5,9.49-2.02,17.39,2.54,25.82l-1.62,1.74c-1.88-1.68-3.69-4.77-4.32-7.18-2.17-8.25,2.82-38.52,4.32-48.82l1,1Z"/><path class="cls-26" d="M96.26,454.42c.77-12.94,2.35-31.85,5.25-44.25.8-3.43,1.31-4.45,3.75-6.75-4.85,14.22-4.79,29.61-7.14,44.35-.39,2.41-1.55,4.91-1.86,6.65Z"/><path class="cls-112" d="M100.26,481.42c-.86-.68-1.79-.81-3-2-4.88-8.69-2.57-16.29-1-25-.62,10.33-2.23,17.84,4,27Z"/><path class="cls-73" d="M669.26,728.42c3.25-2.08,5.88-3.96,8.36-7.48,5.15-3.67,9.28.45,7.68,6.22,12.75,21.11,3.62,53.37-9.08,73.13-40.88,63.59-106.97,93.54-179.96,66.13l-4.62-.27c-136.45-38.29-272.8-75.37-409.06-111.26-4.42-1.28-13.33-3.97-16.61-6.81-5.68-4.91-2.09-6.78,3.29-5.66,2.62.88,5.18,1.89,8,2l.29,1.51c9.4,4.2,20.51,7.82,31.11,10.68,131.7,35.44,266.74,71.86,399.44,108.32,25.1,5.19,49.35,8.62,73.91-.06,29.49-10.43,61.61-39.12,77.48-65.71,4.93-8.27,8.14-14.17,3.94-23.12,2.05-11.14-2.84-1.91-4.92,3.21l-2.26.18c.52,3.59-3.08,3.47-2,0,5.53-8.45,10.36-21.06,12-31l.98.5c1.29-6.74,1.25-13.7,2.02-20.5Z"/><path class="cls-43" d="M669.26,728.42c.66-5.87.88-17.04,2.54-21.96.51-1.51,7.14-8.91,8.48-9.52,6.27-2.9,5.61,2.91,7.23,4.24,1.23,1.01,4.66.4,6.24,2.27s1.09,5.83,2.01,7.99c1.24,2.93,4.02,5.73,5.03,8.97,9.48,30.46-9.27,72.2-28.52,95.52-44.52,53.93-101.07,75.08-170,53.5-3.05-.45-5.05-1.45-6-3,23.73,4.97,47.93,11.63,72.36,7.86,39.49-6.09,72.36-30.89,95.99-61.51,5.7-7.39,14.84-19.35,17.97-28.53,5.79-17.01,10.08-35.42,3.45-53.09-.5-1.34-2.28-2.22-2.62-3.47-.54-1.96,1.85-5.19-1.84-6.15-4.04-1.05-5.92,9.52-12.3,6.89Z"/><path class="cls-33" d="M57.26,737.42c3.91,1.75,7.94,3.64,12,5l-4.99,1.49c8.77,9.02,22.29,9.93,33.77,13.23,112.12,32.18,225.52,61.01,338,92,20.25,5.58,40.23,10.85,60.21,17.29,1.53.49,4.55,2.55,6,3-3.79-.48-8.4-1.4-12.03-2.47-104.2-30.87-209.86-57.8-314.76-86.24-32.29-8.76-70.01-16.1-101.02-26.98-7.96-2.79-20.03-7.99-23.19-16.3h5.99Z"/><path class="cls-120" d="M674.26,664.42c2.41,2.51.47,11.83,0,6,.2-1.95-.2-4.05,0-6Z"/><path class="cls-123" d="M705.26,332.42c-5.31,5.1-3.35,6.16-6.29,12.21-1.68,3.45-4.41,5.49-5.77,9.23-7.6,20.98-11.11,65.4-13.93,89.07-10.63,89.22-19.85,178.7-30,268-2.86,25.2-2.81,58.4-10.67,82.33-1.62,4.93-5.98,4.84-7.34,9.16,1.42,2.68-2.85,4.86-5,3l-1.68-1.4,5.42-18.75c15.55-121.56,30.94-244.63,44.91-364.7,1.51-12.98,2.82-25.96,4.05-38.96.82-8.7,1.54-17.67,1.23-25.9-3.62,3.75-12.97,6.78-16.93,3.73,4.66-4.38,9.99-8.05,16-11,8.25-5.56,16.84-11.59,26-16Z"/><path class="cls-143" d="M656.26,779.42c3.09-3.7,9.31-.11,9.48,4.83.31,9.1-18.09,32.1-23.8,38.15-30.69,32.5-61.62,51.59-107.12,46.89-4.49-.46-30.42-3.97-32.94-7.33-5.01-6.67,5.57-3.47,9.13-2.35l2.26-.19c2.96.23,7.32.8,10,2-5.06.44-2.4.77,8,1,39.52,7.35,78.19-17.77,101.9-47.87,1.48-5.7,4.56-10.97,9.23-15.81-4.09,2.31-5.8,2.2-5.13-.32,6-5.62,12.47-12.08,17-19l.48.68c.59.09,1.28-.71,1.52-.68Z"/><path class="cls-102" d="M637.26,798.42c.77,2.34,2.49-2.81,5.48-2,.75.2,1.56,1.54,1.55,2.51,0,1.06-7.64,10.35-8.52,12.54-1.81,4.47,1.35,1.62-3.49,7.43-21.84,26.21-56.01,48.95-91.56,46.56-2.62-.18-8.07-.48-9.46-3.04,5.69-.68,11.51-1.13,17.27-1.51.07,0-1.34.25-1.27-.49.83-1.21,1.84-2.31,3.22-2.86,28.61-11.45,56.68-26.44,73.47-52.67l2.31.53c.82-.75,3.67-2.14,5-3,2.01-1.3,4.21-2.3,6-4Z"/><path class="cls-108" d="M638.26,360.42c8.16,2.11,15.5,1.44,22-2,6.86-2.48,12.13-7.61,19-10-5.33,3.59-10.59,7.5-16,11-.49,3.93-8.29,6.81-12,5-1.14-.32-3.23.04-5.02-.45-102.69-27.89-206.85-52.27-310.16-77.87-89.77-22.24-182-41.85-271.03-65.97-3.73-1.01-9.57-1.87-11.79-4.71,195.23,47.37,390.26,95.7,585,145Z"/><path class="cls-23" d="M660.26,358.42c-5.48,6.41-14.91,3.73-22,2l15.6.05c1.01.35,2.06-.99,2.4-1.05,1.23-.23,2.86-.59,4-1Z"/><path class="cls-60" d="M663.26,359.42c3.57-1.12,8.42-.99,12-2.5,3.01-1.27,3.92-4.17,6.99-4.5-.1,3.48.18,7,0,10.49-2.27,43.25-10.18,92.22-15.12,135.88-10.82,95.69-22.37,191.4-35.17,286.83l-5.7,19.8c-3.55,3.21-7.42,10.48-11.03,14.47-7.31,8.09-21.63,18-31.06,23.94-11.54,7.26-23.63,13.19-36.91,16.59-1.63.95-4.62,1.28-6,0-.1-2.93,1.45-2.51,3.43-3.08,57.76-16.61,63.2-48.63,70.57-102.92,9.93-73.09,18.27-146.85,27.13-220.37,5.81-48.19,14.26-97.86,17.86-146.14.2-2.65,1.12-15.76.6-17.52-1.31-4.48-4.49-3.42-7.66-4.45-1.02-.33-1.72-1.47-1.93-1.53,4.52-.64,8.03-3.75,12-5Z"/><path class="cls-104" d="M213.26,40.42l11.01-5.56c4.23-.93,12.63,2.27,16.32,4.72,4.67,3.1,6.48,8.39,11.13,10.83,3.58-2.6,1.52-5.25,1.5-8.47,0-1.19-.47-3.32,1.52-2.52,5.07,2.04,12.85,25.18,8.51,30.99-5.73-.76-13.07-4.15-19.19-5.36-1.72-.34-3.28-1.33-4.81.36-3.39-.82-6.93-2.26-10-3-.87-.28-.86-.62,0-1l1.79-1.44c11.79,2.63-2.57-21.47-9.79-20.56-.31,2.84-6.67,3.17-8,1Z"/><path class="cls-120" d="M221.26,39.42c4.5-.36,6.53,4.13,7.97,7.8,1.33,3.41,3.59,12.46.03,14.2v1c-6.14-1.48-20.43-5.67-25.63-5.95-2.57-.14-4.81,1.15-7.37.95,4.55-6.4,9.14-13.92,17-17,2.81-1.1,5.19-.81,8-1Z"/><path class="cls-156" d="M183.26,88.42h15c-1.9,7.72-4.43,12.99-1.95,21.45l-1.05,23.55c-.21-.26-2.83-2.88-3-3l-1.17-.71c-.82-11.25-2.59-22.1-5.31-32.52l-2.68-1.6c-1.23,3.11-3.86,2.87-2.84-.17-.89-2.24.95-3.78,1-4l.98,1.01c-.2-1.5.61-2.7,1.02-4.01Z"/><path class="cls-128" d="M152.26,146.42c3.55,5.3,6.86,9.72,12,14,6.13,5.1,12.27,8.04,20,10-2.13.32-4.39,1.01-6.47,1.05-14.47.31-35.12-14.81-29.53-31.05.96,2.23,2.69,4.05,4,6Z"/><path class="cls-36" d="M192.26,130.42c-.52-.36-2.27-.31-3-1-2.09-5.66-2.35-23.84-6.47-27.07-1.09-.86-3.33-.59-3.6-1.54-.33-1.12.19-5.4,1.07-5.4.07,0-.14,1.17.99,1.01-1.29-4.76,3.53-2.71,5.54-1.04,5.09,4.22,4.41,27.89,5.47,35.03Z"/><path class="cls-45" d="M507.26,131.42c2.78.53,5.31,1.39,8,2-1.89,1.55-4.4,5.23-6.02,6.46-11.2,8.55-26.21,14.92-37.31,22.71-6.89,4.83-1.62,5.51-.76,11.42.57,3.95.98,11.62,1.13,15.87.13,3.51,1.25,10.76-2.04,12.54-.65-1.09-4.07-5.18-5-6-1.5-2.13-2.41-4.85-2.73-8.17l-2.36-27.58-1.15-1.14c-3.55.67-5.47-.04-5.76-2.11.32-2.15.79-3.1,1-4l3.41-9.61c3.1-.28,6.19-.93,9.29-1.93l24.07-12.57c5.08-2.54,11.89-.59,16.23,2.11Z"/><path class="cls-163" d="M499.26,127.42c2.73.65,6.41,2.35,9,3l-1,1c-2.69-.52-5.73-1.95-8.56-2.03-7.25-.2-23.89,11.51-31.44,14.52-3.38,1.35-5.42,1.87-9.06.93l-3.94,8.58c2.17-9.24,4.77-18.67,11-26,4.04-8.07,8.35-9.26,16.46-6.64l16.33,4.28,1.21,2.37Z"/><path class="cls-120" d="M499.26,127.42c-5.38-1.29-21.35-6.09-25.42-5.93s-6.21,3.13-8.58,5.93c2.95-7.32,9.39-15.1,15.5-20,1.52-1.22,6.35-2.88,6.5-4,11.5-.37,11.72,15.6,12,24Z"/><path class="cls-63" d="M458.26,192.42l7.51,6.99c6.46,7.26,9.21,21.04,3.34,29.36-3.91,5.54-11.3,3.89-16.85,2.65,22.11-10.47,3.79-30.05-.94-45.57l.93-3.43c-.11,4.78,2.55,7.37,6.01,9.99Z"/><path class="cls-10" d="M465.26,196.42c-1.47-1.28-3.69-1.98-5-3,3.99-1.7.61-3.11.04-5.54-1.36-5.8-2.07-11.25-4.02-16.97-2.47-7.26-4.35-4.48-3.02-13.48,3.14.97,7.06-1.74,8.8,2.7l3.2,36.3Z"/><path class="cls-4" d="M664.26,166.42c-8-1.77-16-3.44-24-5-2.37-.63-5.53-.55-7-1-1.69.29-4.27-1.18-3-3l-1.92-1.93c-.28-4.19-1.18-15.43-5-17.65-2.56-.08-4.26-.88-5.08-2.42.01-.07-1.59-.32-1-.99.94-1.05,4.83-.27,6.03-.61.77-.22,1.45-1.98,3.49-2.39,5.25-1.06,11.71.91,15.98,3.99,1.34.97,11.8,12.93,12.49,12-.08-3.07.31-6.2-.23-9.26-.17-.96-5.13-11.27-1.28-9.73,6.51,2.6,14.69,31.04,10.51,37.99Z"/><path class="cls-84" d="M630.26,157.42c.58-.26,1.88,2.66,3,3v1c-.93,1.71-3.22,1.77-6.85.19-8.85,7.94-21.95,15.11-33.82,16.39-.21,2.99-1.32,4.47-3.33,4.43.59,1.75.55,2.05-1,1,1.6-11.72,7.71-22.35,14-32,9.3-.84,19.7,2.71,28,6Z"/><path class="cls-120" d="M618.26,135.42c7.97-.86,9.11,2.94,10.71,9.79.94,4.02,1.62,8.05,1.29,12.21-1.29,3.32-2.35.59-4.54.05-7.83-1.96-15.72-3.77-23.46-6.05,2.93-4.49,3.91-7.19,8.47-11.03,1.5-1.26,7.44-4.44,7.53-4.97Z"/><path class="cls-70" d="M591.26,223.42c2.64,3.58,2.78,2.62,6.04,5.46,13.26,11.6,10.81,41.39-12.04,33.54,20.89-8.27,3.21-28.87,2.5-43,1.45,1.13,2.43,2.54,3.5,4Z"/><path class="cls-126" d="M562.26,248.42c2.96,3.21,5.44,6.35,9,9,6.5,4.84,14.69,8.71,23,8,.26,3.59-5.92,3.75-8.22,3.72-16.63-.2-37.41-14-31.78-32.72,1.05,2.16,4.29,9.3,5.1,10.44,1.13,1.58,2.72,1.37,2.9,1.56Z"/><path class="cls-81" d="M599.26,228.42c-.7-.68-3.07-2.39-4-3-1.08-7.37-1.98-23.91-5.53-29.98-.92-1.57-3.23-1.66-3.5-2.72-.73-2.89,1.1-6.49,2.03-9.3.07-.21.81-.54,1-1,8.17.87,12.06,5.31,9.17,14.07,4.95,9.57,4.85,19.93,3.15,30.53l-2.32,1.4Z"/><path class="cls-139" d="M664.26,166.42c1.28.39,2.44,1.25,4,1-1.4.85-.98,1.2-3.21.83-6.96-1.16-17.42-4.87-24.79-6.83.97-1.9,3.37-.66,4.83-.34,6.26,1.33,13.01,3.47,19.17,5.34Z"/><path class="cls-161" d="M400.26,103.42c-8.57-1.76-17.75-5.43-26-7-2.35-2.94-.79-5.6-1.95-9.55-1.54-5.21-6.71-13.29-12.16-14.92-1.86-.56-2.58.51-2.89.48-4.16-.41-5.32-1.57-10,1,6.3-5.65,20.84-7.1,27.95-2.45,1.8,1.18,13.74,14.93,15.04,13.45,1.51-7.07-3.99-13.32-4.92-19.58-.18-1.24-.5-3.2,1.42-2.41,7.83,3.21,14.46,32.66,13.51,40.99Z"/><path class="cls-125" d="M318.26,124.42l1.04.54c-2.04-6.76,14.92-6.89,15.88-3.9,1.07,3.35-3.7,9.74-3.8,12.82-.06,2.03,1.53,4.81,1.78,7.14.78,7.43.77,14.76,1.15,21.99.11,2.13-.3,2.45-2.05,3.41-1.14-1.49-2.55-2.82-4-4l-5.27-26.67c-1.28-3.75-1.87-5.11-5.73-6.33.3-2.16.62-3.17,1-5Z"/><path class="cls-14" d="M292.26,183.42c3.14,4,6.94,7.93,11,11,4.47,3.38,9.67,6.73,15.49,7.02.49.19.56.51.51.98-.02.15-.89.52-1.02.98l3.01,1.01c-15.63.98-41.2-10.77-34.99-29.99,1.58,2.77,4.03,6.49,6,9Z"/><path class="cls-140" d="M328.26,162.42c-.74-.61-1.95-1.16-3-2-.91-6.96-2.42-16.57-6.15-22.39-.69-1.08-2.64-1.41-2.87-2.33-.66-2.62.76-4.4,1.02-6.28,1.69-1.2,2.79-1.27,4.55-.09,3.79,2.55,6.97,22.6,7.36,27.75.15,1.92.25,3.67-.91,5.33Z"/><path class="cls-100" d="M332.26,92.42l-12,24c3.19-10.73,5.23-14.72,11-24h1Z"/><path class="cls-157" d="M633.26,161.42c6.82,1.38,13.32,3.13,20,5l-49.5,28c-1.99,3.25,1.89,7.91,2.42,11.58.71,5-.28,17.49-1.17,22.7-.29,1.67-.57,3.2-2.74,2.71-.12-.18-2.47-2.49-3-3,1.35-5.9,1.6-14.42.99-20.49-.47-4.65-3.44-8.54-3.8-11.23-.34-2.5,1.73-5.63.68-8.65-.69-1.98-6.86-2.34-7.87-5.64.63-1.56,1.71-6.8,2.01-7.01.14-.09,1.8.98,3.21.78,6.3-.91,20.31-8.37,26.12-11.93,1.77-1.09,3.99-4.35,5.28-4.6,1.73-.33,5.48,1.37,7.39,1.76Z"/><path class="cls-23" d="M653.26,357.42c-.24.49.65,1.75-.59,2.05-1.57.37-6.39.37-7.41-1.05,2.88.02,5.23-.55,8-1Z"/><path class="cls-51" d="M513.26,859.42c-.12,0-.9,1.08-2.31.95-1.63-.14-8.35-2.27-8.68-1.95,1.55,6.54,12.63,5.11,18.25,6.24,20.85,4.21,33.04,6.31,54.57,1.08,28.83-7.01,64.07-36.09,79.37-60.63,2.18-3.49,10.5-19.02,9.67-21.99-.69-2.45-5.49-3.48-7.87-3.71.71-1.82,5.69-11.97,6.5-11.98.26,0,3.17,2.92,3.37,3.7.48,1.89-.86,3.55-.71,4.81.52,4.27,2.99,6.22,1.39,11.51-4.61,15.2-23,34.63-34.58,45.42-41.78,38.93-74.78,46.71-130.98,32.04-111.62-29.14-222.49-61.13-333.77-91.23-26.65-7.21-58.5-13.52-83.9-23.1-1.75-.66-11.59-4.11-6.31-6.19l436,115Z"/><path class="cls-51" d="M547.26,860.42c.74.03,3.09-.32,1.5,1-5.86.75-11.59.97-17.5,1-3.66.01-7.34,0-10.99-.01v-.98c.99-.05,2,.03,2.99-.01,5.17-.21,10.41.26,15.58.04,1.3-.06,2.25-1.03,2.42-1.04,1.91-.13,4.08-.08,6,0Z"/><path class="cls-6" d="M450.88,92.51c5.18-.79.38,9.54-.45,11.58-2.51,6.16-17.86,39.22-21.11,41.89-3.01,2.48-4.81,1.94-5.16-2.06-.83-9.65,7.39-30,13.09-38,1.57-2.2,11.71-13.12,13.62-13.41Z"/><path class="cls-138" d="M563.97,176.11c-5.72,4.45-6.11-2.5-5.77-7.24.62-8.8,7.84-24.76,12.84-32.18,2.66-3.94,14.63-21.1,16.75-10.2-4.42,9.73-9.74,19.02-14.23,28.71-2.38,5.13-5.37,17.62-9.58,20.9Z"/><path class="cls-55" d="M176.77,30.45c3.46.17.29,8.96-.33,10.65-2.73,7.39-13.96,30.62-18.34,36.66-1.13,1.56-1.93,3.09-4.26,2.63-1-.31-1.26-1.54-1.66-2.39-3.62-7.68,6.99-27.62,11.68-34.49,1.95-2.85,9.79-13.21,12.92-13.06Z"/><path class="cls-2" d="M150.26,54.42c-.2-2.35,1.05-4.05,2-6,2.42,1.26-1.16,4.54-2,6Z"/><path class="cls-7" d="M318.99,54.58c1.53-.23,2.6-.17,3.15,1.5,1.36,4.19-10.23,22.02-12.64,27.08s-13.33,35.24-19.62,34.21c-5.74-.93-.44-21.77.85-25.98,2.97-9.66,17.67-35.24,28.26-36.81Z"/><path class="cls-27" d="M194.26,316.42c.89,3.02.74,6.04.47,9.14-1.87,21-4.97,43.62-9.65,63.74-2.2,3.71-6.34,4.48-10.32,4.01l-58.49-13.89c-.23,1.06-.9,1.06-2,0-.6-.35-1.35-.77-2-1-1.04-4.87-4.1-8.05-4.03-13.46.13-11.05,3.32-29.99,5.03-41.54.01-.09.7.2.96-1.5,1.32-8.69-.34-25.3,11.53-26.53,7.06-.74,48.7,9.84,57.27,12.77,5.76,1.97,8.13,2.68,11.24,8.26Z"/><path class="cls-119" d="M332.26,345.42c13.97,2.69,32.52,7.18,46.02,11.48,2.08.66,4.11,1.42,5.98,2.52-.72,1.42-1.17,3.89-3.28,3.82-4.75-.16-16.25-4.01-21.73-5.31-10.02-2.37-25.68-7.79-35.5-8.5s-11.01,3.44-12.35,11.64c-2.48,15.21-7.99,48.5-5.14,62.36-.95.43-1.52.25-1.88-.6-1.43-3.42-1.77-5.18-2-8.76-.71-11.24,4.95-52.76,8.81-63.76.13-.37.56-.64,1.07-.88,8.25-8.12,9.36-6.05,20-4Z"/><path class="cls-12" d="M196.26,320.42c1.12.66,1.41,3.97,1.29,5.41-1.72,19.49-3.81,43.01-8.58,61.7-1.6,6.28-7.83,9.44-14.05,8.24-19.64-3.81-40.02-8.68-58.68-15.2l.02-1.15c9.43-2.37,43.09,10.49,55.6,11.89,13.99,1.56,12.08-4.28,14.09-15.7,3.45-19.6,4.61-39.64,8.31-59.19.43.77,1.89,3.6,2,4Z"/><path class="cls-71" d="M292.26,342.42c.36.05.8-.1,1,0,.32,3.66,1.13,6.66,1,10.48-.46,13.22-3.98,34.3-6.14,47.88-1.63,10.21-1.78,20.2-15.23,19.56-16.53-4.36-33.14-8.41-49.62-12.92l-7.49-3c-1.6-1.44.96-.99,1.76-.79,18.69,4.87,37.68,8.63,56.29,13.84,2.77.32,4.92-1.45,6.88-3.11l9.57-71.95c.72.76,1.86,0,1.99,0Z"/><path class="cls-162" d="M184.26,424.42c-.25,22.93-4.09,45.79-8.91,68.18-.75,3.46-6.18,6.1-9.34,6.71-7.62,1.48-43.61-8.28-52.1-11.61-.33-.13-.52-.65-.65-1.28v-1.99c14.86.93,31.24,9.39,45.6,10.88,5.36.56,9.72.86,11.92-4.87l10.48-71.02c1.67,1.97,2.26,1.97,3,5Z"/><path class="cls-103" d="M101.26,482.42c4,2.4,7.94,2.85,12,4,12.68,3.59,34.27,10.61,46.6,11.89,7.01.73,10.6-.17,14.82-5.97,4.55-22.25,7.15-45.3,9.58-67.92.81,3.31,1.24,4.55.98,8.49-.95,14.72-4.17,39.36-7.26,53.73-2.09,9.75-6.39,14.81-16.97,13.51-7.79-.95-51.71-11.69-57.14-14.88-1.55-.91-2.01-2.41-2.62-2.86Z"/><path class="cls-117" d="M114.26,379.42c.64-.09,1.44.14,2,0,1.16,1.67,3.2,1.96,5,2.5,17.4,5.28,36.35,7.58,53.78,13.26,8.16.87,12.12-3.12,13.92-10.57,4.43-18.35,4.04-40.12,8.2-58.81-.25-1.68-.45-3.8-.9-5.38,1.26-2.16,1.43,1.14,1.51,1.98,1.14,12.78-3.4,38.75-5.65,52.38-2.23,13.49-1.7,23.63-19.1,21.38-10.78-1.39-47.95-10.51-57.13-14.9-.91-.43-1.3-1.65-1.62-1.84Z"/><path class="cls-97" d="M312.26,349.42c-1.58,4.69-2.19,9.75-2.86,14.64-1.54,11.25-7.4,45.59-5.69,54.41.33,1.69,1.12,3.86,2.55,4.95.13.61-.16,1.47,0,2-3.65,0-4.89-8.98-4.89-11.39.03-13.34,4.76-41.74,7.17-55.83.38-2.24,1.28-8.05,2.7-9.28.38-.33.98.54,1.02.5Z"/><path class="cls-89" d="M138.26,404.42c.96-1.9,3.37-.66,4.83-.34,7.74,1.66,15.45,3.96,23.14,5.88.84.21,4.61.33,2.03,1.46-9.13-2.72-20.54-4.82-30-7Z"/><path class="cls-53" d="M100.25,275.43c.6,3.33-5.22,5.59-5.99,2.48-.67-2.71,4.52-2.78,5.99-2.48Z"/><path class="cls-144" d="M508.26,479.42c.79-1.78-1.24-2.41,2.26-1.77,16.65,3.03,38.5,12.2,54.36,13.64,11.19,1.02,12.23-2.64,14.1-12.65,1.82-9.72,2.12-19.82,3.4-29.6,1.47-11.18,4.72-22.23,3.89-33.62l1.12,1.87.87-.88.98.51,1.06,6.94c-4.34,18.84-3.36,41.36-8.33,59.75-1.69,6.24-4.13,9.35-10.7,10.8-3.81.84-5.06.04-8.82-.69-15.63-3.03-39.65-8.78-54.18-14.31Z"/><path class="cls-47" d="M350.26,679.42c.65,1.7,2,3.32,1.8,5.5-3.79,18.32-3.87,39.6-8.26,57.54-1.49,6.09-3.52,11.02-10.54,11.96l-3.99-1.99c3.38.1,8.54-1.17,9.75-4.75,3.02-22.23,7.02-44.43,9.25-66.77.28-2.83.9-.23,1.99-1.49Z"/><path class="cls-46" d="M364.26,576.42c.62,1.75,1.08,5.53,1.04,7.45-.2,8.8-6.34,54.16-9.3,60.79-2.5,5.6-6.89,7.95-12.93,7.53-9.22-.64-46.47-10.58-56.03-14.04-2.33-.84-2.93-1.43-4.78-2.72,1.73-1.41,2.95-.72,4.75-.32,16.23,3.58,39.7,12.54,55.04,14.11,9.66.98,9.87-6.23,11.95-13.55l8.26-61.24c.4.67,1.82,1.5,2,2Z"/><path class="cls-152" d="M316.26,430.42l-1-1.99c.79-.07,1.59-.01,2.39.08,16.35,1.9,35.06,10.67,51.36,12.65,6.72.81,9.1.39,10.98-6.51,4.94-18.18,4.35-43.73,8.23-62.77l2.05-4.46c1.36,3.54,2.19,3.86,2.01,8.46-.54,14.14-4.49,39.56-7.13,53.91-2.08,11.29-4.64,16.05-17.12,14.36-13.55-1.83-38.77-9.57-51.76-13.74Z"/><path class="cls-137" d="M267.26,553.42c-.5,3.47.31,7.8-.01,11.49-1.01,11.44-3.28,25.39-5.13,36.87-1.69,10.46-1.51,25.6-16.22,24.58-11.15-.77-42.12-10.09-53.64-13.94l.39-1.91c19.06,3.57,37.65,10.77,56.87,12.73,4.11-1.1,5.55-4.74,6.49-8.55l9.24-64.26c.56,1.05,1.26,2.06,2,3Z"/><path class="cls-132" d="M542.26,616.43c-1.52,3.63-6.7,1.83-8-1l8,1Z"/><path class="cls-28" d="M170.26,526.42c-.11,2.18.85,4.08.73,6.22-1.16,19.61-6.45,40.68-8.66,60.34-1.51,5.11-7.23,9.39-12.54,9.44-2.87.03-4.62-1.59-6.52-2l-1-1.99c15.91,4.6,15.05-5.81,17.89-17.62l8.1-56.4c.41.68,1.46,1.31,2,2Z"/><path class="cls-2" d="M229.26,61.42c-.08-7.81-1.2-17.3-8-22,.45-.03,1.36-.96,2.49-.9,3.69.18,11.01,8.36,12.04,11.87,1.99,6.72,3.46,15.3-6.53,11.03Z"/><path class="cls-38" d="M311.25,67.43c1.84,1.96-4.99,18.1-6.45,21.04s-10.81,20.86-13.4,11.23c-.76-2.84,6.64-19.66,8.65-22.98,1.2-1.98,8.75-11.9,11.19-9.3Z"/></svg>