<?xml version="1.0" encoding="UTF-8"?><svg id="Calque_1" xmlns="http://www.w3.org/2000/svg" viewBox="0 0 395.11 386.09"><defs><style>.cls-1{fill:#f0dcc4;}.cls-2{fill:#e8c7a3;}.cls-3{fill:#e8c5a1;}.cls-4{fill:#efd8be;}.cls-5{fill:#f0dac0;}.cls-6{fill:#edd6bc;}.cls-7{fill:#eacdae;}.cls-8{fill:#b4562c;}.cls-9{fill:#e9caa8;}.cls-10{fill:#963919;}.cls-11{fill:#dca374;}.cls-12{fill:#db9b68;}.cls-13{fill:#ecd3b6;}.cls-14{fill:#e7c09b;}.cls-15{fill:#d59765;}.cls-16{fill:#8f3116;}.cls-17{fill:#c98f61;}.cls-18{fill:#dcad82;}.cls-19{fill:#cf9569;}.cls-20{fill:#d89864;}</style></defs><path class="cls-3" d="M105.57,147.29c2.73-.78,4.94-3.53,6.63-8.22,6.1-7.92,27.16-29.14,32.9-12.05l2.64,2.58c10.57-2.13,14.18.92,19.32,9.9l2.59.59c6.74-3.12,9.61-1.52,10.62,5.91,3.69,1.23,8.04,1.42,13.06.59,6.6.6,9.68,6.92,1.98,8.54,3.38,3.56,4.57,4.63,9.05,2.5,6.02,3.73,6.62,1.96,1.79-5.33-.97-5.49,9.67-13.66,14.3-11.05,2.17,1.3,1.55,3.17-1.01,3.02-7.17,17.72-3.69,35.65,14.8,44.62l.61,1.68c-20.87,12.85-19.41,44.76,4.34,54.28l.28,1.55c-11.6,9.15-17.04,21.38-13.98,36.01,3.19,7,7.17,10.79,12.77,15.85.67.6.69,1.42.33,2.3l-1.73,1.43c8.46,3.5,17.45,5.4,26.98,5.68,45.74-1.15,88.49,18.84,128.94,38.25,3.47,7.09,2.96,17.48-1.01,24.2-5.83,5.86-12.89,12.4-21.67,11.94-27.02-6.79-53.88-14.2-80.57-22.21-32.14-8.48-61.58-7.61-93.73-4.67-21.57,1-46.83-1.79-58.21-22.44-2.69-.85-5.26-1.97-7.72-3.37-13.45-45.1-26.88-89.63-40.28-133.6-1.95-2.91-2.68-5.62-2.19-8.13.71-2.95,3.18-5.75,7.42-8.4.53-11.63,3.06-21.45,8.33-31.94.28-.55,1.52-.31,2.39.02Z"/><path class="cls-14" d="M65.26,163.42c2.97,1.03.58,5.75-1.76,6.98l-42.44,12.77c-1.45.85-2.62,2.04-3.57,3.39,14.05-4.2,28.25-8.7,42.58-13.52,3.79-1.04,8.39-1.92,10.75,1.9,1.96,12.09,10.64,26.93,2.38,3.7-1.87-4.68-1.49-7.74,1.14-9.18,1.63,1.95,4.31,7.75,5.04,10.08,3.23,1.57,3.9,4.93,2.02,10.08l2.88,5.13c12.98,46.81,26.7,92.49,41.16,137.05l-.71,1.99c.23,6.67,4.84,13.73,2.82,20.51-.37,1.25-1.67,1.42-1.82,1.67-16.76,9.07-38.19,14.24-56.84,18.12-3.51-.61-6.49-2.73-8.48-5.7L12.49,202.26c-3.22-5.34-4.63-10.86-4.21-16.55-2.53-1.65-3.69-3.37-3.49-5.16.22-.25-.07-1.58,1.01-2.47,2.55-2.1,29.4-10.04,34.83-11.56,8.1-2.26,16.57-6.04,24.62-3.1Z"/><path class="cls-13" d="M247.67,52.51l-1.25.9c-4.06,13.67-10.34,26.56-18.86,38.69-7.59,11.21-10.63,22.55-9.12,34.01-.02,2.69,1.68,5.73,2.02,8.07,3.26,1.07,3.24,6.13,0,7.06-3.74,1.18-11.11,5.66-12.61,9.08-.72,1.64,5.17,7.23,3.1,10.11-2.2,3.06-5.58-1.1-6.92-.86-3.05.55-2.43,3.24-7.68-.76-4.59-3.48-3.71-5.76,1.95-6.49-2.09-8.05-16.27.07-19.61-5.07-1.02-1.57-.69-5.41-2.52-6.58-2.42-1.54-5.07,3.55-10.43.37-2.63-1.56-2.65-5.35-5.36-7.73-7.59-6.65-11.2,3.37-16.96-5.22-1.9-2.83-.45-5.69-4.87-5.66-9.07.07-20.51,12.55-25.91,19.31-1.46,1.83-7.43,14.18-7.05,5.55-.9-.25-.88-.59,0-1.01,1.71-2.13,3.04-4.51,4.03-7.06-2.06-2.12-.77-3.69,2.02-3.02,7.36-10.31,15.4-20.13,24.98-28.54,22.28-19.39,45.34-39.78,58.67-66.23l-.6-2.94c3.93-9.16,7.22-18.56,9.87-28.19.18-2.78-.56-5.51-2.22-8.19,7.59-3.17,13.45-2.59,21.05.61,19.95,8.42,27.61,29.66,24.3,49.8Z"/><path class="cls-9" d="M254.72,191.65l-1.37,2.79c22.35,1.78,44.5,2.72,66.44,2.84l3.35,1.09c6.12,4.33,11.87,8.81,17.23,13.44,1.53,5.61,1.74,22-2.23,26.04-.5.51-1.68.04-1.81.17-4.79,7.11-12.73,10.76-21.18,8.34l-61.59-3.08c-24.12,1.51-39.72-23.15-26.07-43.58-2-3.08,6.07-8.7,8.5-9.64,2.61-1,17.21-1.39,18.47.04.29.33.3.89.23,1.53Z"/><path class="cls-2" d="M247.67,248.11c.24,1.79-.81,3.03-3.15,3.69,10.57-1.34,21.28-.94,32.15,1.22l29.21,1.59c13.04.99,25.65,3.9,35.51,12.66,3.72,9.19,3.32,18.25-1.01,27.22-7.86,10.11-13.64,13.17-26.76,11.46-21.57-4.55-43.5-6.98-65.79-7.3-23.42-6.64-27.82-37.48-7.22-50.54-.67-3.83,8.07-3.52,7.05,0Z"/><path class="cls-7" d="M272.86,131.15c8.71,1.02-1.89,5.39-6.7,5.05-8.49.2-16.93.83-25.32,1.87-5.88.46-19.78,10.72-5.69,3.7,20.3-.62,40.59-.98,60.87-1.08,15.55-1.58,27.1,4.39,38.32,13.64,2.79,9.34,1.91,15.76-3.02,24.2-4.12,4.44-7.99,8.53-14.34,9.53l-67.17-1.53c-17.6,2.06-30.7-9.11-31.4-26.51,1.48-9.05,3.17-18,5.07-26.86,11.13-4.1,36.34-1.76,49.38-2.02Z"/><path class="cls-19" d="M125.73,355.99c-3.19,5.32-5.47,5.41-11.13,7.51-14.42,5.35-31.11,9.06-45.93,13.56-5.54.04-12.55-5.91-16.92-9.07C33.4,308.53,16.35,248.38,0,188.38c1.3-3.82,2.5-5.15,4.8-7.83,8.32,4.62,4.51,5.09,5.43,11.11.44,2.88,3.26,6.71,4.2,10.01,15.71,55.24,31.58,110.76,47.79,165.91,2.99,3.79,6.63,5.36,11.51,4.43l52.01-16.03Z"/><path class="cls-18" d="M202.32,2.1c8.55,2.78,2.4,13.85.46,20.13-2.05,6.64-3.6,12.99-7.52,19.19-8.62,16.93-21.14,31.56-34.75,44.7-18.5,14.85-34.79,31.54-48.89,50.07-.56.96-1.35,1.79-2.02,3.02-.97,2.53-2.29,4.96-4.03,7.06-.06.3.01.68,0,1.01-5.03,4.9-5.74,12.02-7.35,18.35-.27,1.05-1.32,1.98-1.65,3.39-.68,2.85.02,7.89-1.29,10.81s-7.47,3.81-7.84,7.78c-3.2.48-3.22-3.65-.92-5.59,5.82-2.13,7.96-7.3,6.41-15.49,2.64-8.46,5.14-16.89,7.51-25.3-2.72.55-4.36-.13-4.94-2.01,15-26.87,44.26-43.24,64.47-66.31,9.76-11.15,19.91-25.92,25.61-39.67,4.44-10.69,5.19-26.32,16.74-31.14Z"/><path class="cls-11" d="M95.5,139.22h7.06c.65,9.57-5.72,15.89-7.4,25.45-.71,4.07.1,11.42-.83,14.21-1.11,3.29-9.97,3.51-6.89,8.74,5.77,9.79,6.86,19.11,10.14,29.68,11.5,37.04,22.29,74.31,33.74,111.43,1.36,2.81,4.84,1.41,7.09,2.99,1.51,1.07,4.08,6.22,5.98,8.13,22.12,22.22,56.65,12.43,84.61,12.06,20.55-.28,37.45,1.56,57.22,6.36,28.12,6.84,55.67,16.63,83.96,22.95l8.41-1.64,13.2-9.48c-.89,1.5-.62,1.42-2.02,3.02-3.54,6.03-13.21,12.28-20.36,11.31-27.73-6.5-55.27-14.02-82.61-22.54-29.68-7.45-54.5-7.67-84.46-4.41-24.23.92-54.5,1.15-67.25-23.15-5.23-.68-8.35-3.88-9.35-9.61-1.82-2.3-3.27-4.82-4.33-7.56-10.83-40.47-22.6-80.68-35.29-120.51-.6-1.87-2.86-7.63-4.73-7.03-1.04-3.59-1.24-7.59-2.02-10.08,5.17-2.23,3.4-6.08,4.48-10.14,2.81-10.58,6.3-20.61,11.65-30.19Z"/><path class="cls-5" d="M334.34,154.34c-6.77.03-11.48-6.91-18.25-9.46-9.49-3.59-34.42-1.65-45.78-1.58-10.2.06-21.88-1.16-32.21-.04-5.82.63-8.24,4.42-13.6,5.04,7.51-18.69,33.24-10.85,48.6-15.39,1.95-.58,3.01-2.19-.23-1.74,24.83-.48,52.06-8.37,61.47,23.19Z"/><path class="cls-1" d="M238.6,300.53c2.62-.61,5.67-.25,9.18,1.07l49.83,4.41c5.47.2,10.33,1.4,14.57,3.59,4.29,1.5,8.47,2.79,13.1,3.02,12.67,4.47,53.64,16.9,61.13,24.54,1.23,1.25,5.65,7.23,6.39,8.73-5.19,1.92-8.4-2.85-12.92-4.72-21.34-8.85-46.79-18.59-68.46-26.28-18.7-6.63-66.05-1.7-78.38-13.34-1.18-1.12-2.8-2.2-2.49-4.05,3.15.41,4.7,1.95,8.06,3.02Z"/><path class="cls-17" d="M125.73,324.73c1.9.93,1.4,3.5,2.33,4.74,2.82,3.76,7.22,2.34,7.78,2.73.41.28,3.78,6.57,5.37,8.31,23.98,26.22,78.66,11.24,112.06,13.42,35.44,2.31,76.68,21.44,112.6,27.5,2.09.35,3.88,1.74,6.31,1.83,5.42.21,14.15-6.17,17.61-10.13-2.35,8.09-15.57,13.73-23.45,12.88-33.18-6.97-67.11-20.27-100.09-26.9-41.03-8.25-88.94,11.7-125.38-11.18-2.26-2.94-4.94-6.51-8.05-10.73-5.31-.94-11.32-7.86-7.07-12.46Z"/><path class="cls-8" d="M81.39,189.63l2-4.03c.54,3.97,3.57,7.34,4.8,10.84,14.28,40.62,25.08,86.59,37.54,128.29,1.04,3.49.16,7.25,4.1,9.51,1.32.76,3.14.27,4.44,1.61.94.97,3.8,6.34,5.56,8.55.66.84,3.49,2.58,1.02,3.52-6.57-4.13-10.63-9.16-16.12-14.11-2.78-2.51-3.46-6.98-4.75-10.88-14.31-43.36-25.85-89.37-38.59-133.3Z"/><path class="cls-5" d="M290,191.65c10.12,1.69,19.7,1.17,28.73-1.56l3.52,1.56c8.58,5.76,15.04,8.79,18.14,20.16-5.79,1.5-5.97-2.74-8.4-4.7-1.71-1.38-7.5-5.87-9.02-6.61-6.54-3.18-10.95-.55-17.38-.74-13.3-.38-28.71-2.68-42.31-3.06-12.6-.36-24.26-1.55-33.74,8.06-.29-2.51.95-4.3,2.48-6.08.91-1.06,7.39-5.6,8.32-5.86,2.33-.66,5.98.91,9.06.53,1.94-.24,3.49-1.57,5.32-1.7.66-.72,1.34-1.32,2.12-1.48,7.37-1.59,22.87-.5,31.03.08.74.05,1.44.65,2.13,1.4Z"/><path class="cls-4" d="M313.18,251.13l7.96.1c-.24-2.35,1.13-2.38,4.14-.1,5.37-.3,14.23,11.45,16.12,16.13-5.13.29-6.75-3.08-10.7-4.92-15.24-7.09-37.15-6.08-54.17-7.31-10.99-.8-27.04-5.21-36.61.94-2.98,1.92-2.83,4.85-6.35,4.23-3.09-3.04,11.3-11.4,14.1-12.09l-.06-1.37c20.95-.38,42.26.59,63.91,2.93l1.65,1.46Z"/><path class="cls-12" d="M223.48,133.17c2.47,3.36.39,8.53-.5,12.1-.32,1.3-1.77,2.25-2.02,3.05-.34,1.06,1.11,1.8,1.04,3.06-.28,5.11-3.02,5.29-1.28,13.29,2.33,10.73,10.33,19,21.37,19.95,19.6,1.69,41.8.96,61.49,1,7.26.02,15.84,2.21,22.63-2.64,1.91-1.37,2.11-4.07,5.1-4.45-2.82,4.82-6.72,8.22-12.07,10.59.81,1.11,1.89,1.78,3,2.52-9.19,1.44-19.45,1.31-28.84,1.08-1.82-.04-3.23-1.08-3.41-1.08l.07-1.34c-18.18-.58-36.27-.84-54.29-.78-19.28-8.19-23.95-26.91-16.32-45.26.31-.92.82-2.22,1.01-3.02.65-2.85.44-4.01,0-7.06.9-.63,2.04-.65,3.02-1.01Z"/><path class="cls-15" d="M240.62,248.11c-1.83,4.67-6.88,5.89-9.27,10.38-2.21,4.14-1.25,5.32-1.85,9.23-.23,1.52-1.95,2.67-1.78,3.87.08.58,3.6,9.89,4.13,11.01,1.38,2.93,7.71,11.29,10.52,12.67,2.19,1.08,7.29,1.94,9.87,2.22,11.28,1.21,24.02.93,35.24,2.05,10.22,1.02,27.09,5.56,36.31,5.11,2.94-.14,4.42-.85,6.87-2.26,3.39-1.95,6.21-6.44,9.74-7.9-5.18,10.74-13.43,14.43-25.19,14.11-22.21-3.16-44.59-5.48-67.13-6.94-10.1-.98-20.18-10.5-21.56-20.28-5.68-10.55,2.78-28.15,12.08-34.68.36-.26,1.43.78,2.02,1.41Z"/><path class="cls-6" d="M74.33,169.47c-1.57,9.86,7.23,18.26,4.02,28.22l-5.2-8.39c-2.37-2.62-3.21-12.22-4.32-13.82-3.01-4.35-18.14,3.51-21.72,4.57-2.99.89-6.4.91-9.27,1.82-3.29,1.03-21.24,8.01-22.45,7.77-1.89-.38-1.14-1.38-.56-2.55,1.07-2.17,3.18-4.58,5.38-5.73l43.35-13.09,1.7-4.86c3.1,1.13,6.92,3.47,9.07,6.05Z"/><path class="cls-20" d="M227.51,199.71c-5.17,10.38-5.14,19.01.6,29.14,8.92,15.76,26.74,12.19,42.22,13.21,14.7.97,29.57,2.17,44.36,2.57,5.99.16,8.78,2.15,14.53-1.17,2.23-1.29,4.38-4.39,7.14-5.45-.29.3-.25,2.5-1.3,3.73-.95,1.11-6.45,4.63-8.09,5.55-2.2,1.24-6.88.53-1.69,3.82-5.31.3-6.62.37-12.09,0,.04-.56.14-1.05.45-1.34.36-.35,1.21-.2,1.15-.2-22.77-1.51-46.16-2.76-68.53-3.88-6.56.77-12.46-2.68-17.09-7.39-8.94-9.09-10.38-18.74-7.52-30.93.61-2.6,3.6-10.68,5.88-7.66Z"/><path class="cls-16" d="M315.19,308.6c.51.19,1.15.71,2.02,1.01,1.58,2.32-.1,2.32-5.04,0-22.68-4.27-52.91-2.51-73.57-9.07-6.89-5.29-10.53-9.4-13.1-18.15-.09-1.01-.03-1.37,1.01-1.01,2.18,7.39,12.29,17.38,19.96,18.93,2.38.48,3.94-.61,5.57-.4,19.7,2.49,45.28,2.26,63.16,8.7Z"/><path class="cls-3" d="M218.44,126.11c-2.36-.88-2.64-5.75-2.63-7.74.01-6.8,6.26-19.88,9.51-26.21,6.92-13.49,18.92-25.8,20.32-41.15l2.02,1.5c-4.39,26.65-29.01,46.46-29.23,73.6Z"/><path class="cls-15" d="M317.21,309.61c2.67.93,5.35,2.07,8.06,3.02l-5.48.97-7.62-3.99c1.54.29,4.21,1.92,5.04,0Z"/><path class="cls-10" d="M219.45,144.26l-2.91,16.53c1.21,12.31,7.2,22.97,19.6,26.77l80.06,2.09c-.38,1.83-1.98,1.87-3.49,2.04-7.06.79-15.48-.65-22.71-.04-11.5-.3-23.63-.84-35.27,0-2-.97-7.35-1.05-9.58-.93-7.49.38-14.03,1.77-17.63,9-2.19-.66-4.45,5.77-4.74,6.85-3.88,14.69-.6,27.77,13.11,34.48.58.28.65,1.63.94,1.75,1.26.54,14.85,1.95,17.56,2.21,20,1.92,41.04,1.31,61.3,3.11,1.57.14,6.44.32,5.55,3.01h-8.06c-18.51-1.24-42-4.24-59.97-3.82-1.17.03-4.36.52-5.53.81-.95-1.74-5.27-.53-7.05,0-11.19,3.35-17.11,23.08-14.11,33.27l-1.01,1.01c-5.11-17.38.79-23.08,11.11-34.76,2.81-3.18-.17-1.98-1.62-2.91-11.28-7.24-16.63-17.86-15.52-31.38.65-7.84,6.16-19.9,14.09-22.71-6.63-4.52-13.5-9.8-16.57-17.64-4.83-12.33-1.22-17.71,2.46-28.73Z"/><path class="cls-3" d="M195.27,41.42c-1.93,6.32-6.42,13.04-10.26,18.47-17.29,24.41-37.78,37.72-57.75,58.21-5.54,5.68-10.18,12.31-15.63,18.09,13.47-22.91,27.87-31.37,46.37-48.88,14.74-13.95,26.59-28.96,37.27-45.89Z"/><path class="cls-3" d="M105.57,146.28c.72-3.45,2.81-4.82,4.03-7.06-.54,2.76-1.16,5.87-4.03,7.06Z"/></svg>