<?xml version="1.0" encoding="UTF-8"?>
<svg xmlns="http://www.w3.org/2000/svg" width="102" height="101" viewBox="0 0 102 101" fill="none">
  <path d="M47.8354 24.5485C47.8583 24.4422 47.8354 24.3344 47.7728 24.248C47.6998 24.1472 47.5806 24.0787 47.4138 24.0901C47.2742 24.1065 47.1585 24.1944 47.1053 24.325C46.6057 25.5292 45.3908 29.2656 44.8892 37.9427C44.6255 42.494 44.5962 47.7708 44.8058 53.6237C45.0536 60.5949 45.6407 68.4769 46.5506 77.0481C46.562 77.1504 46.5987 77.2477 46.6583 77.3287C46.7676 77.4816 46.9449 77.573 47.1316 77.573L47.3085 77.5705C47.4694 77.568 47.6224 77.4995 47.7311 77.3808C47.8399 77.2626 47.8945 77.1027 47.8816 76.9428C47.5786 73.0262 45.0049 38.2923 47.8349 24.549L47.8354 24.5485Z" fill="#EC3722"></path>
  <path d="M44.8386 65.1805C41.9013 66.6609 40.8022 68.8926 40.5345 69.5406C40.4103 69.8376 40.3641 70.1529 40.3949 70.4554C40.4312 70.7921 40.5454 70.9773 40.7426 71.02C40.7719 71.0265 40.8007 71.0309 40.8285 71.0309C40.98 71.0309 41.126 70.9475 41.2104 70.8139C42.4476 68.8568 43.6788 68.4462 44.4929 68.4462C44.7079 68.4462 44.916 68.4754 45.1117 68.5301L45.1877 68.5524L44.9111 65.1448L44.8386 65.1805Z" fill="#EC3722"></path>
  <path fill-rule="evenodd" clip-rule="evenodd" d="M35.4322 77.2885L35.4337 77.2865C39.2928 73.5467 38.8135 59.27 38.6069 53.1118L38.5836 52.4051C38.4912 49.5571 38.1107 46.3739 37.7626 43.4629C37.3394 39.9237 36.9664 36.7936 37.2252 35.3331C37.3389 34.6925 37.5366 33.9561 37.7472 33.1695C38.4609 30.5087 39.3196 27.3071 37.8823 24.7035C37.8356 24.6022 37.7606 24.5123 37.6603 24.4502C37.3896 24.2814 37.0345 24.3648 36.8666 24.634L34.4677 28.4995L31.6849 24.8599C31.4922 24.6066 31.1306 24.5585 30.8788 24.7517C30.7671 24.8351 30.6975 24.9508 30.6677 25.0754C30.5664 25.4176 29.743 28.4121 30.9414 31.3494C31.519 32.7657 31.9655 34.0911 32.0857 35.6216C32.2064 37.1576 32.0048 38.924 31.2861 41.2347C29.9098 45.6534 29.1033 53.0258 29.2935 60.0914C29.4559 66.1355 30.3484 71.9779 32.2362 75.6105C32.3822 75.8921 32.7319 76.0028 33.014 75.8539C33.2961 75.7079 33.4054 75.3602 33.2593 75.0772C32.2064 73.0555 31.4778 70.2875 31.0214 67.1664C31.0288 67.1178 31.0303 67.0691 31.0239 67.0194C31.0184 66.9549 31.0229 66.9072 31.0402 66.8739C31.0725 66.8069 31.1699 66.7537 31.3139 66.716C31.5424 66.6584 31.8473 66.6584 32.196 66.718C32.9007 66.8382 33.7371 67.2002 34.4886 67.8155C34.7349 68.0166 35.098 67.9803 35.2986 67.734C35.5008 67.4882 35.4645 67.1242 35.2177 66.9226C34.3053 66.1777 33.2713 65.7342 32.3887 65.5823C31.8831 65.4959 31.4132 65.5043 31.0253 65.6046C30.9568 65.621 30.8898 65.6424 30.8252 65.6652C30.6186 63.868 30.4929 61.979 30.4418 60.0661C30.2555 53.1187 31.0402 45.8922 32.3857 41.5778C33.1526 39.1122 33.3676 37.2063 33.235 35.5323C33.1029 33.8508 32.6261 32.4285 32.0092 30.9169C31.3422 29.2821 31.3884 27.6279 31.5324 26.5568L34.0436 29.8418C34.0868 29.9033 34.1439 29.9575 34.2129 29.9997C34.4821 30.168 34.8372 30.0861 35.0061 29.8154L37.2619 26.1819C37.8758 28.2407 37.2043 30.7436 36.6352 32.8725C36.4156 33.6859 36.211 34.4507 36.0893 35.134C35.8008 36.7588 36.1847 39.9693 36.6183 43.5985C36.9659 46.5026 37.3444 49.6793 37.4348 52.4414L37.4576 53.148C37.6493 58.8365 38.0775 71.6293 35.1501 75.8414C34.6187 74.6382 33.6666 72.2933 33.3274 70.1962C33.2777 69.8828 32.9822 69.6678 32.6693 69.7184C32.3559 69.7681 32.1408 70.0616 32.192 70.3754C32.7021 73.5318 34.4821 77.1425 34.4871 77.154C34.6271 77.4405 34.9713 77.5592 35.2579 77.4196C35.3264 77.3854 35.3846 77.3412 35.4327 77.288L35.4322 77.2885ZM35.9244 72.399C35.9244 72.8246 35.5788 73.1698 35.1521 73.1698C34.7255 73.1698 34.3788 72.8241 34.3788 72.399C34.3788 71.974 34.7255 71.6253 35.1521 71.6253C35.5788 71.6253 35.9244 71.9715 35.9244 72.399Z" fill="#EC3722"></path>
  <path fill-rule="evenodd" clip-rule="evenodd" d="M58.3224 24.4616H58.3249C62.184 28.2034 61.7047 42.4795 61.4971 48.6378L61.4742 49.345C61.3819 52.1925 61.0014 55.3761 60.6533 58.2872C60.2311 61.8274 59.8561 64.9575 60.1159 66.4175C60.2286 67.0581 60.4263 67.794 60.6374 68.5806C61.3516 71.2424 62.2098 74.4424 60.771 77.0461C60.7268 77.1474 60.6508 77.2363 60.55 77.3009C60.2803 77.4677 59.9242 77.3848 59.7568 77.1151L57.3574 73.2501L54.5756 76.8907C54.3824 77.1424 54.0203 77.1906 53.7675 76.9979C53.6593 76.914 53.5872 76.7993 53.5574 76.6746C53.4566 76.332 52.6336 73.338 53.8311 70.4007C54.4087 68.9829 54.8557 67.6575 54.9769 66.1284C55.0981 64.5915 54.8959 62.8261 54.1758 60.5154C52.8005 56.0947 51.9934 48.7237 52.1842 41.6582C52.3456 35.6141 53.2386 29.7712 55.1259 26.1391C55.2724 25.858 55.6211 25.7482 55.9032 25.8942C56.1853 26.0412 56.296 26.3888 56.1495 26.6719C55.0981 28.6955 54.3685 31.4621 53.9126 34.5837C53.919 34.6323 53.9205 34.6815 53.9155 34.7317C53.9086 34.7952 53.914 34.8424 53.9319 34.8762C53.9632 34.9432 54.0606 34.9973 54.2041 35.0341C54.4321 35.0922 54.7365 35.0922 55.0862 35.0326C55.7904 34.9109 56.6268 34.5504 57.3788 33.9356C57.6251 33.7325 57.9877 33.7712 58.1893 34.0161C58.391 34.2634 58.3547 34.6264 58.1084 34.8275C57.1965 35.5739 56.1619 36.0173 55.2814 36.1678C54.7743 36.2542 54.3044 36.2468 53.916 36.147C53.8475 36.1281 53.7804 36.1072 53.7169 36.0844C53.5103 37.8826 53.3841 39.7726 53.3329 41.6855C53.1462 48.6319 53.9334 55.8593 55.2769 60.1723C56.0437 62.6384 56.2593 64.5438 56.1262 66.2178C55.9931 67.8988 55.5163 69.3215 54.9004 70.8322C54.2324 72.47 54.2781 74.1231 54.4251 75.1938L56.9362 71.9083C56.9794 71.8477 57.0356 71.7921 57.1041 71.7489C57.3738 71.5821 57.7294 71.665 57.8968 71.9351L60.1526 75.5677C60.768 73.5093 60.097 71.007 59.5263 68.8776C59.3063 68.0627 59.1022 67.2999 58.981 66.6156C58.6929 64.9902 59.0769 61.7812 59.5104 58.1526C59.8571 55.2485 60.2361 52.0728 60.325 49.3087L60.3478 48.6011C60.5395 42.9136 60.9677 30.1198 58.0413 25.9086C57.5094 27.1119 56.5563 29.4573 56.2181 31.5534C56.1679 31.8673 55.8729 32.0813 55.5595 32.0317C55.2451 31.9815 55.032 31.6865 55.0822 31.3732C55.5923 28.2178 57.3728 24.6071 57.3768 24.5966C57.5163 24.3106 57.8625 24.1909 58.1476 24.33C58.2171 24.3637 58.2747 24.4079 58.3229 24.4616H58.3224Z" fill="#EC3722"></path>
  <path fill-rule="evenodd" clip-rule="evenodd" d="M58.8146 29.3516C58.8146 28.9245 58.4684 28.5789 58.0428 28.5789C57.6171 28.5789 57.2695 28.9245 57.2695 29.3516C57.2695 29.7786 57.6156 30.1243 58.0428 30.1243C58.4699 30.1243 58.8146 29.7786 58.8146 29.3516Z" fill="#EC3722"></path>
  <path d="M67.6677 24.6096C67.6572 24.5083 67.62 24.4119 67.5604 24.3315C67.4516 24.179 67.2743 24.0876 67.0796 24.0876L66.9118 24.0901C66.7503 24.0926 66.5949 24.1606 66.4876 24.2793C66.3793 24.398 66.3242 24.5584 66.3366 24.7183C66.6391 28.6335 69.2138 63.3684 66.3833 77.1107C66.361 77.218 66.3833 77.3257 66.4469 77.4121C66.5189 77.5129 66.6366 77.573 66.7608 77.573L66.806 77.5696C66.944 77.5532 67.0598 77.4677 67.1139 77.3347C67.6135 76.1314 68.8284 72.3935 69.3305 63.718C69.5937 59.1667 69.6225 53.8909 69.4135 48.0365C69.1661 41.0648 68.5781 33.1833 67.6682 24.6101L67.6677 24.6096ZM66.7608 77.5174V77.5095C66.7608 77.5095 66.7633 77.5105 66.7662 77.5105L66.7608 77.5174Z" fill="#EC3722"></path>
  <path d="M73.4751 30.6382C73.2993 30.5999 73.1086 30.6858 73.0083 30.8458C71.7716 32.8028 70.5404 33.2125 69.7263 33.2125C69.5108 33.2125 69.3027 33.1847 69.107 33.1286L69.0315 33.1068L69.3081 36.5134L69.3802 36.4786C72.3194 34.9988 73.4175 32.7666 73.6842 32.1175C73.8069 31.8216 73.8561 31.5052 73.8243 31.2043C73.7871 30.8671 73.6738 30.6824 73.4751 30.6377V30.6382Z" fill="#EC3722"></path>
  <path d="M10.1327 31.7761L11.9912 28.2632L13.8398 29.241L11.9813 32.7539L10.1327 31.7761Z" fill="#02449B"></path>
  <path d="M12.8976 17.4295L19.0155 22.8021L21.1631 20.3574L22.8905 21.874L18.9519 26.3578L11.1066 19.468L12.8976 17.429V17.4295Z" fill="#02449B"></path>
  <path d="M27.7841 15.7543L24.6512 18.0386L25.2164 19.8716L22.8776 21.5769L19.9368 10.7997L22.3312 9.05371L31.6948 15.1479L29.356 16.8528L27.7836 15.7543H27.7841ZM25.9867 14.5113L22.9541 12.4211L24.0174 15.947L25.9867 14.5113Z" fill="#02449B"></path>
  <path d="M37.5366 4.36351L40.0318 12.1134L37.4481 12.9452L34.9529 5.1953L32.8307 5.87812L32.1264 3.69012L38.955 1.49219L39.6593 3.68019L37.5371 4.36351H37.5366Z" fill="#02449B"></path>
  <path d="M41.6613 5.98726C41.5983 5.21456 41.6817 4.48307 41.9127 3.79231C42.1431 3.10204 42.4913 2.48775 42.9571 1.94944C43.4225 1.41113 43.9957 0.973133 44.6766 0.634951C45.3575 0.296769 46.1214 0.0931651 46.9677 0.0241383C47.8051 -0.044392 48.5893 0.033077 49.3209 0.255552C50.0525 0.478524 50.6937 0.817202 51.245 1.27208C51.7963 1.72697 52.2418 2.2767 52.5815 2.92029C52.9212 3.56387 53.1228 4.27202 53.1859 5.04522C53.249 5.81792 53.1651 6.54991 52.9346 7.24017C52.7037 7.93044 52.3535 8.54473 51.8832 9.08354C51.4133 9.62185 50.8352 10.0608 50.1498 10.399C49.4639 10.7377 48.7025 10.9408 47.8652 11.0093C47.0184 11.0784 46.2321 11.0014 45.505 10.7784C44.7784 10.5554 44.1412 10.2158 43.5949 9.7604C43.048 9.30502 42.605 8.75529 42.2653 8.1117C41.9256 7.46811 41.7239 6.75947 41.6609 5.98677L41.6613 5.98726ZM44.4908 5.75585C44.5246 6.17001 44.6339 6.54544 44.8191 6.88213C45.0039 7.21932 45.2403 7.50536 45.5284 7.74124C45.8159 7.97712 46.1432 8.15193 46.5093 8.26565C46.8748 8.37937 47.2558 8.42009 47.6516 8.38781C48.0469 8.35553 48.4165 8.25373 48.7592 8.08191C49.1019 7.91058 49.3984 7.68463 49.6487 7.40504C49.899 7.12546 50.0882 6.80416 50.2159 6.44165C50.3435 6.07913 50.3907 5.6908 50.3569 5.27713C50.3232 4.86297 50.2134 4.48804 50.0286 4.15085C49.8434 3.81416 49.6045 3.52812 49.3124 3.29224C49.0199 3.05685 48.6906 2.88255 48.3251 2.76882C47.959 2.6551 47.5781 2.61438 47.1827 2.64666C46.7869 2.67894 46.4179 2.78074 46.0752 2.95257C45.7325 3.12439 45.4385 3.34984 45.1926 3.62893C44.9468 3.90851 44.76 4.22931 44.6319 4.59183C44.5038 4.95434 44.4571 5.34219 44.4908 5.75635V5.75585Z" fill="#02449B"></path>
  <path d="M63.1495 12.0616L59.8223 11.4706L57.9747 7.06431L57.2725 11.0177L54.5999 10.543L56.4261 0.263428L60.5847 1.00187C61.1574 1.10367 61.6421 1.27648 62.0399 1.52031C62.4373 1.76464 62.7487 2.05614 62.9742 2.39631C63.1996 2.73648 63.3491 3.10992 63.4221 3.51663C63.4952 3.92334 63.4932 4.34495 63.4157 4.78096C63.2766 5.5626 62.9756 6.16299 62.5118 6.58212C62.0479 7.00124 61.433 7.23216 60.6657 7.27387L63.149 12.0606L63.1495 12.0616ZM58.2827 5.33318L58.7873 5.42256C59.3142 5.51642 59.7384 5.47918 60.0587 5.31083C60.3791 5.14248 60.5758 4.85396 60.6488 4.44526C60.7213 4.03607 60.6364 3.69789 60.393 3.42972C60.1496 3.16156 59.7647 2.9808 59.2378 2.88694L58.7331 2.79756L58.2827 5.33318Z" fill="#02449B"></path>
  <path d="M73.0102 8.72352C72.7217 7.77602 72.1505 7.12647 71.2968 6.77488C70.9213 6.61994 70.5453 6.54545 70.1688 6.54992C69.7924 6.55489 69.4407 6.62689 69.1134 6.76693C68.7861 6.90697 68.4896 7.11157 68.2239 7.38122C67.9577 7.65137 67.7476 7.97366 67.5931 8.34959C67.4347 8.73345 67.3552 9.11534 67.3537 9.49374C67.3523 9.87265 67.4198 10.2297 67.5564 10.5654C67.6925 10.9011 67.8906 11.2025 68.1504 11.4687C68.4097 11.7354 68.723 11.9444 69.0906 12.0954C69.8927 12.4256 70.7549 12.3814 71.6767 11.9623L70.4529 14.9325L70.1599 14.9166C69.7194 14.8947 69.3195 14.8475 68.9605 14.7745C68.6014 14.7015 68.2592 14.5983 67.9348 14.4647C67.2688 14.1905 66.6828 13.8017 66.1762 13.2987C65.6696 12.7956 65.2777 12.2201 65.0006 11.5715C64.7234 10.9234 64.5734 10.2277 64.5501 9.48431C64.5267 8.7409 64.6683 7.998 64.9742 7.25558C65.2802 6.51317 65.6994 5.88945 66.2318 5.38491C66.7637 4.88037 67.3552 4.49997 68.0049 4.24323C68.6545 3.98649 69.3389 3.85936 70.0571 3.86036C70.7753 3.86185 71.4716 4.00139 72.146 4.27899C72.53 4.4374 72.891 4.63356 73.2293 4.86745C73.567 5.10135 73.9057 5.38838 74.2454 5.72756L73.0112 8.72352H73.0102Z" fill="#02449B"></path>
  <path d="M77.6754 12.2712L80.8208 14.6092L83.2251 11.3753L85.4035 12.9947L79.1738 21.3733L76.9955 19.7539L79.5652 16.2981L76.4199 13.9601L73.8501 17.4159L71.6718 15.7965L77.9014 7.41797L80.0798 9.03737L77.6754 12.2712Z" fill="#02449B"></path>
  <path d="M90.2082 21.7616L88.1038 19.3159L86.7812 20.4536L88.7679 22.7628L87.0251 24.2615L85.0384 21.9523L83.6736 23.1263L85.778 25.572L84.0352 27.0707L80.1607 22.5676L88.0765 15.7593L91.9505 20.2624L90.2077 21.7611L90.2082 21.7616Z" fill="#02449B"></path>
  <path d="M90.7888 28.9136L92.5887 32.4563L90.7242 33.4033L88.9243 29.8606L90.7888 28.9136Z" fill="#02449B"></path>
  <path d="M8.46488 44.1675C8.7599 43.9267 8.99333 43.6734 9.16617 43.4077C9.33901 43.1415 9.45324 42.8734 9.50936 42.6022C9.58039 42.2586 9.55704 41.9616 9.43884 41.7109C9.32113 41.4601 9.13091 41.3076 8.86867 41.2535C8.68788 41.2162 8.52746 41.2396 8.3874 41.324C8.24734 41.4079 8.11622 41.5296 7.99405 41.688C7.87137 41.8464 7.75614 42.0297 7.64688 42.2382C7.53761 42.4468 7.42487 42.6519 7.30766 42.854C6.83881 43.662 6.32128 44.2172 5.75409 44.5196C5.1874 44.8215 4.51492 44.8925 3.73764 44.7321C3.21317 44.6239 2.75673 44.4377 2.36834 44.1735C1.97945 43.9093 1.66904 43.5766 1.4366 43.1748C1.20367 42.7731 1.05467 42.3088 0.989108 41.7814C0.923548 41.254 0.955335 40.6784 1.08447 40.0547C1.35167 38.7621 1.98343 37.6437 2.97973 36.6997L4.88692 38.2814C4.45234 38.6061 4.10865 38.9453 3.85634 39.2984C3.60404 39.6515 3.43865 40.018 3.36018 40.3979C3.27028 40.8319 3.30306 41.1755 3.45802 41.4293C3.61298 41.6826 3.81711 41.8355 4.07041 41.8881C4.22388 41.9199 4.36294 41.9204 4.48711 41.8896C4.61127 41.8588 4.73395 41.7898 4.85513 41.683C4.97632 41.5758 5.0985 41.4293 5.22167 41.2426C5.34534 41.0558 5.48639 40.8284 5.64582 40.5597C5.82512 40.2384 6.01484 39.9266 6.214 39.6237C6.41317 39.3207 6.64809 39.063 6.91827 38.85C7.18846 38.6369 7.50483 38.4855 7.86789 38.3956C8.23046 38.3057 8.66504 38.3126 9.17163 38.4174C9.67773 38.5222 10.1193 38.7005 10.4962 38.9528C10.8732 39.205 11.1772 39.5129 11.4081 39.8764C11.6391 40.2399 11.791 40.6576 11.8631 41.1298C11.9351 41.6016 11.9152 42.1091 11.803 42.6514C11.6982 43.1574 11.5189 43.6719 11.2651 44.1943C11.0108 44.7168 10.6959 45.2029 10.3199 45.6533L8.46339 44.167L8.46488 44.1675Z" fill="#02449B"></path>
  <path d="M10.6969 49.5635L5.02003 49.6727C4.71557 49.6787 4.40417 49.6961 4.0863 49.7254C3.76844 49.7542 3.48087 49.8292 3.22509 49.9498C2.96881 50.07 2.7622 50.2562 2.60575 50.5085C2.4488 50.7608 2.3748 51.1129 2.38374 51.5653C2.39218 52.0172 2.4796 52.3643 2.64598 52.6061C2.81186 52.8475 3.02543 53.0257 3.28667 53.141C3.54742 53.2557 3.83747 53.3217 4.15633 53.3391C4.47519 53.356 4.78709 53.3615 5.09155 53.356L10.7684 53.2472L10.8201 55.9467L4.76921 56.0629C3.14463 56.0942 1.95115 55.7451 1.18927 55.0166C0.427384 54.2881 0.0315437 53.1529 0.00174387 51.6119C-0.0280559 50.0705 0.324078 48.9189 1.05715 48.1571C1.79023 47.3953 2.96931 46.9986 4.59389 46.9673L10.6447 46.8511L10.6969 49.5645V49.5635Z" fill="#02449B"></path>
  <path d="M3.10289 68.0199L2.25906 64.7483L5.50078 61.2379L1.61191 62.241L0.93396 59.613L11.0445 57.0054L12.0994 61.0948C12.2445 61.658 12.2887 62.171 12.2321 62.6338C12.1749 63.0966 12.0384 63.5008 11.8228 63.8475C11.6068 64.1941 11.3291 64.4846 10.9894 64.72C10.6497 64.9554 10.2653 65.1282 9.83615 65.2389C9.06732 65.4371 8.39583 65.4122 7.82218 65.1649C7.24804 64.9171 6.78267 64.4533 6.42606 63.7735L3.10239 68.0199H3.10289ZM7.20384 60.7989L7.33197 61.295C7.46558 61.8134 7.67567 62.1834 7.96174 62.4054C8.24782 62.6268 8.59201 62.6859 8.99431 62.5821C9.3966 62.4784 9.66927 62.2603 9.81231 61.9276C9.95535 61.5949 9.95982 61.1698 9.82622 60.6514L9.69808 60.1553L7.20384 60.7984V60.7989Z" fill="#02449B"></path>
  <path d="M13.9907 71.9168L12.5792 68.9695L11.0053 69.7233L12.2912 72.4084L10.2181 73.4011L8.93222 70.716L5.23506 72.4864L4.06244 70.0386L13.4797 65.5291L16.0638 70.9241L13.9902 71.9168H13.9907Z" fill="#02449B"></path>
  <path d="M20.6053 81.0322C20.5864 80.6518 20.5214 80.3136 20.4096 80.0166C20.2979 79.7197 20.1499 79.4684 19.9646 79.2623C19.7302 79.0011 19.4774 78.8437 19.2057 78.79C18.934 78.7364 18.6986 78.799 18.4995 78.9777C18.3619 79.1014 18.2854 79.2444 18.2705 79.4068C18.2551 79.5697 18.275 79.747 18.3301 79.9396C18.3852 80.1323 18.4642 80.3339 18.567 80.5455C18.6698 80.757 18.7681 80.9696 18.861 81.1841C19.2335 82.0407 19.3731 82.7871 19.2802 83.4228C19.1868 84.0584 18.8451 84.6414 18.2546 85.1718C17.8563 85.5298 17.4351 85.7866 16.9921 85.9425C16.5491 86.0984 16.0966 86.1511 15.6352 86.0999C15.1738 86.0493 14.7114 85.8933 14.248 85.6331C13.7846 85.3729 13.3401 85.0059 12.9145 84.5322C12.0324 83.5499 11.5069 82.3779 11.3386 81.0158L13.7439 80.4194C13.7474 80.9621 13.8164 81.4399 13.951 81.852C14.0856 82.2647 14.2828 82.6148 14.5415 82.9033C14.8376 83.2331 15.1336 83.4109 15.4296 83.4362C15.7256 83.462 15.9699 83.3885 16.1622 83.2157C16.2789 83.1109 16.3618 82.9992 16.4105 82.881C16.4592 82.7628 16.4765 82.6228 16.4621 82.4624C16.4477 82.3015 16.4025 82.1162 16.3256 81.9062C16.2486 81.6961 16.1492 81.4473 16.0276 81.1598C15.8756 80.8246 15.7365 80.4874 15.6114 80.1472C15.4857 79.8071 15.4177 79.4654 15.4067 79.1213C15.3958 78.7776 15.4614 78.433 15.6044 78.0878C15.7469 77.7427 16.0107 77.3971 16.3956 77.0519C16.78 76.7068 17.1858 76.457 17.6124 76.3036C18.039 76.1501 18.4672 76.088 18.8973 76.1178C19.3269 76.1476 19.7535 76.2733 20.1762 76.4953C20.5988 76.7172 20.9957 77.0346 21.3657 77.4467C21.7109 77.8311 22.0188 78.281 22.2885 78.7955C22.5582 79.31 22.7628 79.8522 22.9024 80.4218L20.6043 81.0336L20.6053 81.0322Z" fill="#02449B"></path>
  <path d="M23.924 85.7246L27.1285 87.9802L29.4484 84.6853L31.668 86.2476L25.6569 94.7845L23.4373 93.2222L25.9166 89.7009L22.7122 87.4453L20.2328 90.9667L18.0132 89.4044L24.0244 80.8674L26.2439 82.4297L23.924 85.7246Z" fill="#02449B"></path>
  <path d="M30.2858 91.5294C30.5461 90.7989 30.923 90.1667 31.4172 89.6319C31.9114 89.0976 32.481 88.6804 33.1267 88.3815C33.7724 88.082 34.4752 87.9186 35.2345 87.8898C35.9944 87.8615 36.7742 87.9896 37.5743 88.2747C38.3655 88.5563 39.0489 88.9491 39.6246 89.4526C40.1997 89.9562 40.6452 90.5287 40.9606 91.1703C41.276 91.8119 41.4562 92.4958 41.5014 93.2223C41.5461 93.9488 41.4389 94.6773 41.1786 95.4078C40.9184 96.1383 40.5414 96.7709 40.0472 97.3053C39.553 97.8396 38.9809 98.2558 38.3312 98.5537C37.6811 98.8517 36.9744 99.0136 36.21 99.0404C35.4456 99.0672 34.6679 98.9396 33.8767 98.658C33.0765 98.373 32.3912 97.9797 31.82 97.4776C31.2488 96.9755 30.8078 96.4045 30.4969 95.7644C30.1855 95.1242 30.0077 94.4414 29.9625 93.7149C29.9173 92.9884 30.025 92.2599 30.2853 91.5294H30.2858ZM32.9603 92.4814C32.8208 92.8727 32.7661 93.26 32.7964 93.6429C32.8267 94.0263 32.9241 94.3843 33.09 94.7175C33.2553 95.0507 33.4813 95.3447 33.7684 95.5985C34.055 95.8527 34.3858 96.0459 34.7597 96.179C35.1337 96.3121 35.5122 96.3712 35.8951 96.3553C36.278 96.3399 36.6411 96.256 36.9843 96.1035C37.3275 95.9516 37.6319 95.7365 37.8977 95.4584C38.1629 95.1808 38.3655 94.8461 38.5051 94.4548C38.6446 94.0635 38.6988 93.6762 38.669 93.2933C38.6387 92.9104 38.5389 92.5514 38.369 92.2162C38.1991 91.8815 37.9707 91.587 37.6841 91.3327C37.397 91.079 37.0667 90.8853 36.6928 90.7522C36.3188 90.6191 35.9403 90.5605 35.5574 90.5759C35.1745 90.5918 34.8134 90.6762 34.4747 90.8297C34.1354 90.9836 33.8335 91.1991 33.5677 91.4767C33.302 91.7548 33.0999 92.089 32.9603 92.4804V92.4814Z" fill="#02449B"></path>
  <path d="M45.2706 100.999L42.5682 100.743L43.5531 90.3494L47.8547 90.7571C49.0219 90.8678 49.8871 91.2557 50.4498 91.9206C51.0125 92.586 51.242 93.47 51.1377 94.5729C51.0334 95.6759 50.642 96.5012 49.964 97.0489C49.2861 97.5967 48.3633 97.8152 47.1961 97.7049L45.5969 97.5535L45.2706 101V100.999ZM45.8035 95.3749L46.6995 95.4598C47.6923 95.5537 48.2292 95.1688 48.3112 94.3052C48.3931 93.4417 47.9377 92.9625 46.9448 92.8686L46.0489 92.7837L45.8035 95.3754V95.3749Z" fill="#02449B"></path>
  <path d="M64.271 95.4617C64.6832 94.8181 65.003 94.2262 65.231 93.6854L67.0776 94.7566C66.9758 95.0004 66.8546 95.2512 66.714 95.5094C66.573 95.7676 66.4056 96.0442 66.2124 96.3387L66.057 96.5766L68.9088 98.4269L65.6278 99.2344L64.5118 98.5252C63.5001 99.6297 62.4388 100.319 61.3272 100.593C60.8519 100.71 60.3995 100.745 59.9698 100.698C59.5397 100.652 59.1499 100.534 58.7987 100.345C58.4476 100.156 58.1481 99.9038 57.8998 99.5894C57.6514 99.2751 57.4751 98.9076 57.3713 98.486C57.2784 98.1096 57.2481 97.763 57.2794 97.4461C57.3107 97.1298 57.419 96.806 57.6037 96.4753C57.7413 96.223 57.9062 95.9946 58.0984 95.7905C58.2906 95.5864 58.5335 95.3674 58.828 95.133L59.0773 94.9289L58.8528 94.7705C58.1719 94.2441 57.7582 93.6854 57.6127 93.0935C57.5153 92.6992 57.5059 92.3118 57.5834 91.9314C57.6609 91.551 57.8104 91.2029 58.0324 90.8871C58.2539 90.5713 58.5405 90.2961 58.8916 90.0622C59.2427 89.8283 59.6425 89.6565 60.091 89.5458C60.5485 89.4331 60.9865 89.3988 61.4062 89.443C61.8259 89.4872 62.2078 89.5999 62.552 89.7812C62.8962 89.9629 63.1882 90.2023 63.4276 90.4997C63.667 90.7972 63.8354 91.1433 63.9327 91.5376C63.9988 91.8063 64.0276 92.0586 64.0191 92.2935C64.0102 92.5288 63.9561 92.7607 63.8552 92.9897C63.7549 93.2191 63.6069 93.45 63.4127 93.6834C63.218 93.9168 62.9682 94.1661 62.6628 94.4313L64.2715 95.4612L64.271 95.4617ZM60.6587 95.9658C60.1193 96.517 59.8983 96.9898 59.9952 97.3841C60.0304 97.5276 60.0945 97.6522 60.1869 97.7575C60.2793 97.8633 60.39 97.9452 60.5187 98.0038C60.6473 98.0624 60.7869 98.0996 60.9383 98.1145C61.0893 98.1299 61.2458 98.1175 61.4072 98.0778C61.8552 97.9676 62.2803 97.7058 62.6831 97.2932L60.6592 95.9663L60.6587 95.9658ZM61.205 93.4927C61.74 92.9619 61.95 92.4633 61.8353 91.997C61.7737 91.7462 61.6371 91.5491 61.4261 91.406C61.215 91.2635 60.9796 91.2238 60.7193 91.2878C60.4774 91.3474 60.2957 91.4775 60.174 91.6787C60.0523 91.8798 60.0215 92.1013 60.0811 92.3431C60.1606 92.6659 60.535 93.0488 61.2055 93.4922L61.205 93.4927Z" fill="#02449B"></path>
  <path d="M76.3389 85.3521C75.9605 85.3119 75.6158 85.3238 75.3053 85.3883C74.9949 85.4529 74.7233 85.5602 74.4913 85.7111C74.1973 85.9023 74.0026 86.1278 73.9072 86.388C73.8119 86.6482 73.8372 86.8905 73.9832 87.1145C74.0841 87.2694 74.2132 87.3668 74.3716 87.407C74.5301 87.4472 74.7084 87.4552 74.907 87.4303C75.1057 87.406 75.3173 87.3593 75.5423 87.2898C75.7672 87.2208 75.9927 87.1567 76.2187 87.0981C77.1231 86.8627 77.8815 86.8404 78.4954 87.0306C79.1088 87.2208 79.6323 87.6488 80.0649 88.3143C80.3569 88.7632 80.5456 89.2186 80.6311 89.6804C80.7165 90.1422 80.6986 90.5971 80.5769 91.0451C80.4552 91.493 80.2298 91.9255 79.9015 92.3432C79.5727 92.7608 79.1411 93.1427 78.6072 93.4898C77.5001 94.2094 76.2609 94.5471 74.8886 94.5029L74.6711 92.0348C75.208 92.1152 75.6908 92.1212 76.1189 92.0517C76.547 91.9826 76.924 91.8421 77.2493 91.6305C77.6208 91.3892 77.8423 91.124 77.9133 90.8355C77.9844 90.5475 77.9496 90.2947 77.8085 90.0777C77.7231 89.9461 77.6258 89.8473 77.516 89.7807C77.4067 89.7142 77.2711 89.6754 77.1102 89.6645C76.9488 89.6536 76.7586 89.67 76.5391 89.7137C76.3195 89.7574 76.0583 89.817 75.7553 89.893C75.4007 89.9913 75.0456 90.0762 74.6905 90.1477C74.3349 90.2192 73.9867 90.2336 73.645 90.1914C73.3038 90.1492 72.9735 90.031 72.6542 89.8363C72.3348 89.6422 72.0348 89.3283 71.7527 88.8948C71.4711 88.4613 71.2868 88.0223 71.2014 87.5768C71.1155 87.1319 71.1205 86.6994 71.2163 86.2787C71.3122 85.8586 71.5024 85.4569 71.7875 85.0735C72.0721 84.6901 72.4471 84.3475 72.9114 84.0455C73.345 83.764 73.8367 83.5296 74.387 83.3424C74.9373 83.1556 75.5045 83.0375 76.0891 82.9878L76.3384 85.3526L76.3389 85.3521Z" fill="#02449B"></path>
  <path d="M84.513 79.0175C83.5281 78.9112 82.7061 79.1813 82.048 79.8279C81.758 80.1125 81.5419 80.4288 81.3984 80.7769C81.2549 81.125 81.1833 81.4766 81.1833 81.8327C81.1833 82.1887 81.2554 82.5418 81.3994 82.8919C81.5429 83.2425 81.7575 83.5623 82.0421 83.8523C82.3331 84.1488 82.6525 84.3718 83.0006 84.5217C83.3488 84.6717 83.7039 84.7502 84.066 84.7561C84.428 84.7626 84.7832 84.699 85.1303 84.5649C85.4775 84.4309 85.7924 84.2248 86.076 83.9467C86.6948 83.3388 86.9928 82.5284 86.969 81.5163L89.2208 83.8076L89.0912 84.0708C88.8985 84.4671 88.6979 84.8162 88.4898 85.1181C88.2817 85.4201 88.0522 85.6937 87.8019 85.9395C87.2883 86.4441 86.7003 86.8304 86.0387 87.0991C85.3772 87.3677 84.6938 87.5018 83.9885 87.5018C83.2832 87.5023 82.5844 87.3672 81.8916 87.0966C81.1987 86.8259 80.571 86.4043 80.0077 85.8318C79.445 85.2587 79.0358 84.629 78.7805 83.9412C78.5252 83.2539 78.4075 82.5607 78.4269 81.8625C78.4462 81.1642 78.5972 80.4849 78.8808 79.8249C79.1644 79.1649 79.5657 78.5795 80.0862 78.068C80.3827 77.777 80.7046 77.5217 81.0527 77.3027C81.4009 77.0837 81.7972 76.8851 82.2427 76.7063L84.514 79.0175H84.513Z" fill="#02449B"></path>
  <path d="M87.6429 75.5772L89.7085 72.247L86.2836 70.1236L87.714 67.8174L96.5878 73.3197L95.1574 75.6259L91.497 73.3564L89.4314 76.6866L93.0913 78.956L91.6609 81.2622L82.787 75.7599L84.2174 73.4537L87.6424 75.5772H87.6429Z" fill="#02449B"></path>
  <path d="M93.0675 68.8866C92.323 68.67 91.6694 68.3309 91.1062 67.869C90.5435 67.4077 90.0935 66.8634 89.7567 66.2362C89.42 65.6095 89.2149 64.9178 89.1419 64.161C89.0689 63.4041 89.1508 62.6185 89.3882 61.8026C89.6226 60.9962 89.9748 60.291 90.4436 59.6871C90.9125 59.0833 91.4578 58.605 92.0796 58.2525C92.7015 57.8999 93.3739 57.6794 94.0966 57.5915C94.8192 57.5036 95.5528 57.5681 96.2973 57.7847C97.0418 58.0012 97.6959 58.3404 98.2586 58.8022C98.8213 59.264 99.2708 59.8103 99.6061 60.4415C99.9418 61.0726 100.145 61.7689 100.217 62.5301C100.288 63.2914 100.208 64.075 99.9726 64.8815C99.7352 65.6969 99.3826 66.4046 98.9152 67.004C98.4479 67.6034 97.9035 68.0776 97.2827 68.4252C96.6623 68.7733 95.9909 68.9918 95.2677 69.0792C94.5451 69.1671 93.8115 69.1026 93.067 68.8861L93.0675 68.8866ZM93.8607 66.1612C94.2595 66.2774 94.6494 66.3092 95.0303 66.2561C95.4113 66.2035 95.7629 66.0848 96.0857 65.9C96.4086 65.7153 96.6887 65.472 96.9251 65.171C97.162 64.8701 97.3353 64.5284 97.4466 64.1475C97.5573 63.7667 97.5941 63.3853 97.5558 63.0039C97.5176 62.623 97.4128 62.2654 97.2405 61.9317C97.0686 61.598 96.8357 61.307 96.5427 61.0582C96.2496 60.8094 95.9035 60.6272 95.5046 60.511C95.1058 60.3948 94.7159 60.3635 94.335 60.4161C93.9545 60.4688 93.6019 60.5899 93.2776 60.7791C92.9533 60.9683 92.6732 61.2137 92.4362 61.5151C92.1998 61.8165 92.0255 62.1577 91.9147 62.5386C91.804 62.92 91.7677 63.3009 91.8055 63.6822C91.8437 64.0636 91.9495 64.4187 92.1228 64.7479C92.2962 65.0772 92.5296 65.3662 92.8227 65.615C93.1157 65.8638 93.4619 66.046 93.8607 66.1622V66.1612Z" fill="#02449B"></path>
  <path d="M96.5814 56.3167C95.8061 56.3291 95.0814 56.198 94.4075 55.9229C93.7335 55.6478 93.1435 55.2604 92.6364 54.7608C92.1298 54.2613 91.73 53.6609 91.4369 52.9592C91.1439 52.2575 90.9904 51.4823 90.977 50.6331C90.9636 49.7934 91.0918 49.0157 91.3614 48.3001C91.6316 47.585 92.0116 46.9673 92.5018 46.4468C92.992 45.9264 93.5696 45.5177 94.2341 45.2207C94.8987 44.9238 95.6188 44.7688 96.3941 44.7564C97.1694 44.744 97.8941 44.8756 98.568 45.1502C99.242 45.4253 99.832 45.8152 100.339 46.3192C100.846 46.8232 101.246 47.4286 101.539 48.1348C101.832 48.8409 101.986 49.6141 101.999 50.4539C102.013 51.303 101.885 52.0827 101.615 52.7938C101.344 53.5045 100.964 54.1178 100.474 54.6332C99.984 55.1492 99.4069 55.5554 98.7419 55.8524C98.0773 56.1493 97.3572 56.3043 96.5819 56.3167H96.5814ZM96.5352 53.4786C96.9504 53.4717 97.3323 53.3873 97.6805 53.2249C98.0286 53.0625 98.3301 52.845 98.5839 52.5733C98.8382 52.3017 99.0339 51.9869 99.171 51.6288C99.3085 51.2713 99.3736 50.8938 99.3672 50.4971C99.3607 50.1003 99.2832 49.7254 99.1342 49.3723C98.9852 49.0192 98.7796 48.7088 98.5169 48.4407C98.2541 48.1725 97.9462 47.9629 97.5926 47.8115C97.2394 47.6605 96.855 47.588 96.4393 47.595C96.0241 47.6019 95.6422 47.6863 95.294 47.8487C94.9459 48.0116 94.6449 48.2311 94.3906 48.5072C94.1368 48.7838 93.9411 49.1011 93.8035 49.4587C93.6665 49.8162 93.6009 50.1936 93.6074 50.5904C93.6138 50.9872 93.6913 51.3621 93.8403 51.7152C93.9893 52.0683 94.1949 52.3767 94.4576 52.6399C94.7204 52.9036 95.0288 53.1107 95.3819 53.2621C95.7356 53.4136 96.1195 53.4856 96.5352 53.4786Z" fill="#02449B"></path>
  <path d="M90.2365 41.5067L98.1767 39.7011L97.455 36.5283L99.6965 36.0183L101.02 41.8374L90.8385 44.153L90.2365 41.5067Z" fill="#02449B"></path>
</svg>
