<?xml version="1.0" encoding="UTF-8"?><svg id="Calque_1" xmlns="http://www.w3.org/2000/svg" viewBox="0 0 393.79 463.44"><defs><style>.cls-1{fill:#bd4534;}.cls-2{fill:#545456;}.cls-3{fill:#9b9a99;}.cls-4{fill:#cecece;}.cls-5{fill:#7d7b79;}.cls-6{fill:#787675;}.cls-7{fill:#838280;}.cls-8{fill:#868584;}.cls-9{fill:#a09f9e;}.cls-10{fill:#92918f;}.cls-11{fill:#939290;}.cls-12{fill:#b8b8b7;}.cls-13{fill:#acacab;}.cls-14{fill:#b3b3b2;}.cls-15{fill:#6e6c6b;}.cls-16{fill:#232223;}.cls-17{fill:#999795;}.cls-18{fill:#a3a2a0;}.cls-19{fill:#9f9e9c;}.cls-20{fill:#9d9c9b;}.cls-21{fill:#464747;}.cls-22{fill:#7a7877;}.cls-23{fill:#a1a1a0;}.cls-24{fill:#979594;}.cls-25{fill:#9e9d9c;}.cls-26{fill:#babab8;}.cls-27{fill:#979a9f;}.cls-28{fill:#9c9a99;}.cls-29{fill:#959492;}.cls-30{fill:#cbcbca;}.cls-31{fill:#424243;}.cls-32{fill:#c2c2c1;}.cls-33{fill:#757576;}.cls-34{fill:#ccc;}.cls-35{fill:#70706f;}.cls-36{fill:#6f7174;}.cls-37{fill:#7a7876;}.cls-38{fill:#bebdbc;}.cls-39{fill:#e45b42;}.cls-40{fill:#ef7d68;}.cls-41{fill:#373737;}.cls-42{fill:#7d7c7a;}.cls-43{fill:#606162;}.cls-44{fill:#a6a5a4;}.cls-45{fill:#4e4e4e;}.cls-46{fill:#bfbfbe;}.cls-47{fill:#cacac9;}.cls-48{fill:#fffeff;}.cls-49{fill:#a6a9ae;}.cls-50{fill:#82817f;}.cls-51{fill:#646565;}.cls-52{fill:#b3b3b3;}.cls-53{fill:#56585a;}.cls-54{fill:#7b7d80;}.cls-55{fill:#706d6c;}.cls-56{fill:#fff;}.cls-57{fill:#63615f;}.cls-58{fill:#a7a6a5;}.cls-59{fill:#656361;}.cls-60{fill:#5d5b5a;}.cls-61{fill:#282828;}.cls-62{fill:#a8a7a6;}.cls-63{fill:#f9f8f9;}.cls-64{fill:#989795;}.cls-65{fill:#5a5c5f;}.cls-66{fill:#bdbdbc;}.cls-67{fill:#a0a09e;}.cls-68{fill:#fbfafb;}.cls-69{fill:#a2a1a0;}.cls-70{fill:#807e7d;}.cls-71{fill:#b3b3b1;}.cls-72{fill:#7c7a78;}.cls-73{fill:#d2d2d1;}.cls-74{fill:#9b9b99;}.cls-75{fill:#fefefe;}.cls-76{fill:#9e9d9b;}.cls-77{fill:#6a6c6d;}.cls-78{fill:#81807e;}.cls-79{fill:#797779;}.cls-80{fill:#b8b8b6;}.cls-81{fill:#b9b8b7;}.cls-82{fill:#9a9998;}.cls-83{fill:#848382;}.cls-84{fill:#cdcecd;}.cls-85{fill:#9d9c9a;}.cls-86{fill:#a6a8ab;}.cls-87{fill:#c2c3c2;}.cls-88{fill:#8c8b8a;}.cls-89{fill:#d8d8d7;}.cls-90{fill:#c1c1c0;}.cls-91{fill:#babab9;}.cls-92{fill:#9d9d9c;}.cls-93{fill:#c3c3c2;}.cls-94{fill:#9b9da1;}.cls-95{fill:#cbcbcb;}.cls-96{fill:#fcfcfc;}.cls-97{fill:#82807f;}.cls-98{fill:#757372;}.cls-99{fill:#dcdcdc;}.cls-100{fill:#c9c9c8;}.cls-101{fill:#a1a19f;}.cls-102{fill:#323132;}.cls-103{fill:#83868a;}.cls-104{fill:#9f9e9d;}.cls-105{fill:#d1d1d1;}.cls-106{fill:#92969a;}.cls-107{fill:#fefdfe;}.cls-108{fill:#7f7f7d;}.cls-109{fill:#c8c8c8;}.cls-110{fill:#fdfdfd;}.cls-111{fill:#663734;}.cls-112{fill:#b6b6b4;}.cls-113{fill:#9c9b9a;}.cls-114{fill:#7e7d7b;}.cls-115{fill:#2b2b2c;}.cls-116{fill:#585253;}.cls-117{fill:#b0b0af;}</style></defs><path class="cls-50" d="M338.61,134.23c-1.04,3.21-7.1,6.15-10.39,6.11l-.05,1.12c2.14,1.67,4.02,3.73,5.65,6.17,3.38-2.91,5.52-2.77,6.4.4.17,3.87.56,7.71,1.14,11.52,2.25-4.34,3.82-9.14,4.71-14.4.66-1.7,1.55-2.36,2.3-.53-.16.68.18,1.78-.15,2.57-10.92,38.65-15.59,80.7-26.3,119.15-.52,1.88-2.96,8.51-4.1,9.65.14.27.26.53.29.81.17,1.31-14.41,9.29-16.55,10.2l-1.47-.62-.56,1.56c-22.98,10.12-46.58,20.68-70.8,31.68l-6.85,2.2-.87,1.29c-14.35,7.44-29.29,14.59-44.49,20.35-.4.15-.89.12-1.39.07s-1.01-.18-1.52-.33c-2.56,2.27-5.96,3.06-9.27,3.44-2.82.33-7.45.82-9.06-1.61.14-1.15,1.16-1.72,3.07-1.71,1.36-5.13,1.57-10.38.62-15.76l-2.46-15.71c-1.66-26.64-3.93-53.23-6.78-79.77-3.71-2-2.91-3.87,2.4-5.59.09-10.11,6.64-14.84,14.93-19.23,42.79-22.32,85.51-44.42,128.15-66.3,14.97-7.38,29.55-15,43.74-22.87,1.63-1.72,3.35-2.65,5.14-2.79,2.55.35,2.34,4.91,2.15,7.14-.4,4.7-2.76,10.88-7.65,11.8Z"/><path class="cls-117" d="M56.94,192.27c-1.5.58-3.29.24-5.36-1.01,2.36,4.79,4.12,8.42,5.17,13.76.14,1.86,1.56,14.96,3.46,14.82,2.55-1.45,6.06-.91,7.73,1.15l-.89,1.12c-2.15-.07-4.42-.14-6.45.71.31,1.71-.39,2.19-1.83,1.22-.13,1.21-.51,2.32-1.14,3.34,6.67,4.36,13.79,7.98,21.34,10.87,1.67,1.23,1.53,3.52-.65,2.9l-2.49.14-13.08-6.16-1.54-1.92c-.8.01-1.57.08-2.3.21,2.7,9.46,4.79,19.17,6.27,29.13.49,1,1.41,1.81,2.75,2.43,1.05.71.5.99-.61,1.22-.99.94-1.04,2.82.89,4.72,10.25,5.85,20.98,11.15,32.17,15.89,1.93-2-3.72-32.83-5.52-37.75,1.77-3.84,2.02-7.57.74-11.18-3.01-7.66-4.38-16.8-5.06-25.12-.02-.29.25-.61.6-.93,1.13-2.01,2.41-.9,3.84,3.34,2.13,7.23,3.82,14.57,5.07,22.01.63,1.87,1.73,3.4,3.31,4.59l.24,1.42c-2.44,2.28-.95,4.75,4.46,7.43,10.99,5.27,21.87,10.57,32.63,15.92,1.94,1.03,5.16,5,1.77,5.16-.01,2.51-4.49-1-4.28-2.44-1.34,1.04-6.87-1.24-6.72-3.06-.58.11-1.15.19-1.73.18-3.87-.04-13.39-5.52-15.99-8.73-1.64.53-8.03-1.98-9.23-3.46l.06-1.43c-.91.79-2.08.14-3.51-1.93,1.79,11.67,3.28,23.37,4.44,35.12.74-.47,1.65-.53,2.73-.19l.91,1c-.83,2.67,1.7,4.55,3.65,5.82,8.99,4.25,17.92,8.67,26.79,13.28,3.41,4.11-.88,3.49-3.85,2.5-.52.09-1.05.15-1.57.13-1.95-.07-12.13-5.12-14.75-6.56-.87-.48-1.47-1.31-2.01-2.13-2.82-.56-4.86-1.78-6.11-3.67-.78.66-1.56.43-2.35-.7.37,4.42.61,8.84.7,13.29l-1.41.24-1.25.8c-10.53-6.5-21.76-12.04-33.67-16.6l-1.12-1.3c-.08-.55-.12-1.18.24-1.54s9.48-.78,10.36-.72c.48.04,5.18,1.92,6.02,2.3,2.27,1.93,4.68,2.94,7.21,3.01.83-.8,2.16-.65,4,.44l-.32-2.44c-7.31-2.99-14.45-7-21.41-12.05-2.2.99-6.2-1.35-6.72-3.67-1.04.4-2.15.24-3.33-.49.25,4.28.75,8.56,1.51,12.84l-1.23,1.1c-1.27,1.22-2.79.55-2.44-1.22l-1.46-1.74c-.85-4.77-2-9.66-3.43-14.15-1.08-.05-1.92-.83-2.52-2.35-6.67-2.75-12.76-6.24-18.25-10.48-.83.79-2.26.45-4.29-1,.67,3.55,3.06,15.2,7.01,15.72,3.65-.79,7.96-.69,11.25,1.26l.69-.71c2.28-1.56,5.34.86,6.72,2.44,1.62.91,3.53,6.95.54,7.73-5.6-3.15-11.39-5.83-17.35-8.02-4.55,1.3-4.74,2.94-.59,4.94,12.24,5.99,24.56,12.22,36.94,18.68,20.91,8.99,41.13,19.76,60.56,30.93,7.65,3.77,9.37,2.89,9.05-5.97-2.25-19.72-3.66-39.66-4.23-59.79-.22-11.99-1.69-23.69-4.41-35.11l.75-2.26c4.44-3.54,6.03,9.42,6.32,12.6,2,22.33,3.63,44.63,4.68,67.03l2.43,19.74c.23,5.46.39,9.24-4.5,12.88.05,1.58-.7,1.73-2.2,1.4l-1.56.25c-12.13-5.53-24.16-11.41-36.11-17.67l-2.05-2.14-3.16-.79c-6.24-3.73-12.52-6.93-18.83-9.59-1.46-2.45-5.51-3.28-8.35-4.78-11.45-6.04-25.11-11.81-35.83-18.55-12.04-7.57-13.21-18.85-16.62-31.65-7.72-28.98-14.29-58.32-21.68-87.38,10.33,1.85,12.41,12.62,13.69,21.73l3.81,13.36,1.37-.43c1.28-1,2.73-1.35,4.35-1.05.76-3.7,10.13-.38,10.39,2.44l1.57-.56,6.31,2.59c-.63-2.09-.81-3.99-.55-5.7-.46-.17-.98-.47-.96-.89.21-4.54-.59-10.93-2.71-15-2.99-.14-5.98-1.17-8.95-3.07-2.86-.64-4.97-1.86-6.33-3.65l-1.37.4c-4.1-1.97-7.92-4.14-11.46-6.51l-1.42.57c-2.63-2.09-5.41-3.9-8.36-5.46-.85-1.59-1.56-2.3-2.44-4.28l.89-1.12c5.95,2.93,12.15,5.5,18.58,7.69l14.68,6.32c6.69,1.58,11.69,5.08,16.96,9.19,2.15.7,6.33,2.62,3.26,4.8Z"/><path class="cls-109" d="M204.19,62.74c1.36-1.32,2.03-1.32,2.44.61,3.98-.04,8.81.25,11.61,3.67,2.69.12,5.34.52,7.94,1.19,35.14,11.96,70.24,24.07,105.31,36.24.69.24.55,1.19-.21,1.67l.48.73c1.56-1.01,7.44.53,7.47,2.94,1.35-1.23,2.45-.5,1.83,1.22.54.17.53.37,0,.61.75,1.69-4.21,4.9-5.87,5.77-55.51,28.49-112.66,57.96-167.79,87.24l-19.02,9.16c-6.73,2.6-15.56.1-22.16-2.67-40.41-16.98-83.35-35.33-122.94-52.68,0,1.28-.76,2.65-2.12,2.12-.43-.17-1.94-8.83.78-8.02,1.45-.12,2.92.54,4.41,1.98,2.47.79,4.05,1.96,4.75,3.52,40.14,16.73,80.12,33.55,119.92,50.47,7.36,4.1,13.01,2.9,20.08-.44l42.2-22.69c15.47-6.85,29.84-16.08,43.54-25.01,2.16-.06,3.76-1.06,4.78-2.99l7.27-2.01c-.59-1.06-.63-2-.1-2.83-.03-.69.17-1.3.61-1.83.43-1.36,1.24-1.15,2.44.61-.05-.97.55-1.73,1.78-2.29-4.9-2.42-9.92-4.75-15.07-6.96-2.91-3.85-.97-6.27,5.82-7.29l1.36-.57c1.46-1.06,3.43-.81,5.91.74,5.66,3.45,11.36,5.35,17.11,5.71l1.41.88c1.35-1.91,5.19-4.78,7.33-3.67,1.13-1.75,2.35-2.36,3.67-1.83,1.82-2.48,3.86-3.5,6.11-3.06,4.67-4.71,11.78-8.16,18.33-9.17,1.37-3,4.87-3.64,7.94-3.67l.41-1.56,5.78-2.86c-33.08-11.22-66.37-22.74-99.89-34.56-7.95-2.97-16.18-6.07-22.56-10.78-5.93-1.61-17.46,3.27-23.13,5.82-50.64,23-100.79,45.7-150.46,68.1-3.51.98-5.26,2.71-5.26,5.17.2-.52.4-.52.61,0,.53.17.53.38,0,.61,1.18.68,1.27.96.13.46,5.9,2.73.93,4.81-3.19,1.6-1.3-1.01-5.99-7.89-4.88-9.4,15.51-8.26,31.84-15.41,47.85-22.72,32.98-15.06,66.82-30.59,100.21-44.6,9.51-3.99,24.29-10.83,34.02-12.72l1.3.09c1.85-1.87,8.7-2.95,9.7-.09Z"/><path class="cls-12" d="M341.06,111.62c1.55-1.25,3.36.36,1.83,1.83.2.42.42,1.06.15,1.28-3.87,3.09-10.74,7.25-15.53,9.66-43.3,21-86.04,42.61-128.21,64.83-2.21,2.49-6.44,4.85-9.78,4.89-6.33,3.08-12.44,6.34-18.33,9.78-.64,2.12-2.81,3.27-4.89,2.44-7.1,3.62-13.92,7.68-20.46,12.15-2.85,3.72-6.82,6.19-11.93,7.4-2.55,1.22-8.23-1.7-9.17-4.28-5.21-.67-10.07-2.7-14.6-6.08-.76.08-1.48.09-2.08-.18-4.9-2.14-9.52-4.4-14.28-6.72-1.04-.51-2.14-.85-3.26-1.07,1.73,1.36,2.16,2.56.61,4.28.74,4.97.94,10.65,1.99,15.42,1.14,5.16,4.33,9.72,4.7,15.52.15,2.39-1.46,3.63-1.7,5.57-.51,4.17,2.65,11.63,3.5,16.4.76,4.27,1.72,10.27,1.92,14.58.08,1.75.29,6.53-.12,7.88-.54,1.78-3.66.01-4.79-.53-6.49-3.09-12.87-6.8-19.33-10-3.74-1.85-12.79-4.01-11.26-10.09.18-.73,1.07-.26,1.25-.38q1.4,1.33,0,0c.21-.14.38-.92.61-1.22-.28-1.19.74-1.8,3.06-1.83l1.52-1.01c5.15,1.26,10.09,3.11,14.84,5.53l.74,1.59,1.73,1.27c2.35,0,4.97,1.42,6.77,3.13-.59-3.42-.57-6.52.06-9.28l-1.33-.76c-.51-4.91-1.09-9.75-1.73-14.52-2.94-.63-8.09-2.9-10.78-4.64l-.22-1.47c-2.57.84-3.99.23-4.28-1.83.6-1.19,1.2-1.15-.17-1.97-3.03-1.8-6.12-2.12-8.82-3.4-1.82-.86-4.61-3.17-6.69-4.31-3.66-2.01-9.49-2.54-3.87-7.44,2.03,2.72,4.51,3.69,7.81,4.69l21.06,9.56c5.84,5.93,5.71-.63,1.9-3.5-2.11-1.59-6.62-3.45-9.12-4.46-6.12-2.47-12.81-4.69-18.95-6.44l-.87-1.08c2.69-1.62,3.83-2.33,7.33-1.83,1.05-.44,2.38-.28,3.99.46.88-1.07,2.37-.09,2.12,1.38,4.35.07,9.36,1.97,12.22,5.5,1.6-.54,3.25-.17,4.95,1.1-.67-1.6-.48-2.79.55-3.55-1.47-1.86-2.18-4.37-2.14-7.54-.99-2.96-1.09-5.53-.3-7.74-.93-.27-1.46-1.38-1.58-3.33l-9.85-4.14-.8-1.7c-3.4.09-6.46-1.33-9.17-4.28-.4.42-.81.22-1.22-.61-2.08.76-3.38.19-4.28-1.83-2.15,1.04-4.76-.22-5.5-2.44.34-3.04-2.24-2.72-3.88-3.75-2.78-1.75-6.67-5.25-9.41-6.48-2.53-1.14-5.76-1.85-8.51-3.1-9.08-4.15-14.55-6.47-24.05-9.55-2.24-.73-5.33-3.83-8.53-4-1.97-4.4-3.53-9.9-1.83-14.66,1.53-1.29,2.68.55,1.22,1.83-2.26,1.91-.91,4.95-.61,7.33,1.31-.18,0-3.3,2.05-2.98,6.95,4.55,14.99,6.67,22.52,9.88,31.32,13.37,62.63,27.16,93.97,40.45,6.74,2.86,17.6,7.34,24.69,6.37,5.07-.69,21.8-9.61,27.25-12.46,39.69-20.76,79.51-41.59,119.19-62.28,14.52-7.57,28.79-15.55,43.73-22.26l6.31-4.99Z"/><path class="cls-103" d="M90.54,314.48c2.89,2.19-1,6.03-3.14,7.76-6.19,4.05-12.62,7.68-19.29,10.9-1.76,1.03-9.83,5.9-8.58,7.95,1.48.95,2.45,2.06,2.9,3.33,1.56-.95,3.48.03,3.06,1.83,1.97-.28,4,.74,6.11,3.06l1.15-.39c5.33,3.18,10.86,6.02,16.58,8.51l.6,1.66c3.6-.26,9.87,2.97,11.61,6.11,1.05-.16,2.08-.08,3.09.26l19.28,10.67c17.57,9.01,26.45,11.53,44.96,4.54l13.64-6.06,2.13.37c2.81-.89,2.68.59.97,2.5,2.73-.11,7.26.4,5.4,4.07-1.37,2.7-21.41,12.27-25.37,14.04-10.15,4.54-18.06,7.13-28.77,8.74l5.26,1.3c2.77-.02,7.55,1.92,3.39,2.95-16.2-1.53-27.77-10.03-41.55-17.72-4.84-.77-9-3.01-12.22-6.72h-2.48c-4.22-2.21-8.08-4.85-11.57-7.94-.19.21-.39.39-.62.5-.47.22-8.56-3.81-8.54-5.39-4.31.12-8.92-2.77-11.61-6.11l-1.21.69-6.73-4.97c.22-1.46-1.6-3.31-2.44-4.89.99-1.21,1.26-.46.56-.46-.94,0,.37-4.12,5.56-1.98,25.88,14.08,51.75,28.06,77.6,41.93l5.48,2.07c2.52,2.5,20.78.53,11.86-2.46l-11.54-4.46c-26.48-14.64-54.53-29.12-81.37-42.21-2.62-4.04-6.64-10.46-3.89-15.02,10.26-8.58,25.65-13.35,37.27-20.16.92-.04,2.36.28,2.44,1.22Z"/><path class="cls-43" d="M317.84,275.98c4.79,7.66,13.24,13.74,16.36,22.44,3.99,11.1-.61,23.89-9.32,31.34-1.35,1.15-6.33,4.04-6.74,4.86-.66,1.32-.44,5-.91,6.73-.19.53-.39.52-.61,0-.84,6.9-1.56,14.71-2.15,23.45-1.51-.2-3.07-.81-4.68-1.82-12.13.07-9.39,20.12,1.72,6.02.47-.45,1.04-.51,1.61-.12,1.47,1.01-3.64,8.15-5.05,9.13.41,2.68-5.34,4.35-7.46,3.8-5.63-1.47-7.55-8.12-8.47-13.22-1.17-6.54-2.34-13.19-2.89-19.88l-15.9,7.42-1.33-.73c-6.64,2.57-13.08,5.49-19.31,8.75l-2.26.2c-3.61,2.39-20.53,10.42-23,9.68-1.44-.43-1.47-2.97.11-3.65,29.69-15.86,59.78-31.02,90.26-45.49,7.25-3.22,10.78-10.73,9.98-18.3-.35-3.33-3.06-12.8-5.26-14.66-1.79-1.51-5.13-3.24-2.36.17,9.12,8.47,3.5,14.88-5.2,19.76-.44.24-1.01-.09-1.42-.45l-1.06-.94c2.53-5.26,0-8.73-3.56-12.75l-9.36-10.09.54-1.28c3.48-1.76,8.84-4.67,12.41-6.84.91-.55,4.92-3.16,5.31-3.55Z"/><path class="cls-36" d="M302.57,319.36c1.53-.47,2.22-.21,2.07.76,6.32-.74,9.03-3.97,12.47-8.86,11.4-11.15,14.19,5.71,2.24,12.76-34.8,15.96-69.83,33.85-104.37,51.82-20.23,10.89-40.77,20.32-61.64,28.31-1.59.72-2.68,1.65-1.59,3.29l-.71,1.13c.09,1.7-1.52,2.02-2.44.61-.66,0-2.52-.56-3.06-.61,1.63-1.53.02-1.07-.9-1.23-3.75-.64-7.06-1.52-10.71-2.44,3.87-3.85,10.81-2.88,16.13-4.33,6.9-1.89,15.66-6.36,22.16-9.61,4.48-2.24,12.5-6.02,16.29-8.76,6.44-4.66-5.88-3.19-6.31-3.57-.14-1.84,1.48-1.27,2.75-2.4.89-.79,1.64-1.47-.31-1.26l1.52-1.59c36.68-18.39,74.1-36.01,112.28-52.85l4.13-1.16Z"/><path class="cls-39" d="M262.85,13.25c33.75,10.75,67.73,20.87,101.43,31.77l.13,1.37c-3.18,2.21-6.17,4.76-9,7.41l-1.52-.22c-.86-.53-.83-1.36.08-2.49-31.92-10.36-63.89-20.88-95.92-31.55-4.18-2.24-8.47-3.85-12.89-4.83-9.22,3.92-2.16,6.69,3.48,8.72,28.14,10.13,56.38,19.59,85.24,26.91,5.14,1.79,10,3.85,14.58,6.18,1.54-2.24,2.74-2.6,3.61-1.1l.53,1.25-5.26,7.43-1.38-.12c-1.33,1.58-2.59,1.73-4.53,1.36-31.22-9.46-62.27-19.39-93.16-29.8-9.22-3.76-14.98-6.11-11.06-16.78-1.67-3.51,6.01-9.28,9.12-10.46,4.58-1.74,13.38,1.4,16.54,4.96Z"/><path class="cls-4" d="M11.11,142.78l5.47,8.27c1.34,1.38,3.03,1.69,4.91,1.5l-2.78-1.82.34-.62c.68-.02,1.36-.01,2.03.08,2.55.34,13.69,5.05,16.23,6.55.44.26.59.81.67,1.32,7.63,1.22,14.35,3.67,20.16,7.33,1.85.54,5.7,1.69,6.11,3.67,5.89.97,11.58,2.83,16.68,5.97,4.5.75,8.35,3.04,12.04,5.64,4.07-.43,10.91,1.69,13.44,4.89,1.28-1.45,6.94,1.76,6.72,3.67,3.16-.45,5.98.87,8.55,2.44,1.47.04,6.26.61,4.28,2.44,1.49-.11,2.1.29,1.83,1.22,5.06,1.34,10.05,3.06,14.97,5.16l.91,1.57c2.15-.35,4.24-.86,6.28-1.52l1.05.91,1.07-1.74,11.54-5.91,2.05.32.48-1.48c4.62-2.22,9.15-4.38,13.57-6.46,2.71-2.11,5.56-3.33,8.55-3.67,2.64-3.52,8.42-6.03,12.83-6.11,2.9-3.68,8.17-6.34,12.83-6.72,3.01-3.66,8.09-6.09,12.83-6.11.47-1.41,1.08-1.82,1.83-1.22l3.18-1.77c1.81-2.5,3.61-3.34,5.38-2.51.94-2.12,3.3-3.58,5.5-2.44.73-2.36,3.79-3.82,6.11-3.06.71.75,1.78,2.77,1.17,3.62-.48.67-7.12,1.73-8.14,2.44-.63.43-.09,1.51-.72,1.94-.8.55-3.1.62-4.26,1.13-2.36,1.02-5.17,3.07-7.04,4.56-10.21,8.18-22.1,12.99-33.56,18.99s-23.28,12.83-35.05,18.72c-8.34,4.18-15.03,10.27-24.99,7.12-5.16-1.63-12.15-4.9-17.35-7.09-34.54-14.51-69.01-29.65-103.88-43.37-1.29-.51-3.14-1.3-3.85-2.56,8.54,1.93,16.82,4.76,24.83,8.48l101.42,42.64c7.12.79,6.14-.7-2.94-4.46-43.7-18.42-87.51-36.4-131.41-53.94l-.5-1.41c1.97-2.07,3.41-3.65,4.32-4.75,1.16-.7,3.05-1.18,4.28-1.83Z"/><path class="cls-115" d="M319.06,375.58c-.44.29-.42.93-.61,1.22,1.56,1.44-.7,3.96-2.44,4.28l.55,1.33c-6.56,7.98-14.27,16.45-25.62,13.66-2.4-.59-7.69-2.76-7.92-5.21-2.03.27-4.57.03-4.28-2.44-11.74-7.85-9.62-17.63-7.61-29.91.19-1.17.98-2.13-.95-1.86-.09-.93.98-1.4,1.83-1.22l18.33-8.55c.55,6.34,1.39,13.41,2.62,19.68,1.65,8.39,4.46,19.24,15.1,11.48,4.02-3.79,5.77-7.9,5.47-13.21l.92-.45c.55-7.67,1.27-15.34,2.16-23,.15.09.5-.1.61,0,7.51,7.05,7.5,17.72,4.72,27.02-.74,2.48-2.23,4.69-2.89,7.2Z"/><path class="cls-2" d="M356.33,113.45c-3.92,5.84-7.29,12.02-10.11,18.54-1.33,1.61-8.59,6.35-7.61,2.24,5.69-3.99,8-12.55,5.5-18.94-1.76.56-2.25-.98-.61-1.83,3.14-6.98,5.51-14.73,7.1-23.24,4.01-15.89,14.11-29.06,26.51-39.46,2.62-2.2,7.11-5.68,10.39-5.12,2.98,2.21,5.29,4.36,5.97,8.39,3.13,18.66-16.63,25.97-27.64,36.23-6.39,5.94-7.34,15.13-9.49,23.2Z"/><path class="cls-102" d="M201.14,425.07c-1.07,5.14-4.58,10.49-6.72,15.28.2,2.54-3.29,6.14-5.26,8.04-7.12,6.85-15.01,9.49-24.68,6.62-.93,1.58-3.41.59-3.06-1.22-.43-.21-.8-.38-1.22-.61-9.76-7.97-8.04-21.9-3.18-33.21l.62-3.28c-4.71,1.32-7.93.41-9.65-2.7l-1.23-.53c.61-1.23,1.21-2.97,1.83-4.28.32,0,1.46-.57,2.44-.61l1.07-1.24,6.35-.02c2.93-1.13,10.24-3.58,5.89,1.68l1.16,4.52c1.87,27.29,9.22,33.81,22.03,19.57l.76-.07c-.91-1.23-.51-2.39.94-1.89,1.01-10.16,2.12-20.32,3.33-30.49-.84-.9-.47-1.25.61-.61,4.22-.68,7.55,6.19,8.7,9.88,1.26,4.04,2.43,12.37-.76,15.17Z"/><path class="cls-94" d="M235.35,1.03l.92.17c4.4-1.77,12.08.47,7.25,5.72-5.8,2.96-12.32,7.27-17.36,11.47-10.99,9.17-16.71,25.98-18.62,39.69-.28,3.01-1.39,4.57-3.35,4.66-4.66-.89-5.41-.17-9.68.49-.87.13-1.25-.5-1.32-.49,1.8.01,1.61-.78,1.84-2.13,1.8-10.74,5-29,11.1-37.78,3.62-5.21,23.32-21.45,29.22-21.8Z"/><path class="cls-99" d="M6.84,144.61c1.18,1.41-.08,1.27-.78,1.97-.82.81-3.72,2.39-1.66,3.84,13.02,5.1,26.17,9.96,39.09,15.29,29.45,12.14,59.25,24.15,88.6,36.66,2.74,1.17,7.99,3.46,10.36,4.92.88.54,2.09,2.35.87,2.71-2.03.6-4.28.98-6.35.33-41.95-17.34-83.43-36.03-125.84-52.26-3.28-1.25-6.74-2.78-9.17-5.5-.36-.4-.46-1.5-1.22-1.83.94-2.64,3.79-4.71,6.11-6.11Z"/><path class="cls-106" d="M135.76,397.57l.88-1.13c9.6,1.53,8.29-.09-3.93-4.87-24.22-12.66-49.28-25.9-73.34-38.71-2.46-1.18-9.04-4.12-4.91-.9,23.24,12.13,48.03,25.63,72.02,39.07,1.64.92,3.19,2,4.74,3.1s3.05,2.26,4.54,3.44c-9.59-1.14-15.34-6.2-23.42-10.49-10.65-5.66-21.42-11.08-31.98-16.9-8.61-4.74-17.79-11.5-27.09-15.07-1.19-.46-2.68-1.1-3.96-.95-2.41.28-.59,3.56-2.76,1.87-5.14-9.58-4.09-15.61,4.28-22.61.96.95-.21,2.3.1,3.82.19.94,2.14,6.01,2.65,7.18.35.82,1.53,2.84,2.18,3.32,2.35,1.72,8.23,3.45,11.38,5.11,2.07,1.09,4.45,3.11,6.71,4.29,19.19,10.08,38.99,19.01,58.07,29.31,1.82.98,3.35,2.74,5.44,3.73,2.3,1.09,13.72,4.16,14.26,5.92.24.81,0,1.24-.57,1.79-.23.22-5.39,1.93-5.95,2.02-2.35.36-7.18-1.14-9.34-2.33Z"/><path class="cls-27" d="M378.33,41.96c2.91.55,3.49,1.33,1.75,2.34.22,2.73-1.46,4.72-3.15,6.65-10.61,9.57-20.85,19.99-25.06,34.19l-6.41,22.71c-.86,1.94-2.48,5.32-4.4,3.15-.56-.46-1.2-.88-1.83-1.22l-.2-1.6c1.3-1.58,2.19-3.43,2.84-5.36,2.32-16.92,9.9-30.21,20.58-43.49,9.56-11.75.58-7.69-4.7-2.63-5.95,5.7-10.04,12.02-14.17,19.01,1.52,2.98-4.92,27.59-6.27,28.13-1.79.71-4.05.76-3.57-1.4-.46-.16-1.12-.49-1.06-.82,1.34-7.54,3.47-16.14,5.41-23.61.15-2.69.95-4.33,2.38-4.9.01-2.82,2.7-7.91,5.5-9.17,1.49-2.3,4.37-6.68,6.11-8.55-.7-1.73.11-2.44,1.83-1.83,2.2-2.23,7.53-6.77,10.39-8.55,3.18-1.98,7.53-3.73,11.32-3.72,1.52,0,2.1.58,2.73.67Z"/><path class="cls-53" d="M160.2,453.17c-1.21-.66-1.94-1.14-3.06-1.83-15.21-9.46-18.48-21.6-10.39-37.88,2.94-2.75,1.5,1.58,4.71,2.31,4.65,1.06,9.09-3.62,6.72,4.54-1.21,4.15-3.1,7.13-3.49,11.79-.72,8.75-.69,12.38,4.9,18.94.64.76,1.56.99.59,2.14Z"/><path class="cls-79" d="M257.35,5.3c.19,1.27-.28,1.64-1.43,1.74l-7.54.04c-1.28.88-2.36,1.1-3.25.67-4.95,2.53-9.47,5.84-13.57,9.93-14.62,8.94-18.07,29.35-20.49,45.15l-.61,1.19-3.82-.66c-.8-.22-1.63-.45-2.44-.61,2.68-2.88,2.35-8.31,3.35-12.23,2.92-11.36,8.12-24.6,17.13-32.36,4.27-3.68,9.49-6.68,14.03-9.8,2.12-1.45,5.97-2.34,5.12-5.43-1.35-.05-2.47-1.52-3.44-1.79-1.52-.41-2.68.39-4.12.51-1,.08-.87-.62-.92-.62,6-1.94,12.61-.97,18.32,1.54,2.24.98,2.2,1.44,3.68,2.74Z"/><path class="cls-111" d="M262.85,13.25c-6.73-2.14-11.63-6.58-18.87-2.68-3.1,1.67-5.26,5.06-6.79,8.18-3.5,11.79-.58,19.45,11.54,22.35l.07,1.48c-2.36,1.06-9.19-.05-10.39-2.44-3.64.96-11.38-1.51-13.63-4.57-6.32-8.59,13.07-24.89,20.35-27.82.9-.63,1.68-1.63,2.76-1.83,2.91-.52,6.63.81,9.46-.62,2.84,2.5,4.23,4.26,5.5,7.94Z"/><path class="cls-54" d="M387.5,45.63c-4.54,2.41-8.33,4.79-12.23,8.24-9.17,8.11-16.76,18.05-21.19,29.52-3.73,9.66-4.65,20.33-8.75,29.77-.55.46-1.29.18-1.82.29-.2.53-.41.53-.61,0-.25-1.03-1.3-1.3-1.83-1.83-.1-.1.1-.53,0-.61,2.05-.02,3.42-3.8,3.91-5.44,5.09-17.12,5.26-27.01,17.49-41.9,3.6-4.38,14.76-13.14,16.2-17.41.6-1.78-.67-3.63,2.11-3.08l-2.44-1.22c4.84.7,5.32.82,9.17,3.67Z"/><path class="cls-15" d="M356.33,113.45c-1.71,6.41-5.3,17-6.11,22.61-1.13,2.35-2.12,4.87-2.98,7.53-3.29,5.82-5.61,3.62-7.47-1.49-4.94,5.66-8.24,4.12-11.55-1.77,3.38-2.23,7.33-3.96,10.39-6.11.64,1.5,1.82.07,2.51-.24,6.3-2.93,4.72-4.76,7.55-10.17,1.77-3.39,3.92-6.82,5.85-10.04.41-.69.65-1.34.6-2.15l1.22,1.83Z"/><path class="cls-65" d="M56.94,365.19c2.03,1.49,2.94,2.8,2.22,5.4-2.14,6.92-2.83,14.52,3.59,19.45,1.82,1,4.22,3.45.91,3.26-.17.53-.38.52-.61,0-1.19-.61-3.21-1.72-4.28-2.44-10.03-6.77-13.69-15.57-10.83-27.64.2-.82.97-1.75,1.05-2.3,1.24-.96,1.47-.47,2.45.28,1.54,1.16,3.91,3.09,5.49,4Z"/><path class="cls-29" d="M14.78,174.55c1.13.97,2.51,1.86,4.14,2.66,3.83,8.09,7.63,16.63,8.92,25.52l.99,1.76c-1.77.65-5.34,3.92-6.73,2.18-.71-.9-3.41-11.57-3.99-13.76-.68-2.59-.8-5.53-1.54-8.24-1.84-6.77-4.21-11-10.96-13.78-.2-.41-.4-.82-.61-1.22,3.41.83,6.71,3.43,9.78,4.89Z"/><path class="cls-5" d="M350.22,136.06c-.45,3.15-1.14,5.56-1.83,8.55-1.6-.3-1.22.82-1.51,1.82-1.51,5.18-1.6,11.42-5.52,15.28-2.1.11-1.95-12.91-2.45-14.04-1.23-2.77-3.25.85-4.39,1.15-2.37.64-3.92-3.83-5.06-5.15-.63-.74-2.08-1.05-2.42-1.85-.85-1.96.9-1.3,1.18-1.49,2.06.46,4.24,4.16,5.83,4.31,2.53.24,3.42-3.9,6.01-3.67,1.6.47,1.68,5.49,4.3,4.82.8-.24,3.62-6.6,4.31-7.95.4-.78-.01-2.01,1.54-1.79Z"/><path class="cls-5" d="M240.85,185.55c-1.35-.47.9-1.39,1.2-1.55,1.43-.73,3.49-1.23,4.29-2.73-4.36-1.24-6.84,3.82-10.38.28-1.54-1.54.84-4.61,2.13-5.79,5.97-5.44,22.87-13.2,30.83-17.44,11.39-6.08,22.97-11.81,34.66-17.27,7.99-3.74,15.8-8.64,24.63-9.89l-.07,2.98c-4.83.17-4.07,2.98-6.02,5.29s-6.55,4.58-9.21,6.06c-1.5.83-4.7,2.44-5.78,3.38s-1.11.92.02,1.84c.5.08,1.09-.49,1.51-.61,1.22,1.47.93,7.94-1.22,8.55.95,2.7-.48,8.28-2.44,10.39.94.19,1.32.9,1.12,2.13,1.7.28,3.02,2.16.71,2.15-1.4,1.45-1.96,3.56-1.69,6.34l-1.36,2.21c.54.11.52.32,0,.61.93,1.85,1.83,2.97,3.59,4.2.58,1.1.93,8.96-.54,9.85-.17,1.4-1.62,2.52-4.35,3.36-.46,2.1-1.25,3.43-2.37,3.97,1.71.92,1.21,6.69-.61,7.33l-.32,2.13c1.24.67.7,4.24-.29,5.2l-1.07,7.83-1.37,1.33c1.04.02,1.04.42,0,1.22,2.42,2.37,6.93,3.46,11.73.66,3.24-.02,6.25-.45,9.04-1.27,1.13.26,1.03.73,0,1.22,2.58,1.64.29,9.77-2.44,10.39-1.6,4.89-6.32,1.73-8.55-.61l-.98,1.69-8.13,3.95c-2.81,1.32-4.02,3.97-3.64,7.95l-1.3.46c.93,1.96.95,4.4.04,7.34.24,2.36-.18,4.19-1.26,5.49.02.17-.82,1.11-.62,1.22,1.91-.47,2.53,1.06,2.5,2.78-.03,1.93-4.06,6.46-5.85,7.61-.9-.59-.84-1.17-.94-2.1-.32-2.82,1.21-10.33,2.15-13.19.56-1.7,1.96-2.86,2.15-3.96.27-1.52-.26-3.32.03-4.86.26-1.44,2.38-2.53.29-3.98-4.09,1.09-5.89,9.25-9.2,9.78-1.84.3-3.14-1.44-3.94.6-1.04-.36-1.45-1.2-1.22-2.53-2.27,1.51-4.1,1.95-5.5,1.31-.52.33-1.31.51-1.56.08-3.49-5.96,17.32-16.7,22.86-14.72v-2.32c-1.99-6.47-1.55-13.77,3.01-19.02-.73-1.47-.76-2.9.86-3.68.57-1.91,2.56-13.36,2.37-15.07-.11-1.05-2.78,2.85-3.08,3.48-2.1,3.62-8.05,5.24-9.79,1.15.14-1.06-.39-.75-1.58.93l-3.92,2.12c-.63,1.17-2.08,2.17-4.36,3l-3.38,25.53-1.42,1.41c-.02,3.24-5.91-.77-5.96-2.09l2.71-21.07c-.08-.43-.63-.86-1.65-1.28l-.72,1.37c-1.94.48-3.51,1.31-4.73,2.49-1.26,9.39-2.09,18.69-2.5,27.91,4.1-.79,6.8,2.84,4.8,6.73l-4.04,7.03c1.29-.2,1.91.1,1.69,1.52l-1.09,1.9c-2.86.81-4.74,2.21-5.63,4.21l.69.52c-.31,4.36-.72,8.82-1.22,13.39.73-.32,1.23.08,1.75.75,4.94,2.2-2.96,11-5.19,11.02-5.06.06.04-8.75.52-10.41,1.72-5.89,2.75-15.45,2.24-21.7-.46-5.6-3.28-7.16-.93-14.36,1.55-4.75,2.42-10.11,5.18-13.86l1.23-13.64c-1.03-.25-1.22.39-1.84.91-3.63,3.05-4.22,9.34-4.88,13.76-1,1.41-7.71-5.68-7.94-7.34-.49,1.31-1.9,2.54-3.06,1.22-2.43,3.22-8.19,6.07-12.22,6.11.07,1.97-4.26,4.38-6.11,4.28-.65,1.78-5.67,4.03-7.33,3.06-2.98-3.67-5.49-9.44-2.59-13.9.61-.93,1.9-1.42,1.99-1.8,1.08-4.55.24-11.61.59-16.39l.61.32c1.73,1.39,1.79,4.13,0,5.5,1.06,2.01,1.57,4.34,1.54,6.99,1.44-1.05,2.56-1.14,3.34-.27,3.07,1.19,5.81,3.3,8.21,6.34,8.52-2.34,12.89-6.23,18.93-12.34l1.65-.91c7.45-1.49,9.45-3.55,6-6.16-.73-5.09-.23-10.44,1.51-16.03l-.25-1.81c-4.03-1.2-6.4-3.47-8.56-6.97-1.11-.19-1.5-1.05-1.18-2.58-2.31,1.58-4.16,2.03-5.54,1.36Z"/><path class="cls-19" d="M295.23,140.95c-1.4,1.54-3.85,2.75-5.7,3.77-38.9,21.53-80.04,39.58-118.53,61.72-6.28,3.61-13.6,6.34-16.61,13.94-.85,2.15-.55,5.38-1.21,6.73-.89,1.82-6.29,1.43-4.21,3.09.56.45,1.58.32,1.95,1.59.98,9.98,2.24,19.86,3.16,29.83,1.53,16.63,2.01,33.48,3.67,50.1.71,7.1,4.1,20.54,2.9,26.73-.37,1.93-2.13,3.52-.46,5.95l-4.89.62c-1.55-.3-3.96-1.23-5.5-1.83,1.45-.43.72-1.56,1.18-2.13,1.16-1.46,3.01-2.36,3.75-4.24,2.05-5.18-1.35-21.09-1.88-27.54-1.82-22.33-1.69-46.96-4.96-68.98-.23-1.54-1.78-8.87-2.33-9.75-.5-.83-1.72-.72-2.5-1.01l-1.12.88c-1.11-.78-1.96-.46-2.55.96-1.08,3.91-11.33,7.56-14.4,4.67-1.44-1.36-1.88-2.89.34-2.84-.17-.45-.37-1.14-.09-1.34,2.87-1.97,8.34-4.77,11.7-4.77l1.08-.99c2.05.49,4.16.98,6.26.9,2.78-7.69,4.41-10.34,11.25-14.81l10.74-5.88c1.65-.78,3.26-1.65,4.89-2.44,6.19-3.37,12.3-6.63,18.33-9.78,3.3-1.54,6.47-3.37,9.78-4.89,31.53-17.09,63.5-33.18,95.93-48.27Z"/><path class="cls-64" d="M297.07,264.37c.4-1.34,1.6-2.66,3.61-3.96.45-2.03,1.28-3.16,2.5-3.37l-.83-1.81c.15-2.07,1.64-12.38,2.29-13.48.36-.61.96-.96,1.6-1.21l.26-.59c3.95,3.39,6.71,3.38,8.29-.02,1.56-4.4,2.46-5.26,2.44-10.39,4.93-10.93,7.63-22.48,8.08-34.68-2.7,2.88-8.27,5.81-8.08-.15-.53-.15-.52-.36,0-.61l1.02-1.06c3.95,2.67,6.42-4.58,7.38-7.58l1.38-.52c7.07-10.21,4.29-26.57-1.27-37.23-.22-1.17-.51-3.27.65-3.71,3.49,4.03,2.24,3.45,4.16,7.76,3.51,7.86,4.93,7.04,4.4,16.99-.38,7.09-2.67,12.4-4.09,19.13-2.16,10.23-3.04,21.15-5.38,31.29-2.66,11.58-5.58,23.03-8.07,34.7-1.56,7.33-.35,9.34-6.62,14.77-2.28,1.98-12.05,8.02-14.69,7.95-5.14-.13,5.32-10.51.96-12.21Z"/><path class="cls-69" d="M196.86,274.76c.03-.18.57-.63.64-1.47.32-4.04-.3-8.49-.02-12.58,5.73,3.72,5.71,11.21,5.53,17.44-.03,1.16-.77,2.72-.56,3.52.34,1.32,2.81,1.67,1.43,4.69-1.86,4.07-15.82,7.2-20.13,7.37-2.53.1-5.66-.81-7.99-.55-1.24.14-2.66,2.24-3.95.52l.56-1.66,7.63-4.12c-5.18-2.11-10.14-4.64-14.85-7.59l-.67-1.3c-.05-1.56-.54-2.84-.61-4.28l.41-2.04c1.71-1.49,18.94,8.16,23.16,10.6,1.5.05,7.85-3.47,6.37-5.51,1.42-.42,2-1.24,1.76-2.45l1.3-.61Z"/><path class="cls-9" d="M243.3,229.54c-.24,1.61-.29,4.91.12,6.3.21.72,1.21,1.27,1.56,2.1,3.02,7.11.67,11.49,1.37,18.18.33,3.16,3.47,5.74-.17,7.77-4.24,2.37-14.41,6.53-19.08,7.19l-11.3.61-.1-1.46c-2.03-.52-2.81-1.45-2.34-2.81-.16-.2-.58-1.02-.61-1.22.08-2.77,1.44-2.58,3.74-2.11,4.22,2.68,8.54,2.12,12.97-1.67l2.23.11.11-1.44,7.22-3.58c.53-2.47.73-4.97.6-7.49l-17.52-7.47-.18-1.41c1.52-1.99,3.94-3.08,6.11-4.28l1.76-.16c1.68,1.18,10.27,6.18,10.91,5.64.43-.37.85-10.45-1.6-10.57l1.15-1.02c.94-.43,1.69-1.56,3.06-1.22Z"/><path class="cls-56" d="M239.94,258.26c-.24.4-6.98,3.58-8.25,4.28l-1.93.43c-4.52-2.41-9.23-4.57-14.01-6.52l-1.16-1.86c-.29-.13-1.17.38-1.25-.36.43-2.82-1-8.07,1.25-10.03.89-.77,6.25-3.25,7.33-3.06"/><path class="cls-25" d="M186.47,216.71l1.3.02c2.78,3.62,7.45,6.87,12.14,6.7.91-1.74-.04-3.68,1.52-3.66,4.7,3.93,2.61,10.06,3.4,14.94.19,1.15,1.21,2.21,1.19,3.1-.05,3.28-9.28,4.83-11.75,5.95-3.67,1.67-6.27,4.22-10.82,5.06s-7.37-.2-12.1,1.34c-.7.23-2.2,1.26-2.59.15-.3-.44-.56-.99-.19-1.37-3.2-.79-5.37-2.17-6.53-4.13-.04-.81.03-1.63,0-2.44-.33-1.69-.2-3.32,1.82-2.83,4.27,2.29,8.89,4.08,13.6,5.24,2.96-1.58,6.06-3.21,8.41-3.64-.3-1.43.7-2.45,3-3.08l7.72-3.11c2.25-.75,2.67-2.39,1.28-4.91l-12.28-5.15-.33-1.47c1.48-2.08,1.3-4.28,1.22-6.72Z"/><path class="cls-25" d="M235.35,189.22c2.48-2.09,5.22,1.85,3.06,3.67-.62.92-1.72.91-3.3-.04-1.28,7.41-2.63,15.42-2.92,23.16,1.47-1.01,2.73-1.18,3.78-.51l.55-1.6c2.64-1.09,5.1-2.47,7.39-4.13l1.2-11.66c-1.4-.34-2-1.06-1.81-2.15-1.6-1.52.64-2.46,2.21-1.29l.85-.54c-.33-.85-.41-1.92.61-1.83,3.99-1.71,6.11,5.56,6.08,8.91-.21,3.79.04,7.54.74,11.25.04,1.01-.19,1.96-.8,2.76-.42.55-10.87,5.85-12.28,6.47-3.1,1.37-15.34,5.13-17.73,3.46-1.42-1-1.2-1.32.15-2.3.14-1.46,1.51-2.71,4.11-3.74-1.97-3.1,1.02-24.66,2.22-26.22l3.45-2.42c.81-.42,1.65-.81,2.44-1.22Z"/><path class="cls-56" d="M185.86,241.15c.02.74-1.82.96-2.37.78-2.92-.98-16.83-7.11-17.61-8.41l.42-1.53c6.37-2.35,12.47-6.29,18.94-8.55l13.44,5.8c.83,1.74,2.08,4.34.23,5.74-3.19,2.42-9.89,3.6-13.07,6.18Z"/><path class="cls-19" d="M270.79,258.87c.88-.49,6.39-3.4,6.72-3.05-.08,1.41.13,2.87,0,4.27-.09,1.08-1.14,2.76-.61,4.28,4.23-2.41,4.71,6,4.24,8.83-.32,1.93-2.48,3.28.07,4.88,2,1.26,5.46.64,1,3.51-3.04,1.96-13.98,7.25-17.25,7.24-2.71,0-1.64-1.59-2.44-3.07-.73-1.36-3.87-1.41-2.12-3.68.95-2.61,5.73-5.2,8.55-4.89l.37-1.52c4.82.15,7.57-9.49,2.62-10.61-2.41-.64-3.81-1.69-4.21-3.15-3.75-1.16,1.12-4.1,3.06-3.06Z"/><path class="cls-82" d="M194.42,300.42c.6-.27.35-1.45,1.22-1.22-.42,1.02.79,5.58,1.32,6.01.4.33,1.77-.04,2.55.19,2.63.78,1.18,9.47,4.39,9.71.59.04,4.22-1.49,3.35.27-.8,1.63-9.36,6.75-11.36,7.58-2.41,1-10.22,2.96-12.5,2.23-2.13-.68-3.96-4.13-3.53-6.09.3-1.35,3.82-1.23,2.34-2.19.3-1.68,1.79-3.02,4.47-4-1.57-1.12-1.29-3.08.42-2.11,1.46-.38,3.22-.27,5.28.32,1.11-2.65,1.38-5.83.79-9.53l1.27-1.18Z"/><path class="cls-101" d="M238.41,278.43c.72,3.11,1.37,5.63,2.17,8.52,1.09,3.93-.15,8.53,4.55,10.14-.22,1.34-1.08,2.54-2.21,3.26-1.34.84-6.13,3.17-7.75,3.86-1.86.79-13.65,4.92-14.47,4.16,1.69-2.22-.59-5.44-.49-6.44.07-.73,3.04-1.32,1.71-2.11,1.33-2.77,6.17-5.58,9.17-4.89.47-1.63,2.07-2.66,4.81-3.1l1.23-12.66,1.3-.74Z"/><path class="cls-32" d="M171.2,267.43c1.58,1.18,3.89,2.49,5.71,3.21,5.56,2.2,11.61,3.86,16.9,7.18.63.39,1.13,1.52,2.44,1.52-.96,1.63-7.43,5.22-8.87,5.18-1.06-.03-8.1-4.57-9.84-5.41-3.87-1.87-7.95-3.46-11.87-5.26-1.54-.71-1,0-1.8.9-.29-5.47.78-4.63,5.08-6.86.82-.42,1.91-.3,2.25-.47Z"/><path class="cls-71" d="M232.91,190.44c-.31,1.07-1.92,1.19-2.2,2.12-.85,2.81-1.53,9.09-1.98,12.33-.35,2.51-1.49,8.11-1.3,10.27.12,1.4,1.24,3.55,1.11,4.22-.17.87-4.15,2.73-5.4,3.44.35,1.9-1.46,2.94-3.06,1.83-.83.43-4.39,2.33-4.89,1.83.05-2.84-.07-5.71,0-8.55.33-1.91,1.8-1.93,4.43-.07.61-7.76,1.58-15.27,2.9-22.54,3.38-1.83,7.23-3.25,10.39-4.89Z"/><path class="cls-56" d="M325.17,144c.57,1.28,1.27,4.06-.61,4.28.28,5.3-.54,10.59-2.46,15.85-1.34-.38-2.76-.98-4.26-1.8-3.16.34-8.06-1.3-10.39-3.67.59-1.64.3-6.44,1.22-8.55,3.69-1.05,5.64-3.04,8.6-4.54,1.92-.97,4.77-1.87,6.9-2.88,1.97-.94.79.25,1,1.31Z"/><path class="cls-87" d="M166.31,231.99c.41.98,1.34,1.35,2.21,1.76,4.69,2.21,9.54,4.39,14.27,6.5,1.01.45,1.88,1.05,3.07.9-.07.05.18,1.05-.38,1.26-2.84.14-5.54,3.22-7.92,3.58-1.55.23-10.54-3.5-12.61-4.4s-1.7-2.28-2.92.78c0-.08-.6-.65-.64-1.47-.07-1.62-.29-6.03.01-7.26.33-1.34,3.67-1.19,4.9-1.65Z"/><path class="cls-112" d="M231.08,294.92c-3.1,1.45-6.11,3.42-9.17,4.89-.97.47-5.57,2.84-5.89,2.89-.69.12-3.91-.75-3.87-1.37.01-.17,1-.57.94-1.55-.09-1.38-.82-2.75-2.17-1.81-.64-8.56-.09-7.25,6.11-10.39,4.06,3.43,10.3,3.59,14.05,7.33Z"/><path class="cls-14" d="M181.59,307.75c.78-1.96,6.59,1.15,5.5,3.06-.01.1-.52.28-.6.55l3.65,1.88c-2.96.02-5.53,2.6-7.94,3.67-.99.44-3.88,1.62-4.72,1.7s-1.57-.34-2.33-.36c-.7-.02-1.39.5-1.5.49-2.15.93-5.29-.68-4.89-3.06-.28-.87-1.71-1.18-.6-2.13,2.4-2.03,7.09-3.53,9.76-5.57.63.09,3.5-.29,3.68-.25Z"/><path class="cls-69" d="M342.89,113.45c.2-.04.42.04.61,0-.02.69.37,1.23.61,1.83-4.64,4.98-11.48,7.77-17.5,10.91-10.3,5.37-20.73,10.18-31.38,14.75-32.29,13.86-63.72,33.44-95.93,48.27.38-1.05,1.37-1.28,2.23-1.74,42.66-23.12,87.08-43.22,129.68-66.46,2.22-1.21,10.99-7.43,11.68-7.57Z"/><path class="cls-46" d="M214.58,254.6c4.91,2.26,10.25,4.11,14.71,6.88.82.51,1.48.79,2.4,1.07-2.33,1.28-8.2,5.25-10.54,4.79-1.9-.37-6.8-4.15-8.4-1.13-.44-2.77-.61-9.8,1.83-11.61Z"/><path class="cls-56" d="M222.52,195.33c1.15.63.54,2.21.44,3.18-.72,7.08-1.32,14.21-2.28,21.26-.4.3-4.17-3.09-5.49-1.83.04-1.83-.07-3.67,0-5.5,0-.08.6-.65.64-1.47.14-3.02-.64-9.13.09-11.55.47-1.55,4.99-3.21,6.61-4.09Z"/><path class="cls-12" d="M268.96,277.2c-3.03,1.78-5.27,3.31-8.55,4.89-2.05.99-3.89,2.29-5.5,3.06-.52.25-2.85.82-3.05.61.39-4.56.78-9.17,1.27-13.72.07-.64.52-1.22.56-1.56.31-.38.76-.94,1.13-.84,2.41.69,11.8,4.78,13.84,6.09l.31,1.47Z"/><path class="cls-32" d="M199.92,214.27c.02,3.05-.02,6.12,0,9.17-.12.22-.66,1.03-.74,1.07-2.57,1.24-11.9-4.61-12.7-7.79-.03-1.08-.48-1.98-.6-3.03.21-.29,6.29-2.46,6.71-2.47,2-1.46,6.71,1.03,7.33,3.06Z"/><path class="cls-52" d="M303.18,257.04c-1.14,4.41-1.8,5.33-6.11,7.33-1.82.85-4.15,1.33-6.11,1.83-.44-4.8.41-8,1.22-12.83.18-.43.45-.91.89-.99.57-.11,10.68,3.09,10.11,4.66Z"/><path class="cls-56" d="M194.42,300.42c-.45,6.78,2.73,15.66-7.33,10.39.05-.39-4.83-2.91-5.5-3.06-.69-.55-2.04-.64-.45-1.35,4.41-1.97,8.96-4.02,13.28-5.98Z"/><path class="cls-64" d="M326.39,144c-.26,3.83,2.53,6.56,3.5,10.24,1.45,5.5,3.32,19.34,1.53,24.42-.39,1.12-1.9,3.56-2.6,4.76-.48.82-.51,1.8-1.82,1.51-1.68-.65-1.19-4.12.61-4.28,2.09-8.87,1.69-21.18-2.87-29.26l-.18-3.12c.31-1.42-.16-2.35.61-4.28.09-.24.7-1.24.92-1.23.64-.02.14,1.03.31,1.23Z"/><path class="cls-59" d="M201.13,210.61c.22-1.13-.39-4.12.1-4.8.32-.46,9.56-4.77,10.12-4.87,4.74-.92-1.43,6.27-2.93,7.48-2.32,1.87-4.21,2.59-7.28,2.19Z"/><path class="cls-47" d="M240.85,185.55c1.11-.59,6.64-3.64,7.33-3.05-.94,1.4-.43,2.87-.61,4.27,1.65,1.42,1.31,4.47-.61,5.5-.02.15-.49.89-.61,1.83-1.25.57-1.93-.26-2.04-2.5-4.23-.56-6.4-1.97-6.51-4.22,1.1-.58,2.12-1.33,3.06-1.83Z"/><path class="cls-71" d="M246.35,194.11c-.1.78.08,1.65,0,2.44-.15.19-2.5-2.45-3.05-.61-1.03,1.47-4.18-.15-3.67-1.83.1-.13-.31-.53-1.22-1.22-.58-1.78-.76-4.3-3.06-3.67.38-.2,1.31-1.23,2.44-1.83,1.26,2.28,6.09,2.25,7.35,3.34,1.03.9.12,2.65,1.21,3.38Z"/><path class="cls-75" d="M162.03,244.82l8.55,3.67c-.23.68-1.24,1.44-1.83,1.83-.73.47-6.46,3.33-6.72,3.05-.12-2.83.15-5.72,0-8.55Z"/><path class="cls-5" d="M340.45,124.45c.43.45-.78,6.91-1.28,7.26-1.26.88-5.24-.7-5.23-2.69,0-1.83,4.38-5.37,6.51-4.58Z"/><path class="cls-75" d="M199.92,214.27c-1.84-.27-5.9-3.1-7.33-3.06,1.78-2.23,4.92-2.99,7.33-4.28.02,2.44-.01,4.89,0,7.33Z"/><path class="cls-96" d="M168.75,315.7c.96.57,3.49,2.92,4.89,3.06l-6.72,3.67v-7.33c.53.4,1.51.42,1.83.61Z"/><path class="cls-69" d="M191.36,257.04c.67-.37,5.19-4.63,6.11-3.66-.08,1.33.15,2.7.03,4.02-.07.82-.63,1.39-.64,1.47l-5.5-1.83Z"/><path class="cls-68" d="M213.36,267.43c1.06,1.36,3.17,1.38,4.27,2.75,0,.12-1.48,1.32-1.82,1.53s-3.53,1.36-3.66,1.22c.02-1.12-.04-2.26,0-3.38s-.62-2.45,1.22-2.11Z"/><path class="cls-51" d="M313.56,311.42c2.14-1.7,3.24-1.91,5.8-4.28,1.48-1.36,3.21-1.64,3.84-4.1,1.75-6.81-2.61-6.98-4.99-11.85-.23-.48-1.55-2.89-.08-2.97.31-.02,4.6,2.32,5.16,2.77,2.59,2.05,2.05,3.99,3.06,6.71.38,1.02,1.26,1.78,1.57,2.71.73,2.17,1.68,9.59,1.26,11.65-.34,1.68-4.59,9.61-5.83,10.69-3.46,2.99-6.48,3.82-10.22,5.67-16.34,8.1-32.44,14.99-48.25,23.85-6.94,3.89-14.51,7.86-21.14,11.27-5.44,2.8-11.15,4.99-16.34,8.39l.31,1.22c4.77-1.12,8.85-3.66,13.3-5.64,1.13-.5,2.37-.35,3.46-.82,1.84-.8,3.94-3.07,6.13-3.66,1.58-.43,3.15.25,3.71.02.78-.33,2.19-2.39,3.68-2.99,3.68-1.49,7.76-2.82,11.59-4.33.84-.33,1.46-1.15,2.42-.29-.63.3-1.24.94-1.83,1.22-5.52,2.66-11.04,5.5-16.54,8.2-7.16,3.53-13.91,7.14-21.34,10.74-11.77,6.72-24.25,12.96-37.43,18.71-.52,1.47-.65,3.14-.37,5l-1.3.73c-.03.14-.53.37-.61.61-1.31,9.88-2.33,19.79-3.07,29.75-1.36,3.47-2.73-2.63-2.47-4.42-.84-1.08-1.65-2.18-.57-3.33-6.9-4.33-15.41,8.39-9.78,13.44,1.05-.71,2.59-.95,4.61-.71l4.95-3.55c1.41-.91,2.8-.54,2.05,1.21-3.09,5.13-7.11,9.59-13.72,8.52-9.36-1.52-8.58-25.03-11.36-32.09-.53-1.84,1.33-1.38,1.86-2.69-2.29-.05-4.27,1.49-6.46,1.78-2.38.31-5.13-.04-7.59.05-4.07-5.62,5.83-6.52,9.78-8.25,44.33-19.35,87.94-44.04,131.56-65.18,8.9-4.31,21.39-8.62,29.34-14.05,5.78-3.94,5.78-16.61-1.45-11.23-2.76,2.06-6.19,7.91-8.08,9.02-2.06,1.21-5.12,1.78-7.31,2.47-1,.31-2.19,2.3-2.3.14-.08-1.53,2.73-.55,0-2.14,2.28-1.15,5.97-2.45,7.92-3.99,1.35-1.06,1.76-2.9,3.08-3.95Z"/><path class="cls-75" d="M232.3,375.58c1.36.48-.9,1.38-1.2,1.55-5.59,3.08-11.16,6.76-16.55,10.33-1.55,1.02-4.24,1.45-5.19,3.41-.58,1.19.67,1.78.79,2.81.08.68-.53,1.49-.35,2.24.08.31,2.59,4.73,3.06,5.53.71,1.21,2.25,2.03,2.69,3.42s.53,4.42.15,5.72c-.32,1.08-1.75,1.66-2.33,2.56-3.77,5.86-5.93,8.06-11.44,12.4l-.78-.48c1.87-8.96.34-19.93-7.94-25.05.37-1.78-.74-5.47,1.04-6.76,10.79-4.96,21.47-10.17,32.15-15.35,1.8-.87,4.16-1.48,5.91-2.33Z"/><path class="cls-12" d="M143.09,229.54c1.07,4.98,2.5,9.87,3.05,14.97,2.41,22.12,2.69,45.01,4.28,67.21.37,5.21,1.59,10.63,1.83,15.89.2,4.45-.65,10.01-6.26,8.11-7.23-2.45-14.17-8.01-20.82-11.57-19.95-10.69-41.15-19.16-60.68-30.36-5.33-3.06-12.29-5.1-17.95-8.32-1.1-.62-7.31-4.41-7.31-4.9,5.81-7.39,16.67,1.4,22.91,4.57,2.15-1.75.08-4.77-.31-6.71-1.88-.59-2.22-3.86-.61-4.89l.64-.34c.84,5.57,3.77,10.5,4.25,16.23l-1.38.68c-6.42-3.49-13-6.86-19.75-10.11-.33-.12-.34.2-.28.54.25,1.55,22.03,11.31,26.08,12.06,2.66,2.1,5.46,4,8.4,5.71,20.78,8.89,40.93,18.99,60.46,30.3,14.37,5.84-1.13-5.85-5.77-7.08l-21.39-9.91-.54-1.42c-.83-1.86,1.58-2.44,2.44-.61,1.17-.58,3.5-.63,4.84-.38,8.59,1.62,18.43,8.09,25.63,12.92l.09-3.99c-.92-1.06-1.32-2.62-1.19-4.67l-7.82-3.68-.15-1.42h4.28c-.39-.97-1.39-1.78-2.24-2.34-5.53-3.66-14.23-6.33-20.38-9.56-3.92-2.06-11.7-5.35-9.15-10.71-1.27-1.21.27-3.33,1.83-2.44.08-1.77,1.58-2.11,2.44-.61,3.43-.2,3.64-2.23,3.73-5.22.91-1.31,3.81-1.49,4.22.33,4.57.45,8.24,2.08,11,4.89l1.02-.94c3.46.89,6.74,2.27,9.83,4.13.1-2.95-.2-5.91-.89-8.87l1.04-1.03c-1.76-.28-1.58-3.74,0-4.28-.02-.11.51-.5.27-1.21-.22-.66-1.28-1.92-1.88-2.37-1.66-1.26-6.97-3.79-9.17-4.88-7.9-3.94-20.98-8.67-27.66-13.89-3.48-2.72-4.42-4.4-.66-7.59-.46-1.23-.03-1.74,1.07-2.18l5.38.04c.73-1.6,3.02-.82,3.33.91l1.24-.92c6.08,2.41,12.31,5.42,17.71,8.86,2.4-.12,4.88.82,7.43,2.82-.41-2.62-.24-4.78.51-6.48-2.16-3.16-2.08-9.92-.61-13.44-.07-.64-.68-1.77-.61-2.13.29-1.45,3.11-.14,4.28.29Z"/><path class="cls-7" d="M61.22,233.21c5.63,2.13,11.65,5.29,17.11,7.94,1.41.69,2.72,1.06,4.28,1.83l1.63,9.14,7.73-3.61c.63-.06,1.2.08,1.64.58.2.23.82.18,1.09,1.02,1.17,3.65,1.41,10.22,1.97,14.25l-.11,1.33-5.29,1.77c.67,3.22-.73,4.47-3.15,1.79-6.3-2.29-10.08-5.25-17.11-6.11-2.96,1.42-3.21,1.04-4.42-1.89-1.61-9.46-4.13-18.67-7.54-27.64-.17-1.05.56-1.19,2.18-.42Z"/><path class="cls-95" d="M66.1,289.42c.81.38,1.56.82,2.44,1.22,1.06-1.39,3.83-.64,3.67,1.22,9.41,3.6,19.49,7.5,28.66,12.59,2.98,1.65,3.65,3.03,7.39,4.52,1.08-1.4,2.94.02,3.67,1.22,2.49.59,4.61,2.12,6.91,3.18,7.46,3.42,18.27,7.67,24.83,12.44,4.94,3.59,4.03,7.58-2.41,4.85-11.34-4.81-23.83-13.51-35.31-19.07-9.37-4.55-19.48-7.96-28.66-12.89-2.78-1.49-6.13-4.7-8.31-5.75-1.6-.77-3.71-.72-5.33-1.39-4.88-2.03-14.49-6.56-18.78-9.33-.95-.61-1.54-1.18-1.87-2.29l1.9-1.42c5.1,3.06,10.61,5.28,15.91,7.93,1.71.85,2.98,1.89,5.28,2.97Z"/><path class="cls-98" d="M14.78,174.55c4.07,1.93,10.09,3.34,12.83,6.11l1.6,1.37c.67,3.15,1.51,6.16,2.52,9.03l8.62-3.88,2.53.2c.35.18,1.43-.46,1.86.39.99,1.98,1.93,10.61,2.37,13.45.14.91-.58,1.88-.56,2.05-.02,2.08-5.31,3.59-7.33,3.67-3.57-1.51-6.54-3.86-10.39-2.44-2.93.69-2.29-4.09-2.86-6-1.25-4.17-6.58-19.14-8.91-21.94-.36-.43-3.54-.94-2.28-2Z"/><path class="cls-45" d="M88.1,313.25l1.01-.48c6.2,2.65,12.27,5.88,18.32,8.96,1.16.59,2.94.31,2.67,1.91-6.19,3.3-12.62,6.14-18.94,9.17l-.7,1.23c-8.12,2.83-15.58,6.8-22.39,11.92l-2.58.29c-1.25-.66-1.92-1.12-3.06-1.83-3.5-2.31.95-6,3.25-7.85,7.33-4.7,14.93-8.91,22.81-12.64,7.49-4.48,8.26-7.15,2.33-8.02l-.28-1.44c-.73-.33-2.15-.72-2.44-1.22Z"/><path class="cls-114" d="M56.94,192.27c1.86.75,3.67,1.69,5.5,2.44l1.42,1.37,2.88,21.65c.14.36,3.42,1.61,3.68,1.51,1.52-.6-2.88-19.04-4.57-21.46l.87-1.23c.47.2.86.45,1.22.61,2.72,1.8,5.01,4.05,6.89,6.75l1.6.69c.66,3.87,1.48,7.51,2.46,10.92l-1.52,4.83c.62,2.86-.49,3.68-3.31,2.47-2.38-1-3.61-1.36-6.11-1.83-1.95-.37-3.52-.95-5.85-.66-1.35.17-.44,1.54-1.78,1.27-1.02-.91-1.91-1.75-2.45-3.05-1.85-4.42-1.67-12.03-3.05-17.12-.93-3.44-4.22-8.05-4.6-10.68-.14-.93,0-1.07.93-.93,1.53.23,4.2,1.8,5.8,2.45Z"/><path class="cls-6" d="M28.22,217.94c3,1.64,6.31,2.7,9.36,4.25.29.23.87,1.43,1.03,1.86.82-.01,1.37.39,1.67,1.14l1.96,8.43,8.06-3.64,1.15.79c.03.08.72.26.86.66,1.51,4.31,1.98,8.9,2.8,13.39-1.03,2.29-5.33,3.75-7.94,4.28-1.11-.47-2.84-1.22-4.28-1.83-5.89.15-7.04-1.79-8.46-7.46-1.39-6.64-3.29-13.07-5.71-19.3-1.49-.58-2.65-2.13-.49-2.56Z"/><path class="cls-85" d="M90.54,207.55c5.84.86,7.45,4.33,8.53,9.63,1.21,6.7,2.95,13.21,5.19,19.53,3.44,3.07,4.2,2.01,4.61-2.28-.61-5.32-1.08-10.75-1.44-16.31l.82-.8c-2.83-2.04-.73-2.95,2.31-1.61,7.9,3.47,9.83,19.84,2.58,24.83-3.61-.91-6.78-1.32-9.78,1.22-3.78.78-4.76-5.09-5.32-7.81-1.44-6.99-1.92-14.01-5.18-20.52-.44-.89-.26-1.93-1.72-1.61-.21-1.41-.39-2.88-.61-4.28Z"/><path class="cls-105" d="M60.61,222.82c3.53-.82,5.52,1.32,8.39,2.31,4.67,1.61,10.38,3.26,14.83,5.33,1.59.74,6.36,3.16,7.55,4.06,2.29,1.72,2.63,8.43-.23,7.54-.84-.26-2.73-2.05-4.04-2.65-6.86-3.16-13.74-6.08-20.59-9.35-2.78-1.33-8.43-2.01-7.75-6,.48-.41,1.26-.88,1.83-1.22Z"/><path class="cls-50" d="M113.76,257.65c-1.23,2.08.4,14.17,1.32,15.32.98-.22,1.51.05,1.73,1.17-.23,1.39-.44,2.89-.63,4.52l-.3,2.31c.72,1.32-.4,1.9-3.35,1.73-.83.33-2.22.49-2.44.61-1.62,1.59-2.94-.79-3.49-2.55-1.3-8.36-2.69-16.69-4.16-24.97-.04-1.77.15-3.31,2.16-3.03,2.21,1.55,6.53,3.45,9.17,4.89Z"/><path class="cls-109" d="M50.83,222.82c-.97.96-7.21-3.08-8.75-3.77-3.5-1.58-14.53-5.05-16.23-7.59-1.21-1.81-.9-4.09,1.47-4.5,4.76-.84,16.67,3.92,20.67,6.8,3.23,2.33,1.86,5.64,2.84,9.07Z"/><path class="cls-10" d="M28.22,217.94c-.9.98,1.04,1.17,1.51,1.86.28.41,1.63,4.29,2.02,5.31,2.17,5.7,3.11,13.95,5.51,18.93,1.39,2.9,3.15,2.17,5.63,3.23-2.75-.1-5.1-.04-6.72,2.44-.53.1-1.03.8-2.01.53-2.56-.69-3.13-8.36-3.65-10.46-1.88-7.69-3.34-15.52-6.55-22.77,1.7-2.27,2.94.2,4.26.92Z"/><path class="cls-98" d="M61.22,273.54c.3,1.17.32,3.4.61,4.89l-.66.53c-1.48-1.62-4.29-2.05-6.06-2.98-.67.88-1.58.64-2.72-.71-1.51.25-6.19.16-7.34-.64-.8-.56-6.71-11.81-6.54-12.5.29-1.23.39-1.62,1.93-1.42,6.29,3.19,12.65,6.27,18.93,9.48.83.64,1.6,2.41,1.85,3.35Z"/><path class="cls-90" d="M36.16,249.71c1.02-.19,1.97-.79,3.07-.37l18.05,7.05c1.23.94.71,2.56,1.02,3.87.52,2.19,2.31,5.11-1.99,3.83-6.07-1.81-13.67-7.82-20.12-9.82-1.98-.98-.98-3.11-.03-4.56Z"/><path class="cls-23" d="M138.2,269.26c1.79,1.75-1.19,3.5-2.78,4.41l-8.4,2.78c-1.87,2.22-4.05,2.67-6.54,1.36-3.25-.02-3.48-.83-4,3.7,1.97,1.46,4.47,1.98,6.52,3.27.4.25,2.14.68,1.14,1.58-.84.76-9.47-4.5-11.61-3.66.77-.31,2.27-.61,2.36-.69.46-.42.7-4.29.29-5.29-.45-1.08-1.91-.29-1.42-1.96,1.46.31,2-.11,3.05-.61,4.16-2.01,8.26-4.17,12.45-6.19.88-.42,1.82-.75,2.21-1.76,3.18,1.26,3.53,1.15,6.72,3.06Z"/><path class="cls-23" d="M104.6,252.76c-2.21,2.38.1,6.66.53,9.55.81,5.36,1.15,13.67,2.8,18.58.35,1.05,1.16,1.95,2.17,2.42-.29.15-1.36,2-1.83,2.44-.82.78-2.03,1.42-2.75,2.43-1.98.05-2-12.03-2.21-13.66-.72-5.68-1.62-11.47-2.43-17.12-.3-2.07-1.36-3.97-1.21-6.18.32-4.92,3.81.74,4.94,1.53Z"/><path class="cls-56" d="M135.76,308.37c1.3.64,8.79,3.95,9.07,4.37.23.35.65,4.53.1,5.41-5.78-.94-12.48-4.38-17.79-7.33-2.53-.83-4.34-2.26-5.43-4.28-3.33,1.6-6.35-4.6-4.28-6.72"/><path class="cls-114" d="M138.2,269.26c1.36.81,2.73.85,3.46,2.44h.82c.37,2.23-.07,3.48,0,4.28l-.64,1.77c-4.21,1.72-7.67,3.36-10.36,4.95-3.78-1.39-7.51-2.82-11-4.89.74,0,2.82.11,3.26.05.18-.03,1.03-1.59,2.2-2.23,3.81-2.09,10.27-1.69,12.27-6.37Z"/><path class="cls-56" d="M101.54,297.36c-.36.38-4.64-2.02-5.5-2.44-1.16.33-2.18.01-3.23-.51-3.43-1.69-7.15-3.68-10.21-5.6-3.46.25-6.27-3.63-5.69-6.83.16-.86.34-1.09,1.42-1.12"/><path class="cls-17" d="M61.22,233.21c-2.03-.16-.98.34-.5,1.41,2.18,4.83,3.68,11.15,4.98,16.4.96,3.86,1.08,8.38,2.85,11.83.76.53,1.67.2,2.44.3-.65.71-2.18,1.66-3.06,1.83-2.73.55-3.53-.29-4.13-2.89-1.65-7.04-2.45-14.88-4.1-22.17-.3-1.3-2.22-6.64-2.15-7,.4-1.99,2.93.01,3.67.29Z"/><path class="cls-11" d="M40.44,260.71c-2.11,2.41.9,4.28,1.74,5.89,1.11,2.1,2.82,7.71,5.29,8.15,1.61.28,3.92.54,4.26-1.21,1.22.25,2.78,2.14,3.37,2.45l.91,1.84c-2.25.6-5.81-2.31-7.3-2.4-3.51-.19-5.42,3.62-9.2-1.26-1.36-1.75-4.99-13.11-4.54-14.92.56-2.27,4.27.86,5.47,1.47Z"/><path class="cls-28" d="M71.6,277.2c.19,2.61,1.18,11.5,4.37,11.36,2.38-.79,4.59-.7,6.63.25,4.17,2.13,9.09,3.99,13.44,6.11-3.32,2.42-4.98-1.39-6.88-2.59-1.45-.92-2.22-.45-3.45-.8-.56-.16-1.13-1.02-1.81-1.19-.61-.15-6.4.28-7.64.38-1.13.09-3.15.42-4.05,1.15-1.17-.45-2.4-.65-3.67-1.22.19-4.6-1.99-9.47-1.49-14.11.31-2.92,3.55.16,4.54.67Z"/><path class="cls-75" d="M27.61,180.66c.18.18,3.88,1.35,4.75,1.69,3.82,1.48,6.73,3.1,10.53,5.04l-12.21,5.5-3.06-12.22Z"/><path class="cls-37" d="M71.6,277.2c2.28,1.16,4.65,2.59,6.72,3.67-.65,1.28.44,4.65,1.2,5.66.2.26,2.73,2.1,3.08,2.28-2.65-.31-7.31,2.14-9.16.3-.86-.86-2.75-8.21-3.02-9.83-.19-1.13-.57-2.43,1.18-2.08Z"/><path class="cls-56" d="M51.83,229.84c.07.35-.42.83-.39.93-1.29.65-9.92,4.93-10.38,4.28-.62-3.33-1.27-7.91-2.45-11"/><path class="cls-72" d="M111.32,296.14c1.33.8,4.32,1.46,5.73,2.4.7.46.25.89.38,1.27,1.37,4.13.15,4.34,4.28,6.72.92,3.54-4.86,2.82-7.33,2.44-3.25.08-3.99-8.83-4.04-11.74l.98-1.09Z"/><path class="cls-24" d="M111.32,296.14c1.2,4.21.3,9.17,3.06,12.83.53.17.53.38,0,.61-1.56-.1-2.25.58-2.44.61-2.11.3-2.36-.7-3.67-1.22,1.85-3.82-1.72-9.75-.53-13.66.93-3.05,3.3.65,3.59.82Z"/><path class="cls-107" d="M55.11,244.82c.53,2.87,1.24,5.7,1.83,8.55-.4.41-8.56-3.76-9.77-4.27"/><path class="cls-75" d="M46.55,203.27c.01.1.9.65,1.07,1.65.32,1.88.86,3.75.76,5.68-.6.6-7.71-3.05-9.16-3.66,1.54-2,4.99-2.65,7.33-3.67Z"/><path class="cls-22" d="M210.3,88.4c-1.38,1.53-8.31-.35-9.76-1.44-2.49-1.86-2.96-2.62-3.64-5.63-1.37,2.44-3.42,4.39-6.15,5.84.53,1.65-.49,2.42-1.83,1.22-.54.56-1.1,1.1-1.71,1.57s-1.2.91-1.86,1.21c-7.14,3.22-14.37,6.45-21.78,8.94.96,3.5,1.65,8.97-.32,12.1-.92,4.86-1.09-3.9-.88-6.64l-.35-.7c.39,2.86.49,5.8.3,8.83,1.03.38.78.92-.3,1.25,1.87.09-.08,4.6-.75,4.84-.99.36-7.49-2.14-8.82-2.87-1.81-1-2.93-2.96-3.87-4.72-.95.15-.19-2.14-.18-2.02.05.67-.29,2.24-1.04,2.02-1.9-.86-1.77-4.53,0-5.5,3.07-.67,2.34.87-.61,0v1.35s-29.34,13.69-29.34,13.69c.67,5.84.97,11.52.9,17.04l-.88.32c.68,1.69-1.1,1.85-1.85.18l-.59-6.86-3.26.19c-4.59,3.85-7.58,3.98-8.96.39-.15,1.49-.56,2.31-1.22,2.44-1.22-1.31-1.91-3.13-2.07-5.45l-27.55,12.6c0,3.97.46,7.94,1.35,11.91l-1.07,1.1c-.06.7-.41,1.01-1.08.92-1.55-4.5-5.54-4.53-9.51-3.38-2.15.19-4.99-.41-5.91-2.42-1.71-.27-.79-1.49-.35-.87.5.71-13.55,7.54-15.08,8.04-.78.26-1.49.23-2.29.16-.38-.15-1.16-.02-1.82-.29-5.79-2.3-11.52-4.93-17.12-7.66v-.61l.87-1.15c51.05-23.6,103.67-47.21,155.05-70.24,3.48-1.56,7.11-2.83,10.61-3.97,8.38-2.74,13.68-4.09,15.44,7.13,1.4,2.52,3.88,4.05,7.44,4.62,1.8.49,2.42,1.32,1.84,2.51Z"/><path class="cls-81" d="M18.45,149.5c-1.2-.32-.66-2.57-.05-3.41,1.42-1.94,12.34-5.35,15.31-6.68,46.94-20.95,92.86-43.86,140.13-63.95,6.59-2.8,16.64-7.61,23.65-5.72,1.81.49,4.16,2.4,5.96,3.21,20.64,9.37,42.26,16.36,63.7,23.67,8.6,2.93,17.37,5.36,25.96,8.26s18.33,7.55,27.01,9.65c1.06.26,2.15.13,3.22.14-2.59,2.39-6.55,3.88-9.78,5.49l-3.5.44c-31.79-10.83-63.22-21.69-94.29-32.57-9.41-3.89-12.73-7.45-18.23-15.11-3.11-2.35-13.13,1.21-16.77,2.82-53.15,23.42-108.5,48.32-160.87,72.62l-1.46,1.13Z"/><path class="cls-113" d="M313.56,120.17c-2.63,1.31-5.37,2.43-7.94,3.67-1.75.51-2.36.11-1.83-1.22-4.23-2.08-10.12-4.22-14.92-4.7-8-4.12-16.26-7.24-24.79-9.36-2.99.92-7.5-1.06-9.17-3.67l-.44-.3c-6.95-2.38-14.34-5.13-22.17-8.26-7.4-2.32-14.79-5.13-22-7.94-2.45-2.29-6.85-1.98-9.19-4.56-3.31-3.65-.48-11.25-8.62-10.38-1.44.15-7.94,2.29-9.82,2.9-4.93,1.59-8.34,3.5-12.89,5.44-45.58,19.38-90.68,41.06-135.51,61.24-5,2.25-10.27,4.08-15.22,6.47-.2-.04-.42.05-.61,0,.29-1.25.55-1.31,1.49-1.93,2.79-1.81,7.76-4,10.93-5.52,38.98-18.64,78.79-35.32,118.15-52.93,10.39-4.65,20.61-10.55,31.36-14.47,3.54-1.29,12.81-4.57,16.05-3.85,2.98.66,7.16,8.9,10.25,11.14,7.26,5.28,20.23,8.47,28.84,11.48,23.64,8.27,47.13,16.89,70.86,25.07l7.19,1.67Z"/><path class="cls-12" d="M238.41,99.4c2.43,1.56,3.34,4.28,2.73,8.16-.95,9.12-1.75,18.14-2.4,27.06,1.1-.16,2.21-.29,3.34-.39.33-1.87,2.28-1.65,3.06,0,.2.03.42-.04.61,0-.51,3.8-3.21,1.67-4.91,2.09-2.95.73-3.24,4.06-.56,5.53,4.48,1.79,8.93,3.69,13.37,5.57.59.25,1.01,1.24,1.65,1.37,1.56.33,4.59-2.33,6.34-2.33-2.45,2.71-6.59,3.52-9.78,4.88-1.48-1.3-13.89-7.5-14.71-7.2-1.73,4.7-2.9,9.61-3.52,14.75-1.36,1.53-3.03,2.68-4.99,3.45-.89.74-.44.62-1.83,1.22l-.68-1.19c.73-5.61,1.14-11.22,1.26-16.8l1.26-.94-2.84-2.98c-5.14-.68-26.59-11.86-27.35-15.92-.31-1.65,2.38-3.37,4.15-3.88,1.28-.37,4.66-.34,5.88.17l1.04-.9c6.78,1.66,13.41,4.28,19.93,7.14l3.39-27.06,1.3-.56.29-2.16c-1.37-1.76,3.56-.29,3.98.94Z"/><path class="cls-89" d="M197.22,65.82c2.47-.62,9.74,3.76,12.96,3.45,31.95,11.6,64.17,22.53,95.94,34.21,6.01,2.21,16.96,4.76,21.92,8.01s-3.36,2.32-5.48,1.81c-2.44-.58-5.42-2.42-7.79-3.21-19.73-6.52-39.06-14.08-58.65-20.78-17.15-5.86-41.84-11.09-57.25-19.74-1.05-.59-4.19-3.12-1.65-3.76Z"/><path class="cls-116" d="M245.13,7.75c-6.11,4.27-18.39,14.27-20.03,21.82-1.2,5.54,1.97,7.06,6.45,8.56,2.07.69,4.68,1.38,6.86,2-6.94,3.78-13.4,4.97-16.79,12.84-1.79,4.14-3.17,9.55-3.37,14.04-3.84-1.17-7.78-2.62-11.61-3.67h3.05c1.32-5.17,1.47-10.74,2.75-15.89,1.97-7.94,7.13-21.12,12.89-26.82,2.47-2.44,5.13-3.47,7.54-5.29,3.82-2.87,7.15-7.09,12.26-7.6Z"/><path class="cls-86" d="M333.73,102.45c.09,0,.31.55.6.62l.62-1.84.91,2.44c2.13-2.25,2.15-5.99,2.91-8.7,1.15-4.11,3.77-11.51,3.99-15.58.08-1.39-.75-2.46-.36-3.97.25-.98,1.87-2.52,2.44-3.71,3.03-6.25,6.01-9.27,10.57-14.48,1.91-2.18,8.94-7.09,11.61-6.75s.3,3.21-.65,4.88c-6.6,11.47-16.2,20.19-20.12,33.65-1.98,6.8-1.86,15.52-7.02,20.78-2.45-1.34-5.94-1.94-8.54-3.11.09-.26.59-.46.6-.56,1.81.4,1.67-1.9,1.84-3.35.1-.3.32-.34.6-.31Z"/><path class="cls-80" d="M280.57,114.67c1.65,5.34,1.46,11.06-.57,17.16.2,3.75-.23,4.75-2.48,6.05-2.48,1.34-4.49,2.91-7.33,3.67.11-1.69,1.6-3.96,1.82-5.23.25-1.42-.37-2.73-.24-4.01.69-6.72,2.13-13.36,2.69-20.09,1.8.03,5.08,1.03,6.11,2.44Z"/><path class="cls-56" d="M287.29,133.01c-.52.02-1.12-.02-1.41-.42-.51-.7,1.92-15.74,2.7-15.6,5.17,1.72,10.24,3.59,15.21,5.63.56.2,1.3.86,1.83,1.22"/><path class="cls-70" d="M264.07,108.56c.65-1.25,1.98-.41,2.88-.13,4.02,1.28,11.83,4.99,15.3,5.52,3.04.46,2.04.61,5.24,2.05,4.83,2.17,10.23,3.62,15.21,5.57.43.17,2.63.43,1.09,1.04-4.82-1.73-9.86-3.05-14.66-4.89-.55,3.79-1.21,7.6-1.74,11.4-.15,1.04-.65,3.04-.1,3.88-2.02,1.09-4.04,2.08-6.11,3.06-2.17,1.09-1.69-1.71.35-2.46-.34-3.16-.09-6.4.76-9.72.58-3.46-.09-6.56-1.72-9.2-2.26-1.22-3.87-1.58-6.11-2.44-3.43-1.32-6.93-2.43-10.39-3.67Z"/><path class="cls-62" d="M228.63,162.33c.89-.74,3.35-2.35,3.54-2.87,1.17-3.2,1.99-15.14,4.4-16.41,1.45-.77,6.99,2.63,8.75,3.51,2.49,1.24,5.54,1.31,6.53,4.78-.07.03-.06.49-.31.62-.54-1.85-1.17-.96-2.14-1.23-1.98,1.31-5.11.29-6.11-1.83-2.72-1.25-3.96-1.17-3.7.22.53,3.7-.28,6.68-2.41,8.94-2.72,1.34-5.43,3.62-8.55,4.28Z"/><path class="cls-67" d="M281.18,136.06c-.74,1.32-2.66,1.29-3.67,1.83-1.58-.67.62-.55,1.01-1.48.32-.77.09-3.65.28-4.87.56-3.43,1.75-7.55,1.82-11.06.04-2.07-1.28-3.96-.05-5.81.66.36,1.54.08,2.13,1.23,2.18,5.48.16,10.36-.32,15.61-.09.95.51,1.91.46,2.45-.06.64-1.47.9-1.95,1.49-.2.24.31.58.3.61Z"/><path class="cls-75" d="M249.41,150.72l1.22,1.22c-.64.05-1.28.31-1.83.62-2.01,1.12-4.05,2.04-6.11,3.06-2.61.09-1.55-6.17.61-6.72,2.06.52,4.06,1.25,6.11,1.83Z"/><path class="cls-78" d="M124.76,221.6c-.14,1.98.34,7.14,1.27,10.37l-.66,1.24c.04.37-1.47,1.59,1.68,2.29,5.97,1.33,7.59-2.02,12.37-4.12.54,4.55.33,9.19.61,13.44-1.14,1.92-5.54,4.19-7.94,3.67-.07-.03-.72.55-1.63.15-4.94-2.2-12.53-6.89-17.31-8.09-1.18-1.76,1.65-2.48,2.29-4.13.84-2.17.95-6.64.76-9.01-.37-4.5-3.09-11.18-7.93-11.92-.04.61.01,1.22,0,1.84-1.17,2.15-1.3,4.89-.38,8.2.73,3.1,1.06,6.07.99,8.9.43,1.61.89,3.25,1.22,4.88-6.65,1.08-7.24-1.96-8.85-7.33-1.35-4.5-3.69-20.17-6.79-22.54-.96-.74-2.82-1.15-3.91-1.9,0-.03-1.2-.4-.3-.62,11.73,4.06,23.22,9.44,34.52,14.67Z"/><path class="cls-42" d="M77.1,201.44l.98.84,1.81,11.79c2.85-1.02,5.56-2.34,8.11-3.95l1.32.48c1.35,5.63,1.87,9.41,2.44,15.28.08,2.32-3.49,2.58-5.5,2.44-4.02-1.74-8.14-3.78-12.22-5.5h2.44c-1.33-2.93,1.03-5.22,1.21-7.71.07-.92-.9-8.13-1.19-8.99-.21-.61-1.61-.44-2.49-1.29-2.02-1.95-3.99-5.57-6.08-7.67,3.14,1.38,6.19,2.87,9.17,4.28Z"/><path class="cls-100" d="M67.33,266.21c7.7-.32,14.54,4.58,21.15,7.87,2.29,1.14,7.65,2.77,9.37,4.07,1.24.93,3.01,5.6.32,5.82-2.95.24-13.17-5.94-16.38-7.48-2.72-1.31-6.15-2.07-8.77-3.45-2.46-1.28-6.62-3.74-5.7-6.83Z"/><path class="cls-29" d="M66.72,196.55l4,11.58,1.5,12.85c-1.54-.46-6.13-1.39-6.61-2.86l-3.16-23.41c1.44.59,2.87,1.22,4.28,1.83Z"/><path class="cls-69" d="M166.31,206.33c-1.59,2.03-4.5,2.63-6.67,4.02-2.48,1.59-8.58,6-10.16,8.17-1.47,2.02-3.35,8.89-4.55,9.52-1.33.69-6.21-.48-7.95-.93-2.23.79-3.25.39-3.06-1.22,1.16-3.4,5.3-2.4,8.26-4.88,1.48-1.23,1.91-2.9,3.75-4.19,5.96-4.15,13.92-7.45,20.37-10.49Z"/><path class="cls-56" d="M89.32,210.6c-1.61,1.48-4.47,2.7-6.5,3.58-.72.31-3.51,1.58-3.88,1.31-.73-3.35-1.27-6.78-1.74-10.17-.14-1.04-.65-3.03-.1-3.88,3.55,1.68,7.81,2.89,11.34,4.85,1.49,1.05.58,3.06.88,4.32Z"/><path class="cls-75" d="M124.76,221.6c3.17,1.47,5.71,3.06,9.17,4.28,1,.35,1.69.86,3.06,1.22l-11.61,6.11c-.01-.13-.97-1.24-1.08-2.26-.27-2.47-.28-4.81-.58-7.38-.14-1.18-.85-2.25,1.05-1.96Z"/><path class="cls-75" d="M82.6,242.99c2.87,1.43,7.54,3.48,10.02,4.97.57.34.66.77.98,1.14l-10.38,4.89"/><path class="cls-117" d="M96.65,264.37c.02.12.5.46.57.96.5,3.77.3,7.99,1.26,11.87-1.46-1.3-2.98-3.18-4.67-4.18-1.96-1.15-5.38-1.29-5.71-3.76.54.19,2.18.84,2.44.61l-1.22-3.04,7.33-2.45Z"/><path class="cls-69" d="M189.53,194.11c-.38,1.05-1.37,1.28-2.23,1.74-5.3,2.84-10.71,5.4-16.1,8.03,1-1.32,3.01-2.35,4.48-3.16,4.52-2.5,9.3-4.48,13.86-6.61Z"/><path class="cls-96" d="M91.77,225.88c.17,1.72,1.05,3.55.61,5.5-2.05-.92-4.05-2.17-6.1-3.05,1.33-1.54,3.76-1.44,5.5-2.44Z"/><path class="cls-61" d="M68.55,371.3l1.78,1.78c1.31,4.27,4.03,9.19,9.25,7.68-3.06-3.01-3.68-4.53-1.86-4.57,4.88,2.27,9.37,5.33,14.05,7.94-.71.7-.86,2.53-1.22,3.06,1.13,1.17.51,1.78-1.83,1.83.15.67.08,1.31-.21,1.93-2.01,4.4-14.24,7.06-18.73,4.79-1.03,1.81-6.61-.43-6.11-2.44,1.24-1.78.28-.9-.61-1.5-2.75-1.85-6.14-6.08-6.45-9.47-.09-1.02-.12-4.77-.05-5.73.31-3.91,3.16-8.09.39-11.41,3.72,2.15,7.8,4.05,11.61,6.11Z"/><path class="cls-21" d="M71.6,349.3c-1.23-1-2.53-1.95-3.91-2.85.29-1.75,21.01-13.04,22.18-12.51l1.28,4.37c.75.1.83,1.56.61,1.83-1.01,1.43-1.04,1.62-.11.58-.62,5.47-.77,11.02-.45,16.63l-1.27,1.72c-2.17-1.14-18.41-8.39-18.33-9.78Z"/><path class="cls-16" d="M91.77,340.14c9.09,5.23,11.94,15.03,9.78,25.05-3.48-1.83-7.8-4.1-11.61-6.11.21-4.32-.29-8.84,0-13.14.06-.89.43-5.58.61-5.81.11-.13,1.12.14,1.22,0Z"/><path class="cls-77" d="M62.44,344.41c-1.56-.98-4.57-1.63-4.31-4.55.17-1.93,7.07-6.33,9.01-7.55,5.87-3.7,19.65-8.86,22.72-14.55.59-1.08.82-2.05.69-3.28,1.38.64,5.19,1.68,5.84,3.04.76,1.6-5.48,6.35-6.88,7.23-6.83,4.25-23.23,10.24-27.01,17.03-.57,1.02-.44,1.61-.06,2.64Z"/><path class="cls-31" d="M77.71,376.19s-.48.36-.29.61c.98,1.28,3.97,1.94,3.33,4.86-7.5,2.66-10.66-4.33-12.2-10.36,1.68.91,8.53,3.75,9.17,4.89Z"/><path class="cls-16" d="M91.16,332.81v5.5s-.55.7-.93.06c-.77-.77.48-4.36-1.2-3.72-.86.33-2.63,1.68-3.86,2.25-5.95,2.75-11.72,5.04-16.6,9.66l3.6,2.24c-.03.27-.55.42-.55.51-2.08-.87-4.12-2-6.11-3.06,7.82-5.61,16.99-9.29,25.66-13.44Z"/><path class="cls-35" d="M316.62,341.36c.29,6.87-1.05,13.67-1.83,20.47-.22,1.94.2,3.93-.14,5.97-.61,3.62-3.63,8.08-6.58,10.23l2.96-4.07,1.93-4.48c-3.12,2-8.04,9.56-11.25,4.23-4.32-7.19,6.1-17.06,12.47-9.12.21-7.66,1.25-15.26,1.85-22.91.13-1.62-.16-.78.6-.31Z"/><path class="cls-40" d="M353.89,53.57c-.58.58-1.34,1.3-1.83,1.83-1.58-.14-2.16,1.71-3.07,2.17-1.72.86-5.65-2.39-7.32-3.09-12.85-5.4-30.13-8.56-43.85-12.97-15.83-5.1-34.34-10.95-49.64-16.96-1.1-.43-7.74-3.4-7.98-3.77-2.18-3.36,1.67-7.22,5.33-7.33,2.92-.09,10.18,3.95,13.5,5.14,30.64,10.99,61.7,19.73,92.55,30.26.75.26,4.14,1.43,4.13,1.97l-1.82,2.75Z"/><path class="cls-1" d="M345.95,63.96c-2,3.1-2.99,6.45-5.5,9.17l-91.65-30.55c-4.2-2.76-8.37-1.97-11.61-6.42-3.8-5.22-2.68-11.98,0-17.41-.07,5.69-2.02,8.52,3.73,11.85,11.65,6.75,31.01,11.35,44.24,15.63,14.66,4.75,29.41,9.29,44.16,13.89,5.19,1.62,10.97,5.12,16.63,3.84Z"/><path class="cls-108" d="M148.59,112.23c1.67.75,3.54,3.22,4.92,3.93,1.02.53,2.3.47,3.35.92,1.11.47,2.14,1.51,3.1,1.8,1.1.33.71-.09.97-.7.19-.45,1.09-3.03,1.09-3.2v-10.08c1.08-.14.58,1.38.61,2.13.09,2.23-.06,4.49,0,6.72l.61-1.53c1.4-.64,1.66.03,1.85,1.34l.36,15.09c2.19-.88,4.1-1.06,5.73-.54,2.51-1.22,4.31-.76,5.4,1.39l1.53.24c2.37-.97,14.09-5.28,15.71-3.44,1.2,1.37.5,19.29-1.1,21.37-2.38,3.11-8.61-.41-7.83-4.07.49-2.04.4-3.74-.27-5.1l-1.08,1.58c-6,2.46-11.9,5.08-17.7,7.85l1,25.61,1.29,1.01c3.94-1.71,5.05.08,3.32,5.38,4.61-2.52,9.41-4.59,14.39-6.22.08-1.67.92-1.83,2.45-1.55s2.09,9.45,0,10.33c-.12.06-.26.66-.67.87-2.52,1.31-5.28,2.25-7.59,4.02-.58.04-.23-.83-.3-1.22-4.36,1.68-8.64,3.58-12.85,5.69.02,1.1-.17,1.56-1.2,2.26-4.66,2.34-9.81,5.52-14.66,7.33-1.03.28-1.59-.26-1.66-1.62-1.72,1.43-3.61,2.17-5.67,2.24-5.22-1.46-10.62-5.11-15.89-6.72-.19-.24-.35-.49-.37-.75-.19-2.39,6.86.9,7.75,1.65,8.57-3.51,16.9-7.72,25.07-12.2-1.12-.76-2.31-1.48-3.55-2.13-.23-6.65-1-13.2-2.32-19.66-1.54.35-2.87.19-3.98-.49.02-3.04-.59-5.69-1.82-7.97l-2.28,2.2c-8.36,3.81-16.78,7.47-25.26,10.97l.58,9.15-1.15.9c-1.1,1.05-2.64-1.6-2.82-2.53-1.19-5.92-2.96-27.46-1.13-32.56.26-.71.89-1.18,1.51-1.57l1.25.46c-.03,2.86.26,5.53.89,8l6.4-2.56,1.24.82c6.78-.86,4.63,3.01.48,6.03,8.18-4.86,16.77-8.64,25.78-11.34.91-.39,1.71-1.33,1.63-2.33-.23-2.87-2.03-9.67-2.92-12.74-.94-3.24-2.28-6.23-4.01-9.07-.47-1.29-1.05-4.53-.18-5.38Z"/><path class="cls-76" d="M187.08,114.06l.81-.25c3.78,1.85,6-.48,6.67-6.97.59-2.91,4.38-4.33,3.52-1.03.48.06,1.19.21,1.22.55.22,2.27.23,15.88-.53,17.07-.13.2-.39.32-.69.41,1.31-2.98,1.82-3.96,5.51-3.36.77-.5,1.66-1.02,2.44-.31,1.28-1.82,3.53.13,2.44,1.83-2.44,1.79-4.26.1-6.75.88-4.65,1.45-.93,4.31,1.42,5.98,3.98,2.83,13.87,8.45,18.33,10.38,1.66.72,4.06.49,5.58,1.76.86.72.74,1.4,1.23,2.16.16.25,1,.21,1.01.61,0,.47-.64.76-.65.84-.24.42-.65,1.02-.97.91-1.92-.61-13.57-5.34-14.58-6.17l-.33-1.47c-2.41-1.55-4.89-2.34-7.43-2.38-2.13-1.78-4.42-3.24-6.9-4.39-1.83,8.29-1.45,16.78-1.03,25.36l-.56,7.52c.67.27,1.16.53,1.25,1.38l-.16,1.45c-5.19,2.62-.32,5.94,2.88,7.93l.34,1.62c-4.2,2.13-8.67,3.95-12.83,6.11-.41-3.08.99-7.2-.92-9.77-.69.25.09,1.33-.66,1.9s-5.49,1.79-7.1,2.55c-1.49.7-8.63,5.09-9.64,4.1l1.22-6.72h-3.05s.38-1.49.38-1.49c4.48-1.97,8.97-3.97,13-6.73l1.82-26.8,1.29-1.03c.39-.1,1.04-.82,1.22-.61.58,2-.91,5.7-.05,7.04s4.71,4.05,5.9,2.16c.27-.43,1.4-8.85,1.49-10.12.23-3.32-.16-6.75,0-10.08-2.48.82-5.79.76-8.12,1.35s-4.22,2.76-7.58,2.75c-2.48-.01-2.7-2.61-3.59-2.78-.69-.13-2.21,1.16-2.7-.09-.81-.93-.34-1.47.6-2l9.94-4.03c3.69-1.13,3.93-2.48,3.45-6.13.04-1.39.31-2.4,1.89-1.89Z"/><path class="cls-8" d="M102.76,133.01c3.84,3.54,5.95-.59,8.59-1.55,1.62-.59,3.02.98,4.84-1.51l.63,9.78c.3-.06.52-.61.6-.62,1.05-2.09,2.85.39.61,1.22-1.19,6.04-.82,12.96-.61,19.24.17,4.97.48,9.57,1.38,14.51l1.68,2.91c.45-.18,1-.37,1.37-.12,1.03.73,1.6,12.75-.15,14.78-.59,1.3-1.88.23-2.66-.09-1.94-.78-3.98-1.53-5.89-2.35-.47-.93-.06-1.49,1.25-1.66-.81-3.34-1.7-6.63-2.67-9.87-2.86-.7-5.23-1.95-7.13-3.75l-.25,1.52c-4.57,1.6-8.36,3.33-11.36,5.2-9.55-3.93-19.15-7.73-28.72-11.61-.55-.83-.12-1.47,1.28-1.92-.13-4.95-3.81-8.75-8.04-10.87l-1.18-1.87c-1.78-.11-2.28-2.98-.61-3.67,1.72-.16,2.91,1.2,4.59,1.27,2.3.1,4.32-1.2,7.2-.53,1.6.37,4.76,2.41,4.12,4.44l.58-.29c.98-.78,1.45-.47,1.72.68l1.69,13.1.86.88c2.84-.74,5.1-.95,3.69,2.81.17,1.59,27.61-9.63,29.3-10.69,4.41-4.07.26-19.26-4.12-22.96-2.96-1.45-3.92-3.23-2.59-6.43Z"/><path class="cls-56" d="M148.59,153.78c.36-.01.65,0,.67.07.42,1.59,1.61,6.66,1.71,7.94.39,4.8,1.17,17.08.15,21.15-.32,1.28-21.69,11.2-23.74,11.53-.5.08-1-.05-1.4-.37.02-.28,0-.5-.31-.6-1.76,0-3.09-.28-3.97-1.84-.08-4.36-.21-8.85-.58-13.19-.07-.81-.63-1.39-.64-1.47-.15-1.66-.96-10.31-.53-10.92,9.68-3.49,19.05-8.71,28.64-12.3Z"/><path class="cls-25" d="M148.59,153.78c.15-.06.43-.89,1.22-.61l1.28,7.88c.47.4,2.88-.19,3.83.03,1.88.43,2.81,17.86,2.86,20.78,1.61-.27,4.18.75,3.61,2.7-.27.91-8.36,4.53-9.93,5.38-5.93,3.25-7.21,4.02-13.87,6.29-.81.27-1.67,1.31-2.13,1.34-.73.05-4.88-2.53-6.29-2.77-.88-.15-1.28.53-1.35.52-.56-.05-1.56-.88-2.45-.62.09-.26.61-.5.62-.6l24.14-11.6c.58-7.2-.87-14.42-.32-21.7l-1.22-7.03Z"/><path class="cls-38" d="M202.97,165.39c1.57.24,1.79,1.6,1.98,1.71.47.26,1.24-.35,1.73-.15,2.38.95,4.63,2.53,7.28,2.72-4.1,2.12-8.48,4.52-12.83,6.72-4.72-2.7-10.85-7.33-3.06-11-.21-2.42,3.69-1.38,4.89,0Z"/><path class="cls-3" d="M104.6,173.94c.21-.13.44-1.04.91-1.21.51,2.8,6.45,3.1,7.08,4.05,1.87,2.79,1.57,8.71,3.6,11.53l-3.05.91c-2.28-.98-5.22-3.03-6.72-3.67-1.48-1.35-2.69-8.03-2.64-10.16l.8-1.45Z"/><path class="cls-48" d="M104.6,173.94c1.36,3.6,1.35,7.8,1.83,11.61-4.25-1.8-9.18-3.13-13.44-4.89-1.05-1.27-.19-1.34.79-1.96,3.29-2.06,7.91-3.06,10.82-4.76Z"/><path class="cls-20" d="M56.33,154.39c5.69,2.28,10.83,7.12,10.42,13.71l-2.48.95c-2.15-.87-5.52-1.38-6.11-3.67-.76-2.93-1.25-7.72-1.83-11Z"/><path class="cls-37" d="M237.19,158.06l1.15-5.26c.32-1.65-.35-3.53.38-5.12,1.18-2.57,3.17.55,5.19,0l-.61,1.22c-.34,1.99-1.39,5.06-.61,6.72-1.82.89-3.69,1.55-5.5,2.44Z"/><path class="cls-110" d="M179.75,186.16c-3.4,4.05-9.35,5.58-14.05,7.94.13-.93-.44-2.49.38-3.12s10.61-5.08,11.67-5.31c.57-.12,1.12-.22,1.71-.12.18.17.26.37.3.61Z"/><path class="cls-110" d="M143.7,202.05l6.42-4.27.91,3.66c-3.29,1.23-3.74,1.62-7.33.61Z"/><path class="cls-33" d="M188.31,433.01c-.41-1.36-1.71.15-2.26.5-3.81,2.4-3.83,4.38-9.35,2.56-5.65-5.01,2.91-17.85,9.78-13.44.56.69,1.05,2.11,1.69,2.89l.75,5.66c2-9.94.59-20.92,3.67-30.55l-2.48,28.99c-.04,1.49-1.17,2.35-1.8,3.4Z"/><path class="cls-49" d="M135.76,397.57c-21.35-11.8-42.96-23.98-64.35-35.55-4.55-2.46-17.01-7.2-19.61-10.94-.51-.73-1.12-1.41-.96-2.39,6.86.94,12.75,5.3,18.79,8.4,11.86,6.08,23.59,12.13,35.39,18.38,11.41,6.04,23.74,13.65,35.64,18.13,1.66.62,5.92,3.51,2.65,4.52-.56.17-6.3-.4-7.55-.54Z"/><path class="cls-50" d="M285.46,208.77c4.56,1.41,5.22,2.23,8.54-1.54,1.69-1.92,2.48-5.21,5.51-4.57.5.55-1.17,10.02-1.5,11.64-.58,2.84-.67,2.89-.9,5.71-.04.43-1.26.32-1.31.74-.11.89.8,2.04.71,2.91-.05.45-1.53.64-2.05,1.75-.18.38-2.18,6.49-2.24,6.93-.64,4.04.78,6.4,1.14,9.82.53,5.03-2.33,3-5.08,3.31-4.44.5-15.8,6.33-17.63,10.53-.38.87-1.01,2.31.15,2.9-1.09.61-2.09,1.86-3.66,1.84v.6s1.22,0,1.22,0l-.61.61c-1.8,1.04-3.7,2.03-5.7,2.97l-1.64-.52c-.42-.97-2.78.59-3.06-.93-.24-1.29,3.82-6.71,4.42-8.4,1.52-4.34-.89-3.83-3.8-5.95.84-2.63,7.24-6.38,9.78-4.89.63-.78,1.5-.63,2.62.46,3.61-1.19,7.44-2.01,11.47-2.46,6.52-1.56,6.36-3.36,5.49-9.3l1.56-10.54c.97-4.83-.7-8.54-4.98-10.89-.79-1.57-.13-2.98,1.56-2.71Z"/><path class="cls-19" d="M279.96,211.83c-1.16-1.67-.43-.9.54-1.57,1.5-1.03,3.13-1.74,4.66-2.7,1.6-.17.62.46.29,1.21-.25.59-.93.85-.65,2.06,3.19,1.4,5.41,4.52,5.49,8.08.11,4.56-1.62,10.28-1.8,14.62-.13,3.22,1.94,5.57-1.38,7.76-4.24,2.8-9.95,2.84-14.67,3.65-.75.13-1.48.95-2.07,1.01-.52.05-2.6-1.59-2.64-1.75-3.63-1.11-13.97-5.99-6.4-8.59,1.29-5.68,2.34-11.42,3.16-17.23l1.41-1.06c.87-.32,1.8-1.47,3.05-1.22-.44,7.83-2.13,15.58-2.97,23.39,1.18,1.95,2.65,2.9,4.8,2.27l1.08-1.72,7.31-3.19c1.41-7.25,2.53-14.58,3.36-21.99-1.45-.91-2.31-1.92-2.58-3.03Z"/><path class="cls-50" d="M247.57,186.77c2.74-.14,3.14,3.07,5.17,4.3,1.36.82,4.03.72,4.51,2.21,1.74,5.46-3.72,12.21-1.28,17.77.7,1.6,3.06,2.15,1.41,4.63-.91,1.37-6.93,2.45-8.81,3.55-3.79,2.21-7.65,7.75-9.94,9-2.89,1.58-7.52,2.03-10.42,4.29-1.13.19-1.09-1.22-1.85-1.79-2.56-1.94-1.97-2.11-3.37-3.49-.86-.85-2.68-.34-2.91-2.59.89-.46,2.06-1.27,3.06-1.83-.36,1.75,1,1.32,2.14,1.25,10.04-.6,14.57-2.9,22.69-7.88,1.09-.67,3.65-.99,4.2-1.9,1.05-1.74-.25-4.07-.32-5.82-.19-5.55,1.27-13.4-4.89-16.19.22-1.82.39-3.77.61-5.5Z"/><path class="cls-50" d="M292.79,160.5c.08.57-.07,1.24,0,1.84,1.87-1.01,2.78,1.82,4.31,2.7,1.67.95,5.45.89,5.98,3.22.22.96-.61,1.95-.53,2.92.07.85.92,1.38,1.1,2.02,1.22,4.31-3.36,11.04-3.59,14.5-.17,2.6,1.31,5.97.66,8.86-7.53-.93-14.68,5.14-21.74,6.06-2.45.32-6.6.62-9.12.7-1.75.06-3.49-.41-5.19-.66l2.44-2.44c.02-1.87.96-2.32,2.44-1.22,4.14-.04,23.44-6.11,25.03-8.13,1.71-2.19,2.14-20.08-1.55-22.81-1.5,1.02-3.32-1.5-1.48-2.06-1.92-.34-.98-6.08,1.22-5.5Z"/><path class="cls-58" d="M315.4,192.27c-.38-4.2,5.53-.35,1.83,1.83-.02.2.02.41,0,.61.06,2.26,1.38,4.07,3.96,5.45,6.15,2.49-.83,26.35-3.47,26.51-4.16-2.22-8.86-2.34-14.11-.36l-1.05-1.05c.06-1.16.79-2.06,2.18-2.7-3.46-.61-5.41-1.95-5.84-4.02.08-.06-.53-1.02-.45-1.95.13-1.64.37-4.05,1.06-5.38.98.99,2.35,1.61,4.1,1.86l7.06,2.89,1.06-7.8c1.73-4.66,2.74-9.84,2.76-14.81l.9-1.07Z"/><path class="cls-44" d="M327.62,180.66c-1.42-.48-1.42-1.3,0-2.44-4.38-.34-9.02.02-13.92,1.1-1-.04-1.12-.77-.74-1.71-1.84-1.08-3.83-2.05-5.96-2.89l-.15-1.38.61-.6c-2.76-.26-2.72-1.11-2.44-3.67l.53-1.23c.82-1.36,11.03,2.35,12.65,3.69.62-.38,2.86-7.66-.38-7.75l.03-1.44c1.18.43,2.54.51,3.66,1.22.54-5.19,1.96-10.27,3.06-15.28.8,2.45,2.7,4.15,3.49,6.59,1.05,3.22,2.39,17.25,1.95,20.56-.23,1.69-1.16,4.02-2.39,5.24Z"/><path class="cls-26" d="M273.85,169.05c1.64-.57,1.77,3.1,1.78,4.49l-2.2,13.06c-1.04,5.12.31,5.79,4.7,7.5.39,2.92-5.8,4.76-8.55,4.89-.79.4-1.65.83-2.44,1.22-2.11,1.04-4.59,1.94-6.72,3.05.82-4.84,1.31-9.78,1.83-14.66.2-.73.48-1.39,1.16-1.18l1.61-12.06,1.51-2.03c2.95-1.91,4.04-2.6,7.33-4.28Z"/><path class="cls-50" d="M327.62,178.22c.13.49.04,1.82,0,2.44-.07.94-.42,3.36-.61,4.28-.74,3.52-2.67,7.84-5.8,9.83-1.24.79-2.53-.63-3.98-.67.09-.8-.05-1.64,0-2.44-1.06-.42-1.42.45-1.83.61-.95,2.35-6.12,5.15-8.55,4.28l-.5-6.42c1.64-3.47-1.58-2.99-2.72-5.37-.85-1.79.16-2.03.16-2.27,1.72-1.04,3.5-1.33,5.36-.87,5.38-1.89,10.77-3,16.19-3.33.48-1.09,1.53-1.02,2.28-.08Z"/><path class="cls-56" d="M284.23,164.17c1.51.04,7.18,2.37,7.73,3.83.42,1.1-2.02,21.33-4.46,22.67-1.36,1.09-8.24,4.48-9.38,2.83,1.2-9.58,2.14-19.47,4.59-28.73.33-.57,1.25-.42,1.52-.6Z"/><path class="cls-56" d="M267.74,261.93c1.56.49,7.8,3.13,7.98,4.6.1.84-.88,7.19-1.32,7.87-1.11,1.69-4,1.97-5.44,2.81l-15.28-6.72c.03-.24-.83-1.68.15-2.91"/><path class="cls-91" d="M265.9,217.32l-2.72,16.52c-.38.59-.71,2.75-1.02,2.95-.81.54-2.64-.75-2.37,1,.38,2.42,6.34,4.44,8.57,5.2-.02.39-.65,1.07-.62,1.21-3.54,1.04-6.54,3.29-9.78,4.89-.52.26-1.29.32-1.83.61l3.18-28.89c.68-2.1,4.77-2.83,6.59-3.49Z"/><path class="cls-64" d="M317.23,194.72c-.58,1.37,2.81,2.44,3.28,2.36.99-.18,4.05-4.3,5.89-4.19.78.9-1.54,16.06-2,18.46-.98,5.04-2.56,11.91-4.98,16.4-.53.99-.8,1.86-2.17,1.8,0-.41.01-.82,0-1.22l-6.41-.66c-4.32,1.34-8.73,2.02-13.24,2.04l-1.12-.76c.05-.4-.05-.82,0-1.22.62-2.03,4.44-3.75,6.11-2.44l10.07-1.87c1.86.02,3.1,1.19,4.29,2.48,1.08,0,2.99-5.29,3.33-6.44.64-2.16,2.48-9.7,2.48-11.57,0-.8-.64-4.54-.93-5.18-.63-1.38-5.12-4.37-5.2-4.71-.42-1.71.55-2.6.63-3.25Z"/><path class="cls-56" d="M292.18,253.37c.57-3.38-.27-6.73,3.11-8.81,1.05-.65,10.34-5.24,10.95-5.24,1.02.5,1.2,1.04,0,1.22"/><path class="cls-93" d="M317.84,162.33l2.78,1.8c1.15,3.15-1.59,5.93-.95,9.19-1.54,0-2.54-1.28-3.95-1.85-2.16-.87-5.63-2.03-7.88-2.57-1.15-.27-1.68-.41-2.83.14.43-3.97,1.24-7.03,2.44-10.39,3.34.87,6.83,1.89,10.07,3.07.43.16.28.59.31.6Z"/><path class="cls-66" d="M311.73,208.16c.36.25.71.5,1.08.74l-1.08,8.43c-.66.96-10.28-4.87-12.21-3.67,0-.81-.02-1.63,0-2.45.04-2.1.33-5.24.61-7.33,3.45.82,8.74,2.26,11.61,4.28Z"/><path class="cls-30" d="M240.24,230.77c-.4,1.46,1.21,1.24,1.61,2.09.52,1.11.3,11.1-.39,11.96-4.28-3.04-9.4-4.53-13.44-7.94,3.83-2.11,8.24-4.28,12.22-6.11Z"/><path class="cls-11" d="M273.85,169.05c.79-.4,5.04-3.52,5.5-3.05.28,1.11-.83,1.42-1.07,2.29-1.15,4.24-.57,8.99-.92,13.12-.23,2.63-1.58,6.42-1.53,8.87.02,1.02,1.6,2.42,2.3,3.21.53.15.52.36,0,.61-2.89.46-5.55-.17-6.1-3.4-.59-3.46,2.14-12.8,2.39-17.13l-.56-4.52Z"/><path class="cls-50" d="M296.46,228.93c2.82-1.81,5.32-.39,7.59-.61,1.87-.18,4.07-1.85,6.78-1.89,2.3-.03,4.08,1.17,6.41.05.02.61-.01,1.22,0,1.83-1.92,3.22-5.89,2.01-8.83,2.47-2.04.32-3.56,1.87-6.15,1.86-2.15-.01-4.9-1.42-6.36-2.9-.13-.47.56-.76.56-.82Z"/><path class="cls-64" d="M327.62,178.22c-1.27-.45-1.12,1.12-1.63,1.22-1.35.28-3.04-.18-4.65.14-2.79.55-11.24,3.43-13.1,3.39-.92-.02-1.44-1.05-2.22-1s-1.92,1.75-2.23.53c0-.2-.01-.41,0-.61,1.06-2.37,7.09-6.25,9.17-4.28.07,0,.45.58.9.53,3.17-.33,8.84-1.71,11.65-1.48.87.07,1.89.69,2.12,1.56Z"/><path class="cls-75" d="M297.69,218.97c.23-.71,1.12-.35,1.21-.42,2.48,1.92,5.66,2.56,8.55,3.67-1.12,1.09-3.47,2.35-4.89,3.05"/><path class="cls-75" d="M306.84,173.33c2.35.91,4.58,2.54,7.33,2.45l-1.22,1.83c-2.54.18-6.56,3.45-9.17,4.28.16-3.08.49-6.09.61-9.16.19-.2,1.97.43,2.44.61Z"/><path class="cls-110" d="M266.52,173.33c-.62,4.79-1.53,9.53-1.84,14.37-.12,1.77-1.48.64-2.44.91,0-.04-.46-.35-.41-.78.47-4.3,1.41-8.53,1.75-12.84.58-1.94,2.41-1.31,2.94-1.65Z"/><path class="cls-93" d="M292.79,160.5l-.47.44-.76,5.06-.47.68c-2.31-.84-4.6-1.68-6.86-2.51,1.34-.88,6.5-4.04,7.65-4.27.59-.12.81-.03.9.6Z"/><path class="cls-50" d="M314.79,239.93c-.18.5.2,1.48-.3,2.43-1.14,2.17-3.74,1.66-5.44.55-1.36-.89-1.21-2.53-2.82-2.37.1-.32-.07-.84,0-1.22,1.62,0,5.29,3.93,8.55.61Z"/><path class="cls-56" d="M239.63,194.11c1.1.45,2.54,1.27,3.67,1.83.67.34,3,1.18,3.1,1.62l-1.38,12.63c-.41,1.42-7.28,4.47-9.05,5.3-.47-.06-1.16-.18-1.22-.52-.34-2,1.16-20.84,2-21.52.99-.8,2.06-.18,2.89.66Z"/><path class="cls-83" d="M235.97,215.49c-1.56.73-2.99,1.98-4.89,1.83-.67-5.79.93-11.25,1.76-16.87.43-2.91-.27-5.85,1.34-8.74.79-.56,3.24.72,4.23,1.17.59.27,1.15.64,1.83.62l-.61.6c-.55-.23-1.27-.26-1.83-.61"/><path class="cls-41" d="M186.47,422.62c-7.27-2.78-13.98,7.25-9.78,13.44-.24-.08-.73.18-1.09-.11-.42-.33-1.36-3.13-1.39-3.87-.25-5.26,7.9-14.9,12.26-9.46Z"/><path class="cls-73" d="M141.75,258.38c.13.23.52,4.1.68,5.14.49,3.21-1.65.4-2.43-.02-8.41-4.45-17.45-7.65-26.03-11.85-1.57-.77-12.31-5.76-9.97-8.05,4.78-.46,9.4,1.32,13.77,3.03,5.51,2.16,12.46,4.84,17.82,7.23.69.31,5.99,4.18,6.17,4.51Z"/><path class="cls-34" d="M110.49,285.24c2.64-.86,5.55.7,7.96,1.63,8.08,3.12,15.56,8.52,23.63,11.81,2.37,1.32,2.12,4,2.81,6.29l-1.83.69c-7.18-3.26-14.06-7.18-21.13-10.66-1.89-.93-3.99-1.31-6.14-2.42-1.58-.81-9.79-5.88-5.31-7.34Z"/><path class="cls-13" d="M144.92,318.14c1.7.67,1.31,2.95,1.22,4.6-.04.73.17,1.23-.91.9-2.16-.67-6.22-4.3-8.53-5.52-6.1-3.22-15.7-8.11-22.33-8.52v-.61c2.87-1.07,4.95.03,7.33-2.44,7.36,4.24,15.7,7.59,23.22,11.61Z"/><path class="cls-75" d="M143.7,283.62c.11,1.32-.04,2.66,0,3.97-.42.45-5.88-2.75-6.9-3.19-1.72-.75-3.88-1.17-5.32-1.7-1-1.18-.27-1.44.79-1.96"/><path class="cls-75" d="M140.04,244.82c0,.09.53.46.56.97.18,2.55.39,5.06.65,7.59-.33.4-8.21-4.47-9.16-4.89,2.58-1.39,4.93-3.24,7.94-3.67Z"/><path class="cls-63" d="M108.26,217.32c-.13,4.98,1.06,10.35,1.4,15.41.07,1.03,1.34,1.95-.79,1.7-1.12-4.21-2.46-9.96-2.5-14.36-.01-1.57-.02-2.63,1.89-2.75Z"/><path class="cls-104" d="M102.76,133.01c-.6,4.41,1.22,3.71,3.37,5.49,4.65,3.86,6.16,12.84,6.43,18.62.4,8.35-7.26,7.97-13.28,10.6-6.54,2.86-7.66,4.47-15.13,5.64-2.15.34-3.54,2.46-5.81-.33,0-.25,2.2-1.53.6-2.46-.63.06-2.03-.32-2.45-.29l26.79-12.31c.85-1.22-1.41-19.45-1.74-22.51l1.22-2.44Z"/><path class="cls-92" d="M148.59,112.23c.76,4.73,1.01,4.21,2.91,7.78,2.67,5.03,3.66,11.24,4.59,16.79.3,1.81,1.5,2.39.38,4.36-1.47,2.58-4.41,2.01-6.84,2.97-2.85,1.12-6.6,2.73-9.41,4.04-3.51,1.64-7.97,5.07-11.62,6.11-3.01.86-2.19-1.13-.8-2.64.99-1.07,2.78-1.67,3.66-3.05l-3.66-1.53,20.48-9.76c1.22-2.01-.24-8.31-.32-10.71-.16-4.89-.29-9.5-.61-14.36l.92-2.45c.62,0,.2,1.81.31,2.45Z"/><path class="cls-55" d="M210.3,88.4c7.4,2.4,14.63,5.47,22,7.94.53.17.53.38,0,.61l-1.15.85c-6.51-2.85-13.15-5.17-19.93-6.97.16,8.31-.96,16.26-3.37,23.84l-1.29-.27c.13-1.31-.84-2.21-2.92-2.68-1.72-5.66-2.37-11.52-1.94-17.6-.17-2.56-.61-5.64-3.74-4.26l-1.11-.85c-.84-1.73-2.54-2.02-5.09-.86l-1.02-.97c.19-2.1,2.28-2.69,3.58-4.06.98-1.04,1.02-2.8,2.84-3.25,1.48.96,1.18,2.91,1.86,4.21,1.52,2.89,8.47,3.41,11.27,4.32Z"/><path class="cls-60" d="M190.75,87.18c.76-.28,5.9-1.47,6.11-1.22,0,1.01.01,2.04,0,3.06,1.68,1.68,1.48,3.72-.61,6.11,2.06.43.64,4.96-.53,6.07-5.97,3.1-8.24-.15-6.8-9.73-.05-1.01.04-2.04,0-3.06.57-.23,1.26-1.01,1.83-1.22Z"/><path class="cls-57" d="M146.76,106.73l13.13-5.5c.52,2.51-2.27,4.46-3.63,6.15-1.27,1.57-1.19,3.8-4.26,3.63s-2.35-3.23-4.63-4.27h-.61Z"/><path class="cls-97" d="M232.3,96.34c7.03,2.36,13.4,3.68,20.59,6.6.13.05,3.46,1.58,2.02,1.95-.86-.31-5.89-2.11-6.11-1.84l-3.67,31.16c-.93-.12-2.07.02-3.06,0-.97.52-2.66,1.27-2.86-.08,1.65-10.32,2.78-20.69,3.39-31.13-1.51-1.04-2.92-2.25-4.2-3.61-.64-.24-3.47-1.56-3.66-1.23l-.61,2.45c-.95-.98-1.56-2.21-1.83-3.67v-.61Z"/><path class="cls-74" d="M238.41,99.4c2.05.76,4.23,1.27,5.36,3.43-1.23,10.43-.75,20.87-3.54,31.08.03.57,1.26.3,1.84.31-.64.84-3.52,2.33-4.26,1.82l-.65-2.74c.69-10.01,3.72-21.14,2.43-31.13-.13-1.04-.74-1.88-1.19-2.78Z"/><path class="cls-84" d="M229.85,137.28c-6.02.14-10.8-4.05-16.06-6.25-1.46-.61-6.08-.5-5.32-3.22.39-1.39,3.87-.3,5-.12,4.62.71,7.21,1.91,11.37,3.33s5.69-.65,5.01,6.26Z"/><path class="cls-56" d="M184.64,138.5l-1.92,28.32c-.18.58-4.65,3.07-5.6,3.56-2.54,1.31-6.34,3.06-8.97,4.16-.47.2-2.26.79-2.44.61l-1.17-27.71,1.34-1.14c6.33-1.96,12.48-6.22,18.77-7.81Z"/><path class="cls-7" d="M198.08,165.39c-.94-.26-2.32.85-2.45-.89-.17-2.37.42-4.11.5-6.13.21-5.26-.49-11.06-.37-16.35.03-1.52,1.25-11.67,1.75-12.01,1.75-1.19,7.09,3.79,8.9,4.75,1.53.8,3.58,1.46,5.23,2.1.43.17,2.63.43,1.09,1.04-1.84.15-7.14-3.86-7.86-1.44-.81,8.58-1.4,17.19-2.36,25.75-.11.98-.7,2.56.44,3.18-.04,0-.39.46-.79.4-1.41-.22-2.89-.97-4.1-.4Z"/><path class="cls-88" d="M188.92,91.46c.09,1.68.35,7.02.7,8.16s2.16,1.63,3.22,1.6c3.15-.1,3.04-3.77,3.4-6.09.26-4.5,6.7-3.63,4.28-.31.47,0,1.19.11,1.22.41.51,5.22.59,16.95,0,22.09l-1.22.72c1.05-.59,1.71.16,1.58,1.21,1.92-1.23,3.02-1.33,3.31-.29l.61,1.22s.1.44-.42.48c-1.24.09-3.61.23-4.61.75s-1.15,2.81-2.91,2.43v-18.02c0-.07-.89-1.22-1.22-.62-2.34,2.54-1.14,7.43-3.95,9.49-2.35,1.72-4.29,1.72-5.82-.63.19-2.09-.17-4.31,0-6.41l1.83-16.19Z"/><path class="cls-18" d="M284.23,164.17l3.06-.61-.62,1.21c.78.28,4.74,1.03,4.89,1.23.1.13-.18.89.1,1.14s1.18-.42,1.74-.2c1.15.45,2.78,3.61,3.01,4.9.72,4.22.65,13.37,0,17.65-.23,1.55-1.16,2.84-2.58,3.53-8.05,1.45-15.97,8.36-24.27,5.97,1.19-.61,8.38-4.43,8.55-4.89.02-.2-.03-.41,0-.61.5.11,8.78-3.75,9.37-4.23,1.68-1.37,2.29-18.34,3.42-21.65l-6.68-3.44Z"/><path class="cls-22" d="M196.86,89.01c7.93-3.77,5.76,8.56,6.11,13.14.12,1.55.97,9.18,2.18,9.42l2.09-.56.61,3.66c-.3,2.36-.32,2.74-2.44,4.28-.05.04-.54-.05-1.01.21-.54.31-.19,1.55-2.9,1.04-.31-.32-.98-2.02-.98-2.17v-23.22c0-2.5-3.57-1.7-4.28.31.32-2.03.59-4.04.61-6.11Z"/></svg>